<?xml version="1.0" encoding="UTF-8"?><svg id="a" xmlns="http://www.w3.org/2000/svg" width="494.661" height="1279.901" viewBox="0 0 494.661 1279.901"><path d="M148.054,5.796s-19.357,4.374-28.764,25.238c-9.408,20.865-18.112,31.95-19.155,37.705-1.044,5.755-.893,15.48-.893,15.48l-7.409-4.1-1.508,11.36v26.312s3.131,24.84,9.771,33.325c6.64,8.486,20.079,17.285,24.416,30.715,4.337,13.43,7,31.224,7,31.224,0,0,11.467,15.355,11.31,19.883-.156,4.529-.867,17.77-.867,17.77l-10.443,13.792s-25.784,19.329-27.916,23.815c-2.131,4.486-19.083,27.25-18.299,38.291.783,11.042-.602,20.82.574,24.507,1.176,3.687,5.679,20.419,3.36,32.638-2.319,12.219-1.98,11.581,1.29,10.881,3.27-.701,8.321-10.791,12.084-8.329,3.762,2.463,4.58,5.532,7.076,10.711,2.496,5.178,1.264,15.076,8.333,14.76,7.07-.315,12.318-8.038,13.472-2.244,1.155,5.794,2.669,29.381,2.669,29.381,0,0,2.461,19.836-.223,29.487-2.684,9.651,8.705,14.435,7.893,21.412-.812,6.978,2.419,4.426.973,13.228-1.446,8.801,1.792,21.663-3.637,28.657-5.429,6.993-13.703,24.817-15.511,31.845-1.809,7.028-13.965,69.99-18.544,83.718-4.58,13.728-19.096,47.245-25.963,51.431-6.867,4.185-1.703,4.52-1.703,4.52,0,0,5.514,5.176,7.754,4.954,2.24-.222,9.694-2.549,9.694-2.549,0,0,9.837,9.816,15.214,11.22,5.377,1.404,20.49-3.459,21.41,3.004.92,6.464-.867,29.508-.277,39.148.59,9.641,5.614,62.161,5.081,74.987-.533,12.826-5.605,30.735-5.643,38.786-.038,8.05-1.834,12.746-.845,21.353.989,8.606-19.381,38.23-19.726,39.908-.345,1.677.66,5.768,3.109,9.002,2.45,3.235,6.013-1.351,5.983,15.907-.03,17.257-.115,136.439-3.334,141.598-3.219,5.159-57.61,19.879-76.639,30.585-19.029,10.706-33.993,33.637-35.203,35.997-1.21,2.36-3.752,36.341-3.752,36.341,0,0-.108,6.439,3.481,11.628,3.589,5.188,78.282,76.217,259.574,56.028,181.293-20.19,164.35-66.678,164.09-77.8-.259-11.121-1.22-24.088-2.238-26.475-1.018-2.386-17.599-31.767-40.618-39.997-23.02-8.231-33.444-8.745-33.444-13.375s-1.008-16.397-3.436-18.488c-2.429-2.092-4.029-.598-8.372-.598-1.539,0-5.03,7.261-9.583,12.909-2.411,2.992-12.465-4.001-15.952-2.831-3.487,1.17-13.154-4.872-13.154-4.872,4.495-6.455-.319-8.471-.319-8.471,0,0-16.281-7.918-17.696-11.559-1.414-3.641-7.612-8.785-11.028-12.9-3.416-4.116-10.366,1.028-10.366-18.005s6.841-55.858,7.735-61.235c.894-5.377-.066-10.092,1.007-12.38,1.072-2.287,7.005-9.535,7.584-14,.579-4.466.447-12.805,2.962-16.698,2.515-3.894,13.062-11.901,13.062-11.901l-6.724-24.732s1.505-4.671.883-9.119c-.621-4.447-1.752-19.173-1.752-19.173,0,0,5.282-6.839,5.776-11.1.493-4.261-1.31-20.831,2.45-34.333,3.761-13.501,25.776-82.134,27.931-97.339,2.156-15.206,3.768-34.848,3.768-34.848,0,0,4.401,2.614,10.857,2.098,6.457-.516,11.41-3.089,18.732-2.096,7.321.992,20.857,3.654,24.057,2.113,3.201-1.541,3.335-4.985,3.335-4.985,0,0-37.04-87.666-37.004-99.164.035-11.498,1.352-27.073,0-36.126-1.352-9.053-4.834-21.372-4.834-21.372,0,0-3.484-5.011,10.311-.536,13.794,4.474,13.911,5.455,18.499,5.359,4.588-.095,14.757-.868,18.211-11.481,3.453-10.613-1.227-18.618-2.697-20.726-1.47-2.108-4.66-10.178-13.153-9.292-8.494.886-27.264-10.332-27.264-10.332,0,0-3.028.423-1.209-6.272,1.819-6.694,4.557-11.316,3.823-18.476-.734-7.159-9.029-34.096-9.029-34.096l47.01-97.091s17.171,6.371,19.158,10.419c1.987,4.049,3.369,14.837,5.454,13.319,2.085-1.518,10.242,1.119,11.774,1.035,1.532-.085,5.818-1.352,10.313-.79,4.496.562,8.667,2.392,13.894-.245,5.227-2.636,22.932-19.462,28.222-29.527,5.291-10.065,19.723-51.306,20.236-62.373.512-11.067,1.251-37.346-11.824-48.134-13.076-10.789-11.342-10.63-22.633-4.794-11.291,5.836-19.59,15.213-24.561,15.411-4.971.199-12.491,4.972-11.82-2.756.672-7.728-1.114-23.916-4.049-24.042-2.936-.127-5.625-.588-6.154-.901-.529-.314.095-8.093-3.398-9.133-3.493-1.041-8.163,3.281-11.013-.42-2.849-3.701-2.432-4.254-5.464-4.75-3.032-.495-12.099,1.423-11.999,1.974.1.552-2.76-1.646-6.668,0l-3.91,1.647-6.378,4.644s-16.158-3.779-17.051-6.012l-.893-2.233s-6.928-3.142-9.114-5.188c-2.185-2.046-1.332-5.994-4.361-7.09-3.029-1.097-6.599,1.335-8.289-1.167-1.69-2.502-.848-5.197-7.83-7.241-6.982-2.043-9.765-4.137-13.598-1.026-3.833,3.112-4.633.972-6.129,4.14l-1.495,3.169s-2.172,1.903-5.647-1.621c-3.474-3.524-4.485-1.078-8.874-3.117-4.39-2.04-6.986-4.738-5.672-5.716,1.315-.979,1.714-3.421-.432-8.644-2.146-5.223-6.981-17.126-6.981-17.126,0,0,2.29-17.557,1.846-22.734-.444-5.177,1.907-10.832-2.713-13.231-4.62-2.4-3.44-16.699-3.44-16.699,0,0,2.369-9.872,1.722-12.447-.647-2.575-10.873-7.815-12.173-9.596-1.301-1.781,1.668-6.884-.061-12.04-1.728-5.157-13.353-20.795-18.69-27.873-5.338-7.078-1.73-11.93-9.388-14.223-7.658-2.293-4.615-3.686-10.706-5.472-6.091-1.786-8.859-.034-16.744-2.873-7.884-2.839-36.272-9.51-49.945,1.961" fill="#ff7aab"/><path d="M91.324,89.057c-1.951-.506-.859-8.198.446-8.235,3.042,2.542-.652,5.178-.446,8.235" fill="#ff1c26"/><path d="M253.464,54.979h-1.73l.002-5.157c1.968.628,1.855,3.19,1.728,5.157" fill="#ff1c26"/><rect x="100.594" y="140.858" width="4.144" height="1.746" transform="translate(-39.359 243.99) rotate(-89.836)" fill="#ff1c26"/><path d="M347.612,1263.238l-3.482.005v-2.055c1.626-.266,3.016-.003,3.482,2.05" fill="#ff1c26"/><path d="M293.565,1087.703c-.288,5.82-11.317,4.542-12.887,1.759-.481-.854-.025-2.562-.192-2.814-.08-.121-1.35.996-2.548.53-1.245-.483-7.811-5.704-6.167-7.745,10.473-4.71,13.004,5.585,21.794,8.27" fill="#ff1c26"/><rect x="168.048" y="1123.839" width="2.606" height="2.055" fill="#ff1c26"/><path d="M177.631,1121.778l-3.482-.005v2.055c1.626.267,3.015.004,3.482-2.05" fill="#ff1c26"/><polygon points="180.242 1116.61 178.951 1116.614 176.76 1119.693 180.242 1118.654 180.242 1116.61" fill="#ff1c26"/><path d="M163.68,1104.218c-1.579-.285-2.798.034-4.288.59-1.042.39-4.685,2.293-5.293,3.524,2.561-.068,4.925-1.34,7.372-2.124,1.341-.43,2.669,1.302,2.209-1.99" fill="#ff1c26"/><path d="M205.521,959.632l-8.977,1.237c-1.449.527-4.743,7.995-5.407,10.118-10.279,32.897-18.283,80.016-15.235,115.136.347,3.996,1.742,7.832,1.729,11.898,5.427-1.762,12.849.068,17.871-1.037.993-.218,1.765-.353,2.056-1.694-.734-11.024,1.737-21.142,2.729-31.88.68-7.365.25-15.636.95-22.626.574-5.73,4.021-14.336,4.243-19.847.393-9.756-3.34-20.814-2.605-30.885.342-4.688,2.247-8.752,2.642-13.389.462-5.43-.312-11.519.004-17.031" fill="#ff1c26"/><path d="M219.467,856.357c-2.321-3.476-1.649,7.79-1.786,8.728-.538,3.689-2.825,7.248-1.691,11.927,4.922,1.701,4.075-19.759,3.477-20.655" fill="#ff1c26"/><path d="M222.079,856.363c-.737-7.514,2.946-14.113,2.615-21.687l-5.197,13.986c.405,2.393.381,6.559,2.582,7.701" fill="#ff1c26"/><path d="M94.815,688.037c-1.261-1.671-7.338,9.127-6.088,11.355,1.399-1.2,7.117-9.992,6.088-11.355" fill="#ff1c26"/><path d="M94.826,686.994c7.734.704,4.598-.995,5.39-4.407.427-1.84,3.997-5.537,3.314-9.012-4.919,1.878-7.196,7.796-8.704,13.419" fill="#ff1c26"/><path d="M107.9,667.373c2.059,2.852,4.963-11.018,4.345-12.387-2.276.775-5.202,11.2-4.345,12.387" fill="#ff1c26"/><path d="M191.578,648.8c-10.1.254-20.541,8.708-24.399,19.61,3.024-.291,2.629-3.559,3.725-4.864,2.964-3.53,12.478-11.354,16.295-13.077,1.252-.565,3.692,1.46,4.379-1.669" fill="#ff1c26"/><path d="M202.91,645.701c.644,2.96,6.511,2.666,7.472,1.099l.411-2.629-1.772-2.611-.004,4.14h-6.107Z" fill="#ff1c26"/><path d="M347.603,628.135c.233-1.926.006-3.578-1.726-4.131-.233,1.926-.007,3.579,1.726,4.131" fill="#ff1c26"/><path d="M236.034,614.72l-6.678,6.02-7.264,4.286c5.761-.436,10.797-4.868,13.942-10.306" fill="#ff1c26"/><path d="M241.26,588.898c-3.553-.368-2.425,6.777-2.606,9.284l2.606-2.582v-6.702Z" fill="#ff1c26"/><path d="M241.26,580.636h-1.734l.004,4.125c1.733-.552,1.955-2.199,1.73-4.125" fill="#ff1c26"/><path d="M270.026,567.216c-5.737-1.163-10.399,2.809-14.399,7.194-1.965,2.155-4.663,7.295-6.032,8.345-1.576,1.208-3.627.647-4.826,2.523l4.806,1.486,2.15,13.482c-17.653.51-34.984,4.358-43.266,24.874-3.697.922-13.902-7.5-14.687-7.309-3.614.878,1.643,6.887,1.96,7.985.356,1.233.399,10.507,3.264,7.511,2.023-2.114.464-3.463.431-6.199l2.609-.005.45,3.116c4.676-1.12,7.994-.298,12.622-3.129l-2.607-1.039c-.116-1.447-.088-2.735.452-4.091.752-1.887,11.009-12.599,12.865-13.674,1.651-.955,7.991-3.123,9.929-3.494,4.229-.81,17.949,1.414,19.511.163,3.211-2.572-1.931-8.702-2.388-10.541-.293-1.18.485-4.776-.27-6.549,6.893.858,12.09,2.176,18.298-2.582-2.099-3.373-3.884.134-6.483.565-3.102.514-8.097.385-10.557-2.088-2.201-4.174,8.4-10.752,10.523-13.437l5.645-3.107Z" fill="#ff1c26"/><path d="M278.086,565.916c-1.061-1.432-1.011-8.384-4.563-7.999-.115,2.694,2.052,4.462,2.419,6.947.274,1.857,1.018,7.382,1.125,9.062.317,4.983-1.694,4.799-2.668,8.77,3.433-1.581,5.625-4.437,6.036-8.859.116-1.255-.644-2.497-.629-3.263.078-3.782,5.724-1.836,6.48.807l3.788-1.09c.211-1.472-1.519-1.411-2.427-1.74-2.183-.792-8.709-1.485-9.561-2.635" fill="#ff1c26"/><path d="M307.509,544.492c-2.881-.729-5.651.863-8.294.992-1.064.052-2.196-.696-3.322-.611-.993.076-4.887.195-4.937,1.668,4.614.308,10.783.691,15.266.013,1.271-.193,2.706-.792,1.287-2.062" fill="#ff1c26"/><path d="M274.389,546.551h13.076c-1.06-3.331-5.024-1.164-7.019-1.487-2.159-.35-4.158-1.451-6.048-2.643l-.009,4.13Z" fill="#ff1c26"/><path d="M320.594,544.481c1.647.329,2.897-1.209,2.602-3.093l-2.605,1.045.003,2.048Z" fill="#ff1c26"/><path d="M303.155,541.388h-13.947c-.066.671,1.156,2.065,1.307,2.065h12.64v-2.065Z" fill="#ff1c26"/><rect x="272.643" y="520.739" width=".878" height="9.284" fill="#ff1c26"/><path d="M293.562,519.707c-4.837,1.389-10.41-1.386-14.797,1.543.049,1.591,14.937,4.463,14.797-1.543" fill="#ff1c26"/><path d="M324.068,519.701l-.854-8.256c.322,2.824-2.345,6.786.854,8.256" fill="#ff1c26"/><rect x="322.337" y="506.281" width="1.734" height="3.088" fill="#ff1c26"/><path d="M310.129,501.102c-.466-2.053-1.856-2.316-3.482-2.049v2.054l3.482-.005Z" fill="#ff1c26"/><path d="M278.743,498.02c-1.786-.302-3.351.206-5.052.722-.97.294-4.264,1.054-3.652,2.871,1.314,3.895,3.653-.8,4.971-1.329,1.792-.719,4.375,1.128,3.733-2.264" fill="#ff1c26"/><path d="M322.102,497.25c-.942-1.072-2.831-1.375-4.123-1.295-.45.467,3.593,6.141,3.918,6.17,1.408.127,1.411-3.501.205-4.875" fill="#ff1c26"/><path d="M306.642,495.949h-23.536c-.606,3.67,5.745,1.753,8.172,2.195,2.73.498,5.46,1.162,7.953,2.613l7.411-4.808Z" fill="#ff1c26"/><path d="M314.477,469.101l-2.6.003.877,4.122c1.272.326,1.813-.441,2.587-1.544l-.864-2.581Z" fill="#ff1c26"/><path d="M100.046,349.31c-1.782-.742-2.952,1.525-4.057,1.754-1.263.262-4.435-2.116-4.649.293l6.092,3.113c-1.106-4.998,2.997-1.296,2.614-5.16" fill="#ff1c26"/><path d="M117.48,348.267c.887-1.038-1.702-4.145-2.607-3.088-.887,1.038,1.702,4.145,2.607,3.088" fill="#ff1c26"/><polygon points="127.033 336.701 121.514 337.987 121.854 340.039 127.374 338.753 127.033 336.701" fill="#ff1c26"/><path d="M198.543,338.978c.233-1.926.007-3.579-1.726-4.131-.233,1.926-.007,3.579,1.726,4.131" fill="#ff1c26"/><path d="M202.043,333.809c2.314,3.055,6.165-11.67,3.042-13.414.142,5.236-2.573,8.532-3.042,13.414" fill="#ff1c26"/><path d="M257.582,315.519c-.973-1.385-5.046-2.627-6.724-2.353-.19,3.619,5.226,3.175,6.547,6.179,2.213.953.368-3.553.177-3.826" fill="#ff1c26"/><polygon points="270.466 305.921 268.715 307.997 270.466 310.073 272.22 307.997 270.466 305.921" fill="#ff1c26"/><path d="M412.923,300.831l-2.546-.069-2.613,17.558,3.473-1.035c-.886,4.385,3.347,6.984,4.096,8.58.544,1.161.419,2.905,1.083,4.379,2.275,5.043,6.3,8.967,2.679,14.35l4.289,2.731.022,3.569,3.535.471-.532-3.139c2.533-.135,4.614-4.54,5.322-7.21.282-1.062-.763-1.637-.844-2.542-.091-1.013.508-2.121.406-2.921-.104-.813-1.52-.557-1.726-1.448-1.73-7.454-1.589-3.701-4.671-8.679-3.319-5.362-7.944-14.93-11.094-21.015-.566-1.095-.778-2.326-.879-3.58" fill="#ff1c26"/><path d="M391.193,299.74h-1.735l.005,4.126c1.733-.553,1.955-2.199,1.73-4.126" fill="#ff1c26"/><polygon points="213.367 296.64 210.76 296.642 211.641 300.764 213.367 300.763 213.367 296.64" fill="#ff1c26"/><path d="M412.112,298.697l-.427-4.12c-1.341,1.113-1.518,2.216-1.307,4.12h1.734Z" fill="#ff1c26"/><path d="M409.491,291.47c2.168-6.299-2.383-6.771-1.727-.002l1.727.002Z" fill="#ff1c26"/><polygon points="489.695 283.219 487.087 283.206 487.087 288.37 488.818 288.377 489.695 283.219" fill="#ff1c26"/><path d="M418.819,280.46c-.922-.875-1.967-1.572-3.211-1.377-.166,4.257-1.458,8.854.799,12.728.851,1.459,2.56.974,3.326,2.003,1.14,1.534,3.348,6.969,1.967,9.014l6.977,2.106c-2.403,5.184.524,3.543,1.769,5.581,1.159,1.897,1.667,4.54,3.069,6.725,1.618,2.52,4.521,2.101,3.408,6.3l3.955.99-1.734,4.116c6.19-3.148,9.829,4.835,10.453,11.358-1.406,1.506-7.199-6.113-6.086-1.563,1.064,4.353,5.745,4.96,6.075,6.234,1.27,4.904-5.339,2.349-4.337,5.132,1.644,1.692,3.132,5.056,5.575,4.704.417-.06.505-1.48,1.236-1.983,11.315-7.788,8.801-11.03,13.706-22.797.938-2.25,4.416-3.469,3.927-6.752l-1.785-1.036,3.455-3.186-2.149-6.612c-1.426,3.615-5.065.925-3.918-1.03.175-.297,6.167-3.515-.349-3.035-.846.063-2.829,1.332-3.133.954-.111-.138.14-2.339-.872-3.667-1.29-1.695-5.485.354-5.252-6.662l-1.741.766-1.286,2.32-2.183-2.587,2.608-1.544c-2.674-4.112-11.416.994-14.576-3.394-4.822-6.697-4.571-3.567-10.479-6.671-.381-.2-4.337-3.197-4.487-3.459-.226-.397,1.748-3.376-.102-4.592l-3.475-.46.857,4.127c-1.237-.049-1.313-2.092-2.007-2.751" fill="#ff1c26"/><path d="M413.857,274.955h-1.735l.005,4.126c1.733-.553,1.955-2.199,1.73-4.126" fill="#ff1c26"/><polygon points="246.491 268.759 244.756 268.759 244.76 274.945 245.612 274.942 246.491 268.759" fill="#ff1c26"/><path d="M417.344,267.727c-1.39-1.848-4.031,5.029-3.474,6.19,1.169-.387,4.067-5.401,3.474-6.19" fill="#ff1c26"/><polygon points="236.902 272.879 236.897 267.726 236.047 267.729 235.167 272.879 236.902 272.879" fill="#ff1c26"/><path d="M294.439,269.778c1.733-1.562,8.555,1.422,7.84-2.558-.582-3.238-7.393-.312-7.84,2.558" fill="#ff1c26"/><path d="M420.829,260.497l-1.729-.006-.873,5.164c1.489-.213,3.459-4.039,2.602-5.158" fill="#ff1c26"/><path d="M238.646,265.651l-.427-6.186c-1.675,1.461-1.375,3.986-1.307,6.186h1.734Z" fill="#ff1c26"/><path d="M441.75,259.455c-1.307-6.598-10.662-1.374-14.692-1.927l-.119,9.158-4.353,1.536c8.685,5.831,9.776-13.592,19.164-8.767" fill="#ff1c26"/><polygon points="262.194 258.427 263.975 255.845 262.617 253.269 262.194 258.427" fill="#ff1c26"/><polygon points="463.548 249.143 460.064 249.138 460.069 252.231 463.548 249.143" fill="#ff1c26"/><path d="M312.743,249.143c-3.492-.268-6.803-.347-9.23,3.085.541,1.358.782,8.197,1.821,8.244.909.04,1.022-2.224.434-3.069l5.228-.53c-2.035-.869-4.946-.6-5.221-4.11l6.968-3.62Z" fill="#ff1c26"/><polygon points="344.121 248.105 342.385 248.106 343.264 252.223 344.116 252.226 344.121 248.105" fill="#ff1c26"/><path d="M243.005,246.04c-2.199-2.561-2.69,2.84-3.169,3.145-.876.557-2.655.078-3.583,1.257-.336.428-2.395,5.757-2.828,6.947,2.701.616,1.565-2.435,3.236-4.189.829-.87,8.885-4.201,6.344-7.16" fill="#ff1c26"/><path d="M433.905,241.909c-.541-.653-5.18,4.58-5.61,5.192-1.395,1.985-3.389,5.677-3.966,8.227,1.303-1.261,10.599-12.184,9.576-13.419" fill="#ff1c26"/><path d="M427.436,244.556c.666-.95,2.905-3.476,1.686-4.711-2.83,1.986-5.328,4.507-6.544,8.245,1.272,1.402,4.181-2.57,4.858-3.534" fill="#ff1c26"/><polygon points="472.059 238.025 470.734 239.596 473.568 242.952 474.892 241.382 472.059 238.025" fill="#ff1c26"/><polygon points="402.529 237.783 398.174 238.284 400.349 239.893 402.529 237.783" fill="#ff1c26"/><path d="M389.449,235.702c1.661-1.83-3.49-4.623-3.464-1.544.008,1.063,2.885,2.183,3.464,1.544" fill="#ff1c26"/><polygon points="373.876 230.112 373.299 232.43 377.897 234.036 378.474 231.717 373.876 230.112" fill="#ff1c26"/><path d="M338.895,235.696c-1.795-3.373-5.596-4.552-8.711-5.148-1.625,1.808,6.927,6.97,8.711,5.148" fill="#ff1c26"/><path d="M420.829,231.582c-5.558,1.637-10.242-4.574-14.807-1.025l6.544,5.156c1.025.125,5.893-1.398,7.047-1.965,1.108-.545,1.542.429,1.216-2.166" fill="#ff1c26"/><path d="M352.842,232.609l-1.304-2.061c-2.767,4.781-12.557,7.366-7.849,14.434l5.678-10.305c2.597.017,4.016,2.836.862,3.607l2.563,3.996,1.81.16,1.718-6.732-2.171,2.047c-1.845-1.356-1.079-3.314-1.307-5.146l2.493-.196,1.861-5.994c-5.17-.128-4.95,1.418-4.354,6.19" fill="#ff1c26"/><path d="M326.697,228.485l-8.718-2.066c-.597,3.377,3.59,2.723,5.417,3.386,1.947.706,3.659,4.499,3.301-1.32" fill="#ff1c26"/><path d="M471.97,222.694c-6.902-1.945-14.207-.516-20.278,4.165-2.454,1.893-2.258,6.294-6.449,3.693l-.864,5.155c5.932-3.131,11.615-10.43,18.688-9.326,1.637.255,7.954,6.534,10.876,6.87,3.088,3.053,3.439,7.901,5.729,11.773l2.194-.553-4.367-8.252,2.178-1.529,5.663,11.334c-3.199-.709-3.279.438-4.889,3.064l-2.95-.997c-.048,2.031.694,3.696-1.737,3.102l-1.747-7.219.858,12.388-2.625-.692c-.39-2.368-.575-6.753-3.467-6.533l1.734,8.251c-5.255-1.139-7.922-.649-12.871.766-.871.249-2.147-.58-2.864-.203-2.527,1.327-.69,6.894-5.677,7.637-2.664.396,1.201-3.775-1.679-5.071-1.79,1.369-6.263,4.567-8.079,4.905-2.785.517-6.812-3.338-4.523,4.342,6.025-2.323,4.177.088,6.037,1.586,2.946,2.373,7.009-3.097,9.098-2.684.81.16.652,2.591,1.887,2.993.31.101,5.604,1.169,6.113,1.23,3.021.366,8.079-2.232,11.686-1.032l-1.731,3.594c2.337,2.678,5.721,2.737,8.705,2.592l-2.593-4.642c3.249-4.866,8.522-.047,11.657-.442.806-.102.042-3.358,2.27-2.132l.009,5.149c4.13-.084,2.282-7.065,2.65-10.781.331-3.335,3.646-10.602-1.78-11.927l1.722,4.644c-.026,2.759-6.569-1.005-7.56-1.872-2.999-2.628-2.436-8.056,1.913-8.044,2.975.008,3.1,3.193,5.659,3.197.675-3.615-1.828-3.759-3.466-5.675l2.66-2.25c-1.568-8.788-6.216-17.126-13.97-19.52-1.359-.42-3.022-.829-3.82-1.054" fill="#ff1c26"/><path d="M421.702,224.337c1.111-1.74-4.149-6.225-5.121-2.447l-.1,3.485,5.221-1.038Z" fill="#ff1c26"/><path d="M396.996,225.021c.663-.808,2.058-3.337,2.071-4.32.03-2.162-7.922-7.172-10.065-1.475-.634,1.684.116,7.797,1.269,8.82,1.504,1.336,5.596-1.648,6.725-3.025" fill="#ff1c26"/><path d="M383.349,211.96c-1.75-.121-11.942,1.112-11.324,4.627.92,5.241,9.126-3.351,11.334-1.537l-.01-3.09Z" fill="#ff1c26"/><path d="M413.674,213.171c-.126-.258-3.315-2.117-3.865-3.159l-6.209,3.208c-1.676,3.131,1.816,5.073-.197,9.056,4.07,1.064,5.06-4.671,5.836-5.188,1.709-1.137,6.407.111,4.435-3.917" fill="#ff1c26"/><path d="M363.521,215.389c1.711-.97,5.899.57,5.004-3.94-.373-1.878-1.333-1.118-2.307-.713-1.163.484-8.564,4.318-4.209,6.374,1.442.815,1.174-1.53,1.512-1.721" fill="#ff1c26"/><path d="M299.652,209.897c-1.742-.831-2.542,1.53-2.185,3.197.715,3.34,3.3,2.414,4.059,3.666.548.905-.274,3.42.716,4.03,1.051.647,2.335-.525,3.559-.129,2.102.678,4.208,4.256,7.81,2.643-3.741-5.737-11.69-6.291-13.959-13.407" fill="#ff1c26"/><path d="M356.333,212.983c2.197.257,2.943-1.648,2.602-4.126l-2.599,2.596-.003,1.53Z" fill="#ff1c26"/><path d="M398.827,204.963c-5.493-5.659-17.9,3.131-6.768,6.995l1.431-4.051,5.102.946c1.45-.788,1.259-2.836.235-3.89" fill="#ff1c26"/><polygon points="381.604 205.752 378.546 202.014 373.767 206.781 381.604 205.752" fill="#ff1c26"/><path d="M408.561,201.723l-6.028-1.122c-1.811,1.651,5.111,5.299,6.093,4.12l-.065-2.998Z" fill="#ff1c26"/><path d="M344.121,197.508l-4.35-1.038.003,4.128c1.842-1.133,4.625.675,4.347-3.09" fill="#ff1c26"/><polygon points="394.68 195.443 386.884 195.492 386.848 199.563 394.68 195.443" fill="#ff1c26"/><path d="M304.022,199.566c.098-.088.742-2.621.75-2.786.24-4.934-5.52-.287-4.229,1.738.108.17,3.32,1.191,3.479,1.048" fill="#ff1c26"/><path d="M337.826,190.568c-.7-.429-1.106-.489-1.832-.163l-2.762,2.7c-1.559-1.256-1.603-2.612-3.037-.257,4.718,5.834-.356,5.427-1.374,7.741-1.307,2.97-.35,8.412,2.898,9.128,2.11.466,3.987-2.752,6.163-3.088l.522-10.23,4.846-2.521c-1.026-1.407-3.234-1.021-4.555-1.636-.744-.347-.723-1.584-.869-1.674" fill="#ff1c26"/><polygon points="335.405 185.119 332.47 184.199 331.059 185.637 331.055 187.165 335.404 187.165 335.405 185.119" fill="#ff1c26"/><path d="M323.204,342.076c-2.39,9.837-11.093,25.637-16.2,35.025-9.969,18.322-18.828,31.497-32.228,44.436-.819.792-.97,2.554-1.458,2.914-.603.445-9.033.622-6.772,3.325.49.585,5.051,1.029,6.371,2.022,1.347,1.015,8.838,6.428,10.096,6.842,4.074,1.338,9.667,1.194,13.918,1.635.982,2.231,3.379,9.412,4.419,10.773,1.025,1.34,2.777,1.073,3.313,1.745.543.681.251,2.694,1.055,3.366.809.675,9.245.84,4.008,5.719-2.407,2.243-4.001-.652-3.08,7.15,2.787.474,5.828-7.792,6.227-8.101,1.124-.868,5.16.448,7.17-.323.981-.377,2.447-4.715,5.524-4.27l12.891-17.229c.93.985,1.825,2.003,2.371,3.368,2.969,7.437,7.423,26.249,6.574,34.068-.697,6.43-5.789,17.038-1.941,22.413,1.064,1.487,15.53,5.984,18.482,7.012,6.999,2.437,14.174,2.447,19.877,9.499,6.828,8.443,7.578,24.03-1.218,30.651-12.679,9.545-24.702-2.01-37.207-2.739-7.73-.45-3.329,3.788-1.917,9.554,4.799,19.593,1.504,27.63,2.357,45.748,1.101,23.403,18.586,64.862,28.031,86.582,1.338,3.076,9.48,16.648,9.489,17.696.023,2.553-2.148,3.369-3.886,3.647-9.59,1.537-18.661-2.516-27.104-2.16-5.426.229-9.792,2.533-15.685,2.143-3.685-.244-7.15-2.092-10.858-2.098-1.383,30.183-7.881,59.811-16.768,88.058-4.443,14.124-13.29,32.539-15.395,46.821-1.446,9.803-.55,22.495-1.986,31.641-.656,4.179-5.53,10.038-5.941,13.775-.613,5.588,3.744,19.354,1.779,26.707l5.979,23.642c-5.782,6.149-11,4.807-14.033,14.433-1.69,5.366-.97,9.391-1.99,14.166-1.18,5.522-7.14,10.648-7.984,15.416-.435,2.461.487,4.254.287,5.587-4.077,27.098-14.05,48.309-5.63,77.336.881,3.039,6.237,8.044,5.956,11.588.013.612-.222,1.08-.484,1.574-.786,1.481-7.074,4.917-6.533,6.674l25.699,19.135.431-3.095c4.601,2.616,7.544-4.557,11.634-2.972,3.481,1.349-.278,5.887-.231,6.604.063.978,6.682,4.688,7.942,4.966,1.76.388,3.416-.543,5.212-.094,3.437.859,12.053,4.344,14.686,3.481,6.223-2.037,6.588-17.429,16.802-13.827,7.635,2.692,5.049,19.743,6.659,21.016,13.602,3.393,27.451,9.094,39.728,16.962,10.108,6.477,31.356,24.761,34.204,37.964,1.505,6.979,1.943,28.659,1.033,35.819-2.567,20.202-37.341,35.322-51.555,41.16-58.781,24.143-130.349,28.524-192.935,26.592-44.114-1.361-137.487-12.157-170.832-47.501-3.127-3.314-9.592-11.647-10.682-16.278-1.65-7.007-.646-30.474,1.082-37.502,1.564-6.361,14.058-21.441,18.841-26.215,23.07-23.026,58.729-32.614,87.773-39.561,2.67-.639,6.733,1.057,7.171-2.864.542-18.891-.717-37.967-.032-56.837.485-13.382,1.748-26.537,1.814-40.279.069-14.339,2.254-28.482,1.746-43.373-.087-2.55-.369-10.814-1.019-12.201-1.955-4.176-7.715-8.875-8.558-14.607-.011-3.745,6.694-10.506,8.437-13.65,2.497-4.503,11.224-25.375,12.219-29.976,1.156-5.349-.42-13.495.261-19.312.881-7.537,4.446-17.85,5.11-25.96,2.281-27.888-3.344-57.815-4.325-85.589-1.28-6.064,2.686-39.011.054-41.371-3.163-2.837-12.284-1.155-16.033-1.601-3.926-.466-10.255-3.086-13.569-5.67-2.794-2.179-6.197-8.445-9.876-7.541-1.612.396-2.737,2.503-4.601,2.915-4.653,1.028-8.962-1.396-10.792-6.529,19.858-20.581,28.366-50.739,35.248-80.168,6.281-26.86,8.24-59.518,21.843-82.556,1.287-2.18,4.927-4.998,5.428-6.994.788-3.131-.205-7.591.249-11.065.574-4.379,3.63-13.831,3.389-17.592-.13-2.034-1.707-3.695-1.785-6.25-.074-2.391,1.187-4.571.812-6.977-.401-2.569-4.662-7.33-5.71-10.882-4.211-14.264.483-22.195-.196-33.757-.148-2.526-1.567-4.193-1.765-6.261-.937-9.804-.152-19.903-2.668-29.381-9.931,5.033-15.802-.021-20.738-10.016-2.34-4.737-2.917-10.535-6.839-13.624-2.457-.488-9.69,10.427-13.389,8.742-3.367-2.425.072-20.275.048-25.842-.024-5.588-1.127-10.529-.924-16.052l-2.597,2.062c-2.829-6.385-.898-11.476-.968-17.152-.05-4.058-1.185-7.403-.711-12.203,2.302-23.329,19.059-35.558,33.008-48.668,1.626-1.528,1.952-4.409,3.956-4.629,8.792-.964,29.327,23.365,37.557,28.95,1.149,2.559-7.881,13.765-9.593,16.594-4.221,6.971-9.088,13.929-13.096,20.61-1.191,1.985-.881,6.599-3.958,6.164l-.005-5.163c-4.114-.576-7.848,2.32-10.897,5.165-1.657,1.545-4.575,6.74-4.885,7.08-.593.65-2.592-.337-3.262.296-.308.291-.215,2.685-1.392,4.085-.593.706-2.159-.007-3.141,1.367-1.07,1.497-1.027,10.423-4.311,8.352,1.991-2.98,2.493-7.213,1.728-10.848-3.349,1.03-4.625,5.463-4.761,9.193-.138,3.824,3.533,4.463,4.58,6.996,1.917,4.637.026,7.719,5.415,11.194l-1.321,2.568-5.642-1.559c6.939,8.098,11.848,15.89,21.162,20.37,3.767,1.812,10.722,3.988,14.967,3.943.858-.01,7.233-1.028,7.74-1.242,2.032-.855,3.746-6.133,4.269-6.761.722-.867,4.666-1.267,6.377-3.35,1.196-1.457,1.248-3.672,2.119-4.718,5.586-6.714,13.714-14.976,17.849-23.261,2.913-5.837,5.18-16.64,7.878-21.648.266-.494,1.12-1.341,1.308-1.021l.013,5.169h2.607c1.803-4.066-2.63-9.721-2.414-11.674.316-2.857,5.59-11.278,5.918-15.179,3.764-.41,1.267,6.743-.013,8.248,2.675,2.208,6.369-8.986,6.641-11.326.237-2.048-.541-3.63-.422-4.711.738-6.714,5.339-8.465,7.322-13.892.487-1.333-1.04-2.418-1.059-3.619-.025-1.589,2.917-4.214,2.344-6.731l2.6,1.06c.359-2.831,1.646-6.101,2.754-8.636,5.473-12.529,7.679-11.745,14.394-20.643.378-.501,3.318-6.554,2.477-6.874-2.212,4.444-6.335,3.347-6.624,8.174l-2.528.078c-.856-3.956,2.338-4.007,3.513-5.914,2.748-4.463,6.728-10.505,10.41-14.337,2.445-2.544,6.991-.711,6.126-9.697l3.473,1.044,1.849-10.215,3.404.413c.282,8.034-4.157,13.311-5.26,19.595-.267,1.523.07,1.843,1.333,1.577,2.66-.561,6.918-8.443,10.856-8.33.555-4.099-3.907-3.329-5.054-7.941-.842-3.385,2.535-6.996-1.014-8.009.624-1.915,5.871-1.397,7.424-4.63,1.898-3.951-1.993-2.081-1.318-5.166,2.152-.117,2.772-1.763,2.619-4.151l3.458,1.549-2.58,3.098c2.106,3.458,8.062.123,10.476,2.025l1.719,6.754.866-4.125c2.387-1.081,3.623,2.596,4.884,2.863.828.175,5.279-.774,6.86-.755,4.408-7.008-6.714-16.687-8.998-12.269l-.518,5.044c-1.592,2.916-15.445-3.679-12.689-7.267,4.099-.282,6.58-5.736,9.576-8.805,4.114-4.216,10.142-7.186,10.972-14.055l7.359-1.406c2.199-4.403-5.477-.591-4.369-4.659,3.018-.504,5.558.327,7.865,2.603-1.63,3.698-3.325,5.242-2.182,9.787l-.909,1.018c-1.231.206-5.422-3.301-4.781,1.033,4.277-.541,6.964,8.074,11.116,2.46-.861-3.111,1.599-5.707,1.827-8.401.366-4.318-5.525-7.427-1.597-12.629,1.93-.016-.033,3.208.18,4.526.482,2.992,8.718,5.082,10.69,4.784.985-.149-.222-2.392,1.006-3.166,2.414-1.521,6.366-1.484,9.029-.994.451-.465-1.663-4.746-1.922-4.928-1.763-1.232-5.78,1.637-5.043-2.29,6.298-1.024,9.748,2.962,12.2,9.277-3.033-.06-4.922,3.328-7.84,1.047,1.83,5.256-4.57,9.282-5.812,14.965-.231,3.751,6.522,5.713,9.032,3.297,1.514-1.458,2.223-5.096,3.169-6.556.953-1.468,4.094-3.42,4.934-6.034l-1.739-.519,2.644-4.634-1.77-2.576c5.996-1.902,7.633,6.122,9.612,7.703,2.937,2.347,10.182.566,9.554,8.809l-2.601-1.029c-.087,1.583-.465,6.4,1.779,5.763l2.564-1.635.014,3.093c-.256.319-8.767-.994-6.1,2.067l6.982-.562,1.292,7.774,11.106-10.55c4.386-.168,9.709-5.849,12.644-6.744,2.575-.785,4.45.552,6.421.218,2.798-.474,9.485-4.998,12.329-4.375,2.908.637,3.854,5.162,5.6,5.794,4.011,1.451,8.696-2.373,11.498,3.935.799,1.798.902,5.348,1.817,6.109,1.711,1.424,6.403.053,8.807,5.057.527,1.095,2.504,10.858,2.597,12.473.292,5.019-2.984,8.935,2.353,10.579,9.953,3.068,11.233-2.954,18.824-8.192,13.537-9.34,29.991-14.171,41.127,2.227,23.011,33.888-5.548,113.42-35.369,132.65-9.316,6.008-14.01,2.912-23.044,2.56-2.598-.101-4.616,1.787-7.616.887-2.019-.605-11.737-12.954-12.285-15.449-.947-4.313-3.802-11.968-4.06-13.815-.619-4.431,1.525-12.245-1.323-16.97-.471,10.433-.875,22.746,3.288,32.291.808,1.851,4.376,4.591,4.117,7.979-4.123-.748-3.472-6.123-5.738-8.166-4.316-3.888-14.454-5.914-19.158-10.418-.906-1.728,6.428-20.119,7.998-22.663.468-.759,1.301-1.119,2.087-1.117l-1.739-4.096,6.964-.015.01-7.231-4.358.011c-1.285,2.63,5.611,2.867,3.478,5.153-.929.994-2.802-.341-2.984-1.994l-8.339,4.069c.984-6.725-3.657-7.125-4.483-12.246l-7.726-1.194c-2.472-2.939,9.293-3.981,9.585-5.675l-3.449-1.651c1.51-5.161-1.723-6.407-3.834-9.187-1.124-1.479.314-4.525-5.796-3.09l.886,2.048-1.727-.021c-2.36-4.057-7.399-6.367-11.3-8.817-3.072-1.929-3.166-5.608-8.766-2.516l1.733-3.084c-6.258.89-7.701-4.862-11.428-8.668-.908-.927-3.843-3.891-4.507-4.466-4.679-4.045-10.392-.33-15.448-.297l.509,3.12c-4.795.194-3.695,3.711-4.796,4.673-1.308,1.143-4.479.194-6.167.474l2.611,4.115-7.004-.614c-.298,5.44-5.887,3.606-3.873,7.868l2.617-1.034.415,2.036h-4.352l-.121,3.982c-5.456,3.554-12.18-4.939-9.464-11.192-3.512.812-3.323-1.81-1.797-4.708.703-1.335,8.615-12.148,7.89-5.115l-3.449,1.614-.025,3.005c4.592,1.939,8.269-.387,6.629-6.491-2.064-7.68-8.016-6.499-13.186-8.956-5.467-2.597-11.991-6.001-13.576-13.376-3.699,1.07-8.583.373-11.699,3.027-3.566,3.038-.916,4.352-1.286,7.679-.203,1.816-3.391,5.087-.025,6.785l1.739-5.156c.636,5.782,6.023,15.903,6.006,21.172-.002.716-1.813,9.831-2.115,10.786-.601,1.895-5.611,8.281-5.605,8.833,2.768,2.032,5.404,3.15,8.02,5.672,1.302,1.255,1.599,3.294,3.354,4.588,2.756,2.031,5.04-.05,4.371,5.683l2.54.573c-3.905,2.018-3.925,6.137-5.684,8.755-2.746,4.086-8.354-1.448-7.392-6.523.18-.951,2.34-.141,1.755-3.208l-9.603-13.503c-3.675-1.263-9.7,1.357-8.571,7.054.272,1.373,5.471,6.72,6.807,8.496,1.274,1.692,2.36,4.622,3.474,5.987,1.083,1.327,3.439-.344,2.669,3.789,1.757-1.099,2.74-.915,3.949,1.037l-1.381,3.604,1.806,2.03c-.986,2.638-2.49,5.283-2.482,8.311.003.846,2.588,15.784,2.846,16.573.111.341,3.026,5.242,3.27,5.405,1.318.88,6.002-.237,7.925,1.224.897.681.598,2.123,1.172,2.982.508.761,1.613,1.096,1.78,1.493,1.537,3.649.996,14.106,3.089,17.007.466.646,2.486.178,3.654,2.25.47.833.295,4.813.51,6.245-1.542-1.964-3.913,4.141-1.308,4.11.904-.011,1.835-3.439,1.308-4.11.014.092.682.037.911,1.533.363,2.382-1.426,7.563,1.698,6.735-.099-1.821.935-6.33,1.747-7.542,1.533-2.287.814-.057,3.091-4.778,6.433-13.335,13.748-20.54,21.731-31.135,1.859-2.466-1.013-1.748,3.946-4.056.284-1.167.317-2.336,1.307-3.078l1.291,1.53c-.615,1.191-1.698,1.129-2.598,1.548" fill="#ff1c26"/><path d="M109.635,63.25h-2.606v2.055h2.606v-2.055ZM117.47,46.726c-3.32-.533-.682,5.397-3.034,8.337-.92,1.151-2.94-.829-3.908,1.47l2.597,3.604c-2.095,1.808-3.028-3.676-4.353-2.05-1.008,1.236,2.222,5.137,4.707,4.068l1.499-3.927,4.256-.141-1.764-11.361ZM189.832,8.527l-17.811-1.117c-.54,6.342-5.738,2.673-8.886,5.177l-.322,3.145h-8.717s.869-3.081.869-3.081c-.548-.125-11.749-.674-8.71,2.051l5.226.011c-2.111,6.608,3.534,3.74,3.605,9.13l4.577.224c.922-5.085,2.734-3.66,5.072-5.321,5.826-4.14,6.372-1.57,11.217-3.445,2.113-.818,2.284-3.412,3.176-3.699,2.058-.663,6.74-.48,9.386-1.061,1.414-.311,1.517.697,1.318-2.014M205.525,9.534c-3.218-1.655-6.237,3.094-6.616,3.11-5.664.243-9.993-.557-16.251,1.306-2.324.692-5.109,4.21-6.514,4.676-1.977.654-3.956-.119-6.317.778-3.293,1.252-11.864,10.619-14.697,8.519-.401-.297-.377-2.251-1.578-2.727-2.122-.84-10.441.341-10.602-2.739-.067-1.295,2.656-2.814.309-4.701-2.055-1.654-4.362-.893-6.593-.977-.717.765,2.364,3.4.877,6.437l-6.116,2.872.871,6.171-2.922.018-1.422-2.072c1.013,6.906-7.085,7.446-7.685,8.469-.576.982.012,4.433-1.902,5.486-.763,1.938,4.883,2.381,5.656,2.349.765-.033,10.821-3.442,8.254,1.212-.05.091-1.193-.183-1.717.752-4.594,8.195-11.649,12.937-16.877,21.639-1.504,2.504-5.054,6.623-6.163,8.699-1.511,2.827-.233,6.115-3.987,5.084l.009-15.481,3.473,2.06c.159-2.397-1.897-2.873-1.754-5.583.046-.873,2.094-7.367,2.584-8.415,4.519-9.675,12.63-19.831,17.011-29.453.585-1.283.315-3.767.524-4,.44-.492,2.634.477,3.303-.205.295-.302.146-2.263,1.023-3.404,7.307-9.518,28.082-18.339,38.781-19.154,12.432-.947,27.009.376,37.038,9.274" fill="#ff1c26"/><path d="M249.111,59.114c3.245,2.687,1.765,3.655,3.113,6.123,2.074,3.797,9.833,8.01,7.35,13.491l3.927-1.877c5.043,4.283,2.632,16.172-3.93,15.299l4.411-6.717c-3.015-6.125-6.93-6.202-12.256-6.687.68,2.663,3.304,2.675,4.733,4.192,1.745,1.852,4.063,6.368-.354,5.062.689-4.333-3.499-4.134-5.68-6.177-2.339-2.19-4.183-5.443-6.62-7.645-5.375-4.857-13.154-5.569-10.389-16.091l-3.037,2.054c-2.59-4.041-3.139-7.643-8.29-7.213l6.094,7.749-1.284,1.514c-2.778-.735-5.703-9.778-10.036-9.273.346,2.409-.311,3.341-2.183,4.103l-.435,1.565,7.843,9.812c-7.137-.152-7.927-16.347-15.988-13.257-3.75,1.437.969,5.927,1.138,8.659.24,3.905-1.918,9.669-4.39,12.279-2.244,2.37-9.931,5.872-8.227,9.874,6.291-3.352,11.705-8.775,15.71-15.472,3.57-.008-.152,6.166-.149,6.733.005,1.03,1.988,1.741,1.442,3.582-1.554.695-2.154-2.03-3.523-1.636-.429.124-6.479,4.989-7.369,5.772-1.221,1.072-9.262,8.682-9.566,9.321-1.351,2.84.018,7.087-4.801,8.86-3.747,1.378-6.305-3.781-9.599-4.775,1.854-7.002,2.599-1.205,3.424-.531.516.421,3.828-.702,4.851,2.596l2.163-2.563c-.018-.792-6.708-2.771.865-4.722-1.25-15.597,18.769-15.367,15.707-32.978l-1.73,1.052c.433-3.452-3.316-5.12-4.365-8.264,4.286,1.213,8.196.195,12.38-1.34,1.301-.477,2.797-2.545,3.726-2.452.792.08,1.654,2.12,3.335,1.629,1.191-.348,1.974-3.089,3.641-3.039,1.335.039,2.465,2.551,4.155,1.954l6.758-5.014-.866,7.224,2.608-.006-.005-2.339c2.518-2.84,2.735,1.723,5.019,3.201,2.188,1.415,7.599.66,9.821,2.759,1.261,1.193.622,2.439.858,3.609-.431-.357-4.111-2.337-4.354-2.06-2.021,2.301,2.464,3.946,2.603,4.145.695.99.307,2.208-1.277,2.019-3.98-.473-3.935-6.245-8.299-6.164-1.529,10.263,7.534,11.178,13.361,14.624l5.807,6.019c.471-4.573-4.55-7.155-5.469-9.517-.615-1.582-2.025-7.348-2.372-9.066" fill="#ff1c26"/><path d="M161.947,102.501c-.299,2.207,3.429-.318,2.597,2.55-1.785,6.157-8.226,14.058-12.188,18.613,2.175,1.912,3.583-1.775,5.217-2.587.773,5.645-2.828,4.589-4.399,6.638-.816,1.064-2.856,7.275-.397,5.747,1.337-.83.559-3.949,3.058-3.084-1.172,5.422-4.059,8.472-2.62,14.446l-3.029-4.115c-2.193,1.272-1.105,6.835-1.325,9.289h-2.606c-.316-7.354-5.131-11.887-3.471-19.949.159-.772,1.486-.562,1.694-1.465.251-1.096-.238-2.736.079-3.607,1.284-3.524,3.63-1.958,4.933-2.582,2.61-1.25,12.9-15.228,11.575-16.804-5.872,3.047-9.833,8.489-13.49,14.473l-4.806,1.536c2.827-9.222,10.508-12.895,15.683-19.621,1.344-1.747,8.661-12.636,9.184-13.986.871-2.248-.313-5.203-2.199-6.158-.245,3.489-2.591,7.017-4.385,9.789-5.567,8.606-17.01,17.98-20.669,27.15-3.98,9.974.808,18.412,3.247,28.116-4.315-.668-4.708-5.846-6.533-9.27l-1.325,3.076c-2.252-1.555-2.843-5.18.893-4.134-5.506-20.155,10.656-29.627,19.62-42.323,1.485-2.104,7.759-12.356,8.124-14.225.635-3.25-2.605-5.305,1.931-6.946,4.477-1.618,3.76,11.114,3.047,13.973-1.049,4.211-7.393,10.014-3.104,13.901l-4.336,1.559Z" fill="#ff1c26"/><path d="M219.186,118.328c.323.254,3.518,3.146,3.824,3.479,1.865,2.037,2.029,6.928,6.921,6.511l-1.741,1.567-1.735-1.579c-.202,2.034.414,4.73-.126,6.6-.266.921-5.1,2.962-1.182,4.749,2.895,1.321,1.321-3.042,3.91-2.05l-2.736,5.023c-2.852.337-2.451-5.438-4.656-5.023-3.301.622,2.44,5.017,1.29,6.186l-6.963,1.035.867-3.087c-3.494-1.73-11.235.665-13.96-1.55-1.032-.839-1.184-4.712-3.04-5.667-3.861,4.039-2.818,13.03-9.148,12.367-.343-1.678.285-2.391.847-3.634,1.426-3.156,7.338-12.066,9.673-14.316,2.959-2.85,8.331-6.68,12.14-6.84-1.004-3.684-5.378,1.024-5.232-4.109,1.499.536,3.068-1.625,3.952-1.676.364-.022,6.639,1.655,7.095,2.014" fill="#ff1c26"/><path d="M141.555,151.413c.795,1.014,1.006,2.373,2.111,3.169,1.147.826,5.791,1.616,6.117,3.37.451,2.019-.93,4.355-.838,6.043.143,2.636,3.455,11.694,3.351,13.396-.096,1.565-1.597,2.555-1.657,4.091-.063,1.601,1.994,5.442,2.575,7.25-3.152,2.521-2.351-2.913-5.215-2.59,2.452,10.182,3.008,20.354-3.06,28.906-.372-4.23,3.451-9.239,3.74-13.139.192-2.574-1.239-5.689-.693-8.542-3.383,1.632-2.654,5.678-2.616,9.289l-3.473-3.088c.765,4.847-3.888,13.911-3.512,18.043.232,2.544,5.761,8.376,4.806,11.91-2.269-.529-7.44-10.053-7.37-11.89,2.939-8.255,1.329-19.163,8.732-24.877l-3.097-7.628-.452,4.647-1.714.492c-1.08-4.073-1.75-8.357.839-11.879-1.91-3.236-5.477,1.778-7.821-2.064,7.26-.312,4.148-8.278,4.786-13.932,4.437,6.847,2.358,17.549,10.896,20.645-.394-2.175.732-4.646.595-6.574-.079-1.106-2.208-12.362-2.512-13.381-1.175-3.928-5.648-3.516-5.906-3.815-.308-.358.369-2.752-.192-3.884-.277-.558-1.887-.732-2.453-1.717-.731-1.273-4.231-10.664-.437-8.825.528.256,3.217,4.976,4.47,6.574" fill="#ff1c26"/><path d="M267.416,161.331c-4.702,2.478-10.02,2.447-14.538,5.001-4.23,2.391-11.817,10.019-15.124,14.149-1.228,1.534-.59,4.719-3.441,1.016,1.347-5.335,7.104-9.647,6.267-14.859l1.553-1.145-3.483-.002-.509,3.05-6.464-.982,1.739,4.115-12.198-4.138c.884-3.012,4.024-1.518,6.087-2.585,1.009-.523,2.093-2.8,3.755-3.814,4.168-2.541,10.324-3.543,14.8-1.85,1.187.449.39,2.927,3.664,3.202,2.999.251,3.905-.594,4.042-4.144,2.309,1.017,4.332-.774,6.527-1.044,1.34-.165,4.24,2.016,4.659-.646.085-.543-1.895-10.913.485-10.773,3.881,3.451-.349,10.156,2.179,15.449" fill="#ff1c26"/><path d="M251.73,127.267c3.196-.016,3.196-3.071,0-3.088v3.088ZM264.568,119.303c.55.717,3.316,8.427,3.511,9.768.601,4.138.018,8.491.205,12.656l-4.363-1.039.88-3.078c-2.591-1.122-2.388,1.71-3.229,2.005-2.016.706-5.933.817-8.096.038l3.48-1.03c-1.784-2.726-4.271-2.757-3.495-7.219l-3.481,5.46c-1.423,2.753-2.693-.714-2.943-.882-2.306-1.558-5.879-3.829-6.483-7.414-.941-5.581,2.277-3.51,3.35-3.956,1.055-.438,4.958-3.481,6.508-3.575l.953,2.197,3.365-1.189.618,1.926,4.249-2.392-1.765-3.589c1.801-.009,5.47-.337,6.736,1.313" fill="#ff1c26"/><path d="M166.296,259.475l-3.478-1.044-.002,2.044c1.249.079,2.218,1.23,3.478,1.045l.002-2.045ZM154.954,199.565c2.774,6.558,3.933,13.191,3.491,20.651l-2.597-2.065-.016,10.327c-3.82-1.813-3.877,5.038-2.595,8.257l3.465-5.159c1.065,2.902-1.732,6.78-1.534,8.568.516,4.68,10.52,16.486,14.197,18.27.399.194,1.426.27,1.288-.499-1.817-4.714-5.91-5.602-3.471-10.841l1.742,4.133,2.598-1.042c-.784,9.538,1.504,15.802,9.596,18.578l-5.227-7.749,2.603-2.569,4.402,10.734c-2.107,1.753-2.982,5.679-6.084,6.378-.261.058-4.879-1.66-5.084-1.861-.186-.182-.886-3.184-2.335-4.979-3.873-4.798-15.214-11.509-20.598-14.863-1.069-.666-2.261-.64-3.422-.577-1.18-2.702,4.703-2.713,5.67-2.562,4.236.663,5.885,5.636,10.026,5.656-1.013-5.025-5.06-4.747-7.475-8.276l1.434-6.524c-6.742-4.611-9.507-14.778-7.516-23.462.883-3.849,3.423-6.267,3.102-10.272,1.484-.098,1.915-.462,1.783,1.591-.18,2.817-2.306,6.498-2.416,10.579-.043,1.576,1.153,11.339,2.362,9.523l1.003-12.26,3.277-1.748c-.895-2.821-.529-5.931-1.172-8.767-.308-1.357-5.011-7.334-.497-7.17" fill="#ff1c26"/><path d="M226.612,79.552c.249.16,3.86,1.699,4.888,2.183,5.024,2.364,10.422,2.466,14.566,6.289,1.292-2.118-3.869-4.824-3.911-6.708-.086-3.782,6.549.858,7.48,4.623.596,2.412-1.212,7.105.784,7.233.2.013,2.055-2.771,3.928-1.003l-.936,4.057c-.503.571-6.434-2.212-9.778,1.078-1.023,1.007-4.018,14.659-4.613-.051l3.117-.972c1.061-1.146-15.309-7.424-16.89-8.378-2.798-1.69-5.4-3.804-7.513-6.59,5.39-.254,9.488,6.351,15.686,4.642-1.83-4.464-7.567-3.682-10.438-6.731-1.481-1.573-.024-2.47,1.294-2.575,1.766-.378,1.78,2.545,2.336,2.903" fill="#ff1c26"/><path d="M137.529,99.395c.958,4.867-2.148,4.744-3.961,7.172-3.247,4.348-3.453,15.918-4.311,21.734-1.007-1.739-3.301-1.845-4.358-3.116-.821-.988-.76-2.706-1.247-3.413-.662-.961-4.434-1.555-4.403-4.315.043-3.687,4.231,2.08,4.965,2.386,2.713,1.13,4.11-1.224,3.779-4.313-.038-.355-3.247-.818-1.54-5.556l11.076-10.579Z" fill="#ff1c26"/><path d="M161.937,75.643l-8.708,17.039c-1.287,1.005-9.84,14.812-11.332,12.899l4.901-12.373-.425-4.014c3.755-3.152,6.214.697,7.801-5.719l7.763-7.832Z" fill="#ff1c26"/><path d="M127.082,186.137c3.015-1.041,1.292-9.594-1.748-9.289-.273,2.9-.09,4.664,2.496,5.289l-.748,4ZM120.962,176.842l1.311-4.105c3.722,3.077,11.389,4.204,9.684,11.419-.612,2.59-4.664,3.066-3.149,8.178-2.379-2.315-2.453-6.781-4.359-9.8-1.992-3.156-9.436-6.38-5.231-9.816l1.744,4.124Z" fill="#ff1c26"/><path d="M187.128,60.263c1.011,4.917,3.603,8.113,2.474,13.56-.245,1.177-4.512,11.916-5.863,10.071,1.699-3.591.87-11.849,4.338-12.404l.003-2.025c-4.066-.371-1.128-6.898-6.047-6.286l-.048-3.028,5.143.112Z" fill="#ff1c26"/><path d="M270.027,122.115h-2.606c-.523-.593-.973-10.406-1.313-11.32-1.116-3.005-6.151-3.922-5.661-8.302,8.137,2.135,10.214,10.63,9.58,19.622" fill="#ff1c26"/><path d="M133.178,154.114c-.108.138-2.863.876-3.088.896-.385.034-.29-1.465-1.089-1.808-3.824-1.646-7.162-1.462-8.031-7.329,3.061-3.32,14.335,5.54,12.208,8.241" fill="#ff1c26"/><path d="M153.219,27.106l-11.874,13.289c-1.16-.42-9.978,6.486-9.896,2.713,1.126-2.503,4.072-.926,5.09-1.688.594-.444.524-3.416,1.119-3.851.852-.623,3.046.385,4.277-.6,1.297-1.036.49-6.219,5.191-4.714l-.879-4.117,6.972-1.032Z" fill="#ff1c26"/><path d="M176.755,81.839l.879,11.35c-5.951-.481-5.729,4.421-8.28,9.294l-.185-5.367,7.586-15.277Z" fill="#ff1c26"/><path d="M196.804,53.956c.569,8.18,7.742,15.683-1.73,20.649.198-3.746,1.965-5.626,1.769-9.772-.213-4.518-5.404-10.117-.039-10.877" fill="#ff1c26"/><path d="M161.06,245.003c-2.118.317-1.395-.005-1.849-1.477-1.05-3.408.109-14.226,1.769-17.735l1.824-11.766c1.772,6.868-1.425,13.294-1.771,19.118-.243,4.105,1.402,7.656.027,11.86" fill="#ff1c26"/><path d="M226.33,188.329c1.831,3.422-4.544,9.053-6.015,7.666-2.677-3.811-.488-6.975,2.194-9.608.723.665,3.646,1.616,3.821,1.942" fill="#ff1c26"/><path d="M210.756,107.652l1.74,4.12-11.32,4.141c.528-4.239,3.462-8.916,7.319-6.206.328-1.727,2.179-1.917,2.261-2.055.178-.297-.057-2.332.823-3.71,1.148-1.798,2.725.04,3.947-1.397.802-.943,2.229-6.454,2.635-6.248,3.757,4.107-1.735,7.255-2.621,11.397l-4.784-.042Z" fill="#ff1c26"/><path d="M181.987,195.439c-1.534,5.705-.861,11.641-.373,17.489.117,1.401,1.253,2.459-.919,2.115-4.171-5.728-1.198-12.997-1.317-19.619l2.609.015Z" fill="#ff1c26"/><path d="M210.641,59.257l4.92,9.145c1.174.944-.472,3.104-.883,3.084-1.445-.069-10.708-14.57-4.037-12.229" fill="#ff1c26"/><path d="M140.097,107.593c-.048.091-1.264-.063-1.691.779-1.015,2-1.381,4.445-2.228,6.502-.61,1.485.193,2.587-2.126,2.067-1.074-2.861,2.031-13.095,4.776-12.382.629.163,1.762,2.107,1.269,3.034" fill="#ff1c26"/><path d="M165.437,243.969c.224-4.999.63-12.721,3.469-16.523-.15,5.276,1.03,13.259-3.469,16.523" fill="#ff1c26"/><path d="M130.556,194.395c-.762,6.88,4.725,11.8,4.353,18.588-1.142.102-1.57-2.156-2.042-3.239-1.607-3.683-4.093-9.748-4.081-13.78.006-2.055.092-1.653,1.77-1.569" fill="#ff1c26"/><path d="M259.566,173.75c.404,2.201-.95,2.34-2.027,3.268-2.779,2.397-7.546,4.645-11.044,4.978,1.418-1.942,11.906-9.46,13.071-8.246" fill="#ff1c26"/><path d="M117.474,132.434c-2.766-4.886-5.958-5.382-2.594-11.355,2.675,2.671,4.027,7.628,2.594,11.355" fill="#ff1c26"/><path d="M254.336,105.581c-1.076,1.204-8.374-3.907-6.965-7.218,3.576-.446,6.344,3.361,6.965,7.218" fill="#ff1c26"/><path d="M107.02,94.221c-.895,1.253-7.372-7.899-6.969-8.246,4.628-1.22,7.127,3.154,6.969,8.246" fill="#ff1c26"/><path d="M175.883,77.699c-2.153.483-1.906-1.27-2.545-2.654-.389-.843-2.866-6.349-2.672-6.635,5.421.44,6.286,3.125,5.217,9.289" fill="#ff1c26"/><path d="M188.088,268.759c.52.573-6.802,17.436-6.971,6.202,3.583,2.207,3.964-9.52,6.971-6.202" fill="#ff1c26"/><path d="M271.779,162.379c-.849-.916,1.421-2.841,1.432-3.576.01-.702-2.29-5.094-2.308-6.735,1.375-1.694,4.271,5.768,4.362,6.784.259,2.918-2.329,4.777-3.486,3.527" fill="#ff1c26"/><path d="M258.695,92.166c-.598,3.903.697,5.539,2.619,8.247l-6.966-4.141.556-2.123,3.791-1.983Z" fill="#ff1c26"/><path d="M152.346,78.74l-.576,3.112-8.135,2.038c1.598-4.35,5.276-4.285,8.711-5.15" fill="#ff1c26"/><path d="M191.578,53.96c-2.408,4.572,3.416,7.017,2.607,12.383-2.737-2.046-2.3-7.655-6.052-8.325-.773-1.316,1.995-4.687,3.445-4.058" fill="#ff1c26"/><path d="M183.744,249.13l-.874-10.324c2.78,1.506,4.092,8.407.874,10.324" fill="#ff1c26"/><path d="M129.68,141.731l-1.334-3.105.035-9.267c3.254,3.619,1.301,7.942,1.299,12.372" fill="#ff1c26"/><path d="M192.446,256.356c-4.812-.258-1.447-5.927-1.902-8.538-.337-1.93-3.544-4.576-2.447-7.975,3.418-.208,2.274,3.952,2.859,6.413.773,3.247,2.463,5.736,1.49,10.1" fill="#ff1c26"/><path d="M180.255,74.605c.334-3.917.374-5.009-2.608-6.711l3.463-3.616c-.666,3.426,2.705,8.383-.855,10.327" fill="#ff1c26"/><path d="M195.934,248.093c-4.55-.41-2.531-4.564-2.608-8.25,4.112-.057,1.094,5.096,2.608,8.25" fill="#ff1c26"/><path d="M200.291,111.788c1.564,1.94-3.602,5.502-3.917,7.204-3.705-1.334,3.197-8.097,3.917-7.204" fill="#ff1c26"/><path d="M239.517,188.208c.586,3.916-2.136.844-3.961.95-1.023.06-5.719,3.682-5.606.594.09-2.435,7.926-1.366,9.567-1.544" fill="#ff1c26"/><polygon points="277.011 166.517 276.978 171.172 275.281 171.667 271.783 165.484 277.011 166.517" fill="#ff1c26"/><polygon points="310.129 169.624 308.369 173.738 304.044 170.13 310.129 169.624" fill="#ff1c26"/><path d="M114.867,162.378c-.764,4.115.815,3.764,2.618,6.193l-3.974-.96c-.432-1.972-1.527-6.04,1.356-5.233" fill="#ff1c26"/><path d="M188.087,253.268l-.427,8.251c-1.55-2.247-3.335-8.672.427-8.251" fill="#ff1c26"/><path d="M148.855,237.772l1.737,4.651-3.465,1.54c.399-2.139-1.375-7.025,1.728-6.191" fill="#ff1c26"/><path d="M287.459,176.839l-6.092-1.54c1.918-3.134,5.772-2.832,6.092,1.54" fill="#ff1c26"/><path d="M179.37,241.909l-.427,8.251c-2.319-.926-1.554-11.335.427-8.251" fill="#ff1c26"/><path d="M268.283,170.641l-5.221-.506,3.05-2.64c1.502-.013,2.457,1.594,2.171,3.146" fill="#ff1c26"/><path d="M225.386,12.883c.28.197,2.336,4.329,1.923,4.923l-5.218-3.113c-.838-2.706,2.095-2.653,3.295-1.81" fill="#ff1c26"/><path d="M145.261,164.21c0,1.196-.818,2.166-1.828,2.166s-1.829-.97-1.829-2.166.819-2.166,1.829-2.166,1.828.97,1.828,2.166" fill="#ff1c26"/><polygon points="119.226 109.72 119.223 112.81 114.002 110.229 119.226 109.72" fill="#ff1c26"/><path d="M181.111,89.062c-2.894-1.529-1.458-6.365-1.727-9.288,2.625,1.396.391,6.518,1.727,9.288" fill="#ff1c26"/><polygon points="187.214 263.603 183.719 265.202 182.87 260.492 187.214 263.603" fill="#ff1c26"/><path d="M142.764,95.259c-.662.774-.079,4.407-4.354,3.093l-.006-2.049c.933-.151,3.934-.529,4.36-1.044.102-.123.323-3.098,1.308-3.078,4.172.089-1.14,2.881-1.308,3.078" fill="#ff1c26"/><path d="M191.573,261.532c1.129,3.292.609,4.408-2.605,4.118l.881-4.121,1.724.003Z" fill="#ff1c26"/><polygon points="178.499 231.582 177.618 235.703 175.893 235.702 175.893 231.58 178.499 231.582" fill="#ff1c26"/><path d="M217.728,10.59l-6.096,1.01c.737-2.523,4.55-1.499,6.096-1.01" fill="#ff1c26"/><path d="M213.366,42.596l-.085,2.981-3.397,1.135c.762-1.789,1.383-4.555,3.482-4.116" fill="#ff1c26"/><path d="M133.164,134.495l-.852-8.249c1.932,1.234,1.421,6.255.852,8.249" fill="#ff1c26"/><polygon points="177.627 61.185 177.627 65.308 175.021 65.305 175.902 61.184 177.627 61.185" fill="#ff1c26"/><path d="M241.261,77.709c-.029.488.144,1.079-.004,1.528-1.134,3.424-8.896-.881.004-1.528" fill="#ff1c26"/><polygon points="253.473 120.039 254.35 115.917 255.635 115.924 256.938 117.463 254.763 120.034 253.473 120.039" fill="#ff1c26"/><path d="M169.795,247.067c.44-1.735.095-6.487,1.726-7.224-.057,2.409.776,6.146-1.726,7.224" fill="#ff1c26"/><path d="M247.362,115.918c.856,1.119-1.113,4.945-2.602,5.158l.873-5.165,1.729.007Z" fill="#ff1c26"/><path d="M133.171,72.545v3.088c-1.083,1.385-5.386-4.184,0-3.088" fill="#ff1c26"/><polygon points="253.369 206.583 256.003 207.609 255.313 210.098 252.678 209.072 253.369 206.583" fill="#ff1c26"/><polygon points="212.495 143.802 212.498 145.85 209.893 146.894 209.013 143.807 212.495 143.802" fill="#ff1c26"/><path d="M277.871,175.822v1.008c-1.605.668-2.745.637-4.35.002l.003-2.051,4.347,1.041Z" fill="#ff1c26"/><path d="M144.516,178.908v-5.158l.852.002c.52,2.234,1.609,4.214-.852,5.156" fill="#ff1c26"/><path d="M136.657,158.249c-.904,1.058-3.493-2.05-2.606-3.087.904-1.058,3.493,2.05,2.606,3.087" fill="#ff1c26"/><polygon points="209.008 11.615 209.008 14.703 206.398 14.698 207.279 11.611 209.008 11.615" fill="#ff1c26"/><path d="M184.6,255.323h-1.734l.004-4.125c1.733.552,1.955,2.199,1.73,4.125" fill="#ff1c26"/><path d="M262.177,113.847l-3.478-3.088c2.092-.405,3.706.484,3.478,3.088" fill="#ff1c26"/><path d="M99.179,84.922c-1.572.339-2.858-1.395-3.486-3.078,1.572-.339,2.858,1.396,3.486,3.078" fill="#ff1c26"/><rect x="219.478" y="73.578" width="1.734" height="3.088" fill="#ff1c26"/><path d="M220.34,61.175c-1.317,1.56-3.716-3.071-1.303-3.072.577,0,1.803,2.479,1.303,3.072" fill="#ff1c26"/><rect x="141.025" y="125.213" width="1.734" height="3.088" fill="#ff1c26"/><path d="M269.164,179.936c-1.317-1.56,2.592-4.402,2.593-1.544,0,.684-2.093,2.137-2.593,1.544" fill="#ff1c26"/><rect x="205.531" y="231.581" width="1.734" height="3.088" fill="#ff1c26"/><path d="M163.68,298.697l-40.093-31.998c7.615-.608,12.14,7.584,17.484,11.805,5.337,4.215,12.162,7.974,17.323,12.524,1.182,1.041,6.777,5.751,5.286,7.669" fill="#ff1c26"/><path d="M180.242,280.118c1.753,2.174-2.322,4.059-2.432,4.281-.878,1.768,1.002,1.183-2.826,6.517-1.194,1.663-.446,4.677-3.866,4.69-4.109-4.435,4.537-8.298,5.421-9.559.223-.318,1.814-8.273,3.703-5.929" fill="#ff1c26"/><path d="M161.937,308.001v4.121h-3.478c-.327-1.982,1.16-2.858,2.188-4.116l1.29-.005Z" fill="#ff1c26"/><path d="M165.427,300.777l-.883,5.494-2.599.687c.612-1.585,1.242-6.846,3.482-6.181" fill="#ff1c26"/><path d="M154.095,320.399l-5.219,10.31c-.368-1.65-.64-2.005-.101-3.686.176-.549,4.136-6.932,5.32-6.624" fill="#ff1c26"/><path d="M168.91,296.642l-.004,1.528c-.916,1.621-1.872,1.805-3.478,1.554l.986-2.944,2.496-.138Z" fill="#ff1c26"/><path d="M157.578,313.165c.856,1.119-1.113,4.945-2.602,5.158l.873-5.165,1.729.007Z" fill="#ff1c26"/><polygon points="146.346 331.546 147.645 332.279 145.367 337.937 144.07 337.204 146.346 331.546" fill="#ff1c26"/><path d="M415.604,363.752c-2.416-.064-4.927-1.84-4.349-5.153,1.665,1.132,3.391,3.176,4.349,5.153" fill="#ff1c26"/><path d="M481.848,260.487l-3.557-.606c-1.328-7.101,4.004-6.833,3.557.606" fill="#ff1c26"/><path d="M485.785,261.535c3.089-.95,3.907,3.54,1.721,4.115-1.525.402-4.162-3.364-1.721-4.115" fill="#ff1c26"/><path d="M330.479,1193.136c.755.642,2.031.419,2.696,1.423,1.158,1.52,4.957,11.042,5.405,11.426,1.811,1.551,5.604.635,7.743.933,1.298.181,2.68.835,1.294,2.065-5.453,1.33-11.412,2.097-16.803,3.338-18.339,4.219-37.135,7.947-55.98,10.098-3.236.369-6.054-.4-9.16-1.049-2.088-2.41,6.065-3.473,6.972-3.094.79-3.064-4.927-1.656-2.587-5.109.366-.54,9.318-4.611,10.812-5.281,4.128-1.851,11.323-3.123,15.312-5.611,1.74-1.084,1.285-3.436,1.97-4.379.279-.384,6.176-5.949,6.557-6.179,7.361-4.462,9.353-2.641,16.408-1.427,2.384.411,5.728-.519,7.643.276,1.004.416,1.089,2.035,1.718,2.57" fill="#ff7aab"/><path d="M287.463,1110.886c-4.548-.107-8.917,1.719-13.53,1.046-5.016-.732-6.946-6.244-12.611-3.105.646,2.006,3.63.677,5.493,1.993,2.133,1.507,3.112,9.141,8.014,9.462,4.206.276,4.341-3.338,7.08-5.143,2.055-1.355,5.772-.583,5.554-4.253M252.599,1099.531c-1.844.573-6.821-1.782-6.097,2.049l6.097-2.049ZM259.57,1094.373l-6.081.5c.108,2.274,8.345,2.392,6.081-.5M294.005,1122.24c2.061-.338,7.898-4.304,10.03-2.608.582.463.551,2.354,1.471,2.634,1.192.363,5.202-.42,5.502-.034l.551,4.201c6.678,2.369,17.746-2.309,22.108-8.84,1.702-2.548,7.142-16.034,7.805-16.567,1.967-1.583,8.232-.39,7.474,3.671-9.394,3.341-11.907,16.358-20.383,22.339-6.004,4.236-13.796,5.1-20.595,6.619l-.503-3.041-5.176-.119.864-5.151c-2.623-1.041-3.688,3.052-5.638,3.086-1.29.023-3.123-1.889-5.251-2.12-3.918-.423-7.335,2.513-11.202-.144-1.122-.77-1.294-2.68-2.055-2.911-3.254-.982-9.359.394-13.333-2.057-.488-2.876.891-2.012,2.615-2.059l-.004-3.09c-5.295,1.407-12.123.525-16.553-3.625l5.225.512-1.738-5.149,5.225-.015c-.466-2.568-8.87-1.504-10.762-1.021-.665.17-.534,1.968-.947,1.946l-7.391-1.061c.243-2.866-.947-3.103-2.675-4.5,4.359-2.524,7.987-7.826,13.061-7.754l-.879-4.112c5.716-.476,5.101-2.153,7.54-6.097.415-.672,1.359-.863,1.799-1.505.62-.902-.168-2.682.699-2.748,2.5-.19,2.17,2.271.551,3.832-.124,1.162,7.251,10.106,8.626,11.115,2.261,1.659,6.583,1.828,7.886,4.082,1.197,2.07.245,4.328,1.363,5.868,2.701,3.721,10.685.503,12.144,2.93,1.698,4.313-2.637,8.223-5.425,10.25-1.717,1.248-4.783,1.144-5.54,3.243,4.253-.49,9.394.674,13.511,0" fill="#ff7aab"/><path d="M157.576,1083.021c1.815,3.106-9.257,7.455-11.09,7.998-1.622.48-7.915-.657-7.203,2.807,3.769,1.932,6.685,5.945,10.905,5.79,5.448-.201,10.827-5.387,16.109-6.286.659.698-2.909,4.922-3.244,5.144-2.262,1.496-9.599,3.18-12.422,3.65-4.989.83-10.551-.08-15.62,1.449-3.452-8.901-3.465-18.081-3.571-27.802,5.977.382,11.4,2.115,17.197,3.885,3.263.997,5.623.174,8.939,3.365" fill="#ff7aab"/><path d="M258.697,1077.839c.397,2.656-.363,1.849-1.744,2.521-2.061,1.003-11.472,2.837-13.513,2.667-3.713-.309-2.64-7.293,2.736-7.214,2.675.039,3.646,2.775,6.061,3.055,2.189.254,4.247-1.413,6.46-1.029" fill="#ff7aab"/><path d="M175.881,1108.814l-6.532-5.155c-6.152,4.037-13.514,4.546-19.602,9.286-1.9-2.336,11.533-9.768,12.742-10.016.85-.175,2.06.672,3.165.486,4.931-.83,8.479-3.638,10.227,5.399" fill="#ff7aab"/><path d="M197.678,1127.398l-12.195,3.098c-2.526-2.771,11.956-11.036,12.195-3.098" fill="#ff7aab"/><path d="M257.824,1063.381c-.126,5.327-3.163,13.995-8.712,12.377,1.481-.682,7.228-14.418,8.712-12.377" fill="#ff7aab"/><path d="M161.068,1074.743c-3.258,5.811,4.655,6.365,1.298,11.347-1.908.396-5.152-8.057-6.54-9.793-.454-2.96,3.77-1.098,5.242-1.554" fill="#ff7aab"/><path d="M183.738,1119.138l-2.63.006.503,3.12-6.588,1.003c-.658-3.256,2.107-1.858,3.247-3.384.747-1,1.775-5.329,1.988-6.936l3.48,6.191Z" fill="#ff7aab"/><path d="M156.713,1131.534c.155-.44-.275-1.787.029-2.018.467-.355,2.028.307,2.766-.1.764-.42.68-1.527,1.412-1.887,2.014-.99,4.922-2.197,7.121-2.185l-7.219,5.403c-1.309.754-2.68.889-4.109.787-.338.956-.003,2.326-1.324,3.097-2.172.563-9.339-13.494-10-16.522,1.959,2.593,4.191,5.106,6.099,7.74,2.195,3.032.785,5.369,5.225,5.685" fill="#ff7aab"/><path d="M168.921,1157.347c-1.646-1.935,8.274-9.827,9.576-10.322.873,1.088-1.888,3.854-2.596,4.66-.704.802-6.391,6.354-6.98,5.662" fill="#ff7aab"/><path d="M146.252,1106.76c-1.801,2.527-2.518,5.041-3.046,8.246-4.703-4.158-.775-6.574,3.046-8.246" fill="#ff7aab"/><path d="M163.691,1154.248c-.14-2.808,1.351-4.453,3.474-5.158.321,2.513-1.061,5.304-3.474,5.158" fill="#ff7aab"/><polygon points="324.954 1185.239 324.943 1188.329 320.59 1187.289 320.595 1185.24 324.954 1185.239" fill="#ff7aab"/><path d="M174.146,1123.283c-.672,2.619-3.316,2.1-5.226,2.049v-2.054l5.226.005Z" fill="#ff7aab"/><path d="M146.261,1236.861l-.433-2.074,13.388,2.245.196,3.841,5.145.116-2.611-5.146,55.789,2.064-.009,4.121c-1.707.553-2.299-2.098-3.764-1.906-2.272.299-3.479,1.052-6.976,1.273-10.763.682-21.829,1.163-32.379,1.708-2.829.146-16.486.565-17.49-1.023-.364-.576,1.146-3.28-.946-4.059-2.287-.851-4.608-.169-4.714,2.974-3.752-3.206-7.482,1.323-10.418-4.642l5.222.508Z" fill="#ff7aab"/><path d="M321.463,1231.696c-6.495-.524-12.528,2.131-18.631,3.332-6.049,1.19-9.389.509-14.918.728-2.972.119-6.585,3.774-10.031-.44,4.068-1.37,8.524-1.913,12.732-2.467,7.725-1.018,16.339-2.749,24.32-3.198,2.091-.118,5.603-.874,6.528,2.045" fill="#ff7aab"/><path d="M229.059,1237.908l-1.279,3.829c-2.819-1.555-6.804,2.084-8.297-2.301-.723-2.125,1.189-1.45,2.157-1.533,2.449-.211,4.971.142,7.419.005" fill="#ff7aab"/><path d="M272.648,1235.848c-3.606,4.594-10.91.286-15.684,3.084-.362-2.876.413-1.933,2.159-2.063,4.528-.336,8.996-1.009,13.525-1.021" fill="#ff7aab"/><path d="M377.251,1203.834c-1.589,3.832-6.438,3.798-9.588,5.143,2.039-2.938,6.56-4.164,9.588-5.143" fill="#ff7aab"/><path d="M230.811,1240.996v-3.087c1.82-.127,3.266-.394,4.337,1.543-1.071,1.937-2.517,1.671-4.337,1.544" fill="#ff7aab"/><polygon points="75.65 1213.122 75.227 1215.164 69.544 1212.095 75.65 1213.122" fill="#ff7aab"/><rect x="239.361" y="1237.186" width="2.069" height="3.498" transform="translate(-999.154 1476.143) rotate(-89.853)" fill="#ff7aab"/><path d="M175.89,1099.51l-3.482.005v-2.055c1.626-.266,3.016-.003,3.482,2.05" fill="#ff7aab"/><path d="M197.678,624.482l-1.29.004-2.187,4.115,2.175,1.017,1.302-5.136ZM239.52,604.856c-.602-.756-9.837,2.823-11.283,3.668-2.329,1.36-11.855,10.929-13.163,13.32-.689,1.262-1.076,2.079-.823,3.662,6.329-1.049,12.855-2.282,18.244-6.775,2.113-1.762,9.142-11.213,7.025-13.875M259.574,588.342l-5.227-1.038,2.179,7.219,3.048-6.181ZM253.475,598.654l-2.179-12.382c-2.811,3.723-1.728,8.766-7.246,8.449l-1.023,4.43,1.789,1.18,8.659-1.677ZM275.858,583.464l-6.395,3.3.82,2.23,6.394-3.3-.819-2.23ZM258.74,582.063l-.047-3.031-2.605,4.129,6.096,1.034-3.444-2.132ZM288.334,576.978c-1.47-1.389-6.43,3.734-6.093,6.185.793.943,3.738-2.692,4.445-3.521.705-.825,2.275.043,1.648-2.664M233.422,654.425c-2.217,5.004-6.991,6.833-7.021,12.344-4.487-.929-3.13,1.864-5.172,4.706-9.853,13.708-22.969,23.654-35.464,32.877-2.194,1.62-4.511,6.331-4.804,6.628-.355.36-7.883,4.153-8.332,4.31-2.452.856-7.09.789-9.81,1.087l14.382-7.214c5.785-6.016,22.983-15.58,25.465-23.555.645-2.073.196-4.707.819-6.405,5.45-14.843,15.613-29.251,21.328-43.755,2.502-4.092,24.375-29.751,24.278-32.148-.123-3.04-6.008.068-6.939,1.055-.718.761-1.908,7.539-3.509,10.3-6.79,11.705-18.045,10.669-27.459,16.019l-.944-2.118c-2.599-.733-9.909,7.614-12.612,9.798-2.284,1.845-5.235,3.382-7.484,5.08-1.925,1.454-2.737,5.296-7.278,3.755,1.107-4.02-.468-7.613.053-11.806.203-1.64,3.029-14.921,3.458-16.307.369-1.193,1.972-1.225,2.418-2.506.544-1.565,3.763-11.572,3.66-12.208-.218-1.34-2.379-1.897-3.487-1.565,1.63,3.718-1.211,4.401-3.481,6.189.768-2.459.171-5.931.598-8.052,2.52-12.532,9.212-21.726,14.936-31.838,5.717-10.1,11.893-30.288,25.014-21.066l.435,1.576c-2.627,1.163-2.215,5.793-3.522,8.773-4.667.515-.254-7.457-.862-8.251-4.231,1.449-5.348,6.909-7.13,10.648-.854,1.793-3.883,5.664-4.062,6.592-.328,1.703,1.12,3.261.341,5.434-.849,2.367-5.694,4.276-4.827,8.301,4.135-3.964,8.875-7.416,12.76-11.723,2.378-2.636,5.114-6.012,7.326-8.632,1.725-2.044,3.89-9.946,6.047-11.154,1.496-.837,11.16-2.214,8.725,1.548l-3.587,1.758.098,4.444-4.354-1.017.879,3.081c-4.496.383-9.215,4.4-8.717,10.335,1.977-1.097,2.437-4.346,4.347-5.683,1.015-.71,2.99-1.477,2.611,1.022-2.254,5.238-6.468,4.674-9.209,6.652-1.112.802-11.637,14.473-13.042,16.533-3.324,4.871-1.965,7.533-2.267,8.135-3.444,6.869-4.862,11.424-7.806,19.011-.242.623-3.468,2.229-1.059,3.899l5.07,2.027c3.793-3.435,8.791-4.911,12.571-7.775,8.047-6.099,15.164-15.757,23.213-22.061,3.195-4.456.724-11.342.386-16.591,3.782.293,3.716,8.259,1.988,10.846l1.93,2.553,1.361-5.075c6.623.939,9.199-7.44,13.883-11.957,5.778-5.572,10.212-8.089,17.437-3.607,1.243-4.442-.953-8.592-2.607-12.376,3.782-.68,5.583,10.075,8.269,9.28l2.734-5.093c2.681-1.089,5.582,4.146,8.156-.583l-3.468-1.56,6.097-3.609-3.478-2.566,6.97-.006c.733.891-4.504,16.455-5.482,18.803-7.419,17.798-22.649,33.679-33.722,48.863-3.654,5.011-6.369,11.046-10.04,15.989-1.045,1.407-9.471,11.385-10.093,11.794-3.218,2.113-7.342.926-10.452,2.075-2.156.796-4.656,4.93-6.915,6.271.889,4.747,3.766-.258,4.12-.527,1.972-1.496,3.692-.736,3.73-5.163,2.677.835.011,4.386,2.604,5.161.573-1.294.141-3.627,2.611-3.093l.002,3.088c-.818-.117-1.907.216-2.613.005" fill="#ff7aab"/><path d="M209.005,1006.582h-.854v6.186h.854v-6.186ZM206.396,1136.69c-2.204.508-1.543-.488-2.193-1.997-2.721-6.314-3.464-17.06-12.13-15.509-1.816.325-3.394,2.243-5.275,2.07-3.853-.355-.688-3.007-.679-3.663.01-.796-1.794-2.066-2.266-3.245-10.97-27.378-6.356-78.993-.786-108.044,1.248-6.511,4.075-11.418,5.615-17.1,2.798-10.321,3.673-20.68,9.169-29.921l12.025-3.315c.673,4.445,1.684,9.444,1.833,13.943.254,7.69-2.499,19.601-2.341,25.825.044,1.713,1.894,6.441,2.15,9.421.751,8.764-1.22,10.625-2.296,17.675-1.678,10.986.319,22.069-2.184,33.557-.709,3.255-2.593,5.779-3.054,8.775-.654,4.251.255,8.702-.399,12.952-1.6,10.39-4.141,11.604-2.211,24.778.78,5.322,1.104,7.063,1.622,12.523.678,7.158,2.621,14.137,3.4,21.275" fill="#ff7aab"/><path d="M187.969,553.402c-.392,3.661,5.509.35,4.474,3.416-.176.521-2.619,4.801-3.142,5.619-.972,1.521-6.038,6.071-6.241,6.501-2.217,4.712-3.729,13.156-6.256,18.119-4.832,9.488-11.898,14.312-17.221,22.22-.452.672-6.282,12.904-7.119,14.814-1.364,3.115-.865,7.676-4.464,6.587-.756-13.159,2.608-21.532,8.011-32.334,4.565-9.125,17.849-31.868,23.892-38.821,2.067-2.378,5.063-3.501,6.902-6.291l1.164.17Z" fill="#ff7aab"/><path d="M218.59,855.806c-2.133-2.436-1.867,4.497-1.77,5.722.145,1.827-.267,3.337,1.347,4.58,2.574-2.677,1.07-7.047.423-10.302M232.545,813.466c.064,8.318-2.194,16.311-3.184,24.383-1.253,10.207-2.682,21.987-2.645,31.679.006,1.506.9,9.662.605,10.023l-4.356.008c-.663,2.691,2.348,2.396,2.638,3.821,1.488,7.301-12.42,26.847-13.534,35.412-1.259-2.119-2.296-9.627-2.162-11.823.185-3.041,3.232-4.338,1.729-7.791l4.348,2.067c-.984-4.608,1.725-5.986,3.108-9.235,2.411-5.665,2.261-7.111-3.095-5.226-.967-2.019,2.468-13.097,1.73-16.847-.15-.759-1.537-.607-1.711-1.424-1.763-8.333,2.064-29.133,4.988-37.233.735-2.037,2.593-3.017,2.833-.757.33,3.106-7.189,17.205-4.587,21.934l1.963,1.274c.369-12.579,6.413-23.611,9.546-35.686.546-2.101-1.192-5.349,1.786-4.579" fill="#ff7aab"/><path d="M145.377,932.211c-3.58-.421-.043,2.374.321,4.121.316,1.518-.424,2.841.307,4.879.242.676,7.591,10.735,8.123,11.113.525.374,11.282,3.418,11.894,3.431,1.108.023,2.348-1.669,4.164-1.92,3.446-.477,6.927,1.506,10.489.06l.439,2.06c-5.712,4.121-11.24,4.873-17.893,4.187-7.556-.78-10.62-7.714-17.837-5.208l.868-3.081-7.84,2.051c2.002-8.012.022-17.141,5.22-23.247l1.745,1.554Z" fill="#ff7aab"/><path d="M157.336,906.748c.203.064.203,1.422.9,1.653,2.901.961,6.788,1.951,9.809,2.145l-1.75,3.571c2.387,3.715,6.373,1.986,9.591,3.126-5.07,4.976-13.453-2.547-18.64-1.308-1.009.242-1.681,2.235-2.886,2.664-.733.262-7.745.994-8.109.778-1.016-.604-2.434-4.149-2.443-5.432-.017-2.425,3.112-3.745,3.12-4.957.006-.891-2.121-1.766-1.543-3.61.687-.726,10.319.859,11.951,1.37" fill="#ff7aab"/><path d="M188.089,649.267l-.585,3.109c-5.862.935-9.181,7.42-14.102,10.45l.254,3.024,5.716,3.023c-1.736-.225-3.895.451-5.516-.003-.756-.212-.319-3.545-3.224-1.567-3.414,2.324-9.561,20.164-13.018,24.566-.387.494-2.434,2.053-2.636,1.799l15.236-29.96c5.119-5.588,10.387-14.23,17.875-14.441" fill="#ff7aab"/><path d="M250.853,1050.991c-2.27,5.02,2.118,5.015,2.612,9.283-7.628-4.254-8.809,1.15-14.194,3.311-3.751,1.505-6.95,1.196-9.26-2.989l1.684-5.473c2.366-.693,1.238,1.402,2.802,2.368,7.891,4.877,14.201-8.865,16.356-6.5" fill="#ff7aab"/><path d="M243.006,705.032c.002,2.532.13,5.079-.101,7.616-.854,9.379-3.577,23.387-5.373,32.918-.357,1.898-.342,3.413-2.358,2.835-2.797-7.41,1.521-11.955,2.398-18.32.65-4.718.991-8.612,1.741-13.428.548-3.519-.256-11.236,3.693-11.621" fill="#ff7aab"/><path d="M229.931,805.203c-2.525,1.094-2.029-4.003-1.805-5.747.236-1.838,1.553-1.449,1.736-2.285.627-2.866,1.717-8.352,1.827-11.122.419-10.606.232-15.758,2.604-26.805.308-1.434-.013-3.216,1.735-3.615l-1.781,28.345-4.316,21.229Z" fill="#ff7aab"/><path d="M202.043,955.973l-4.374-.529c1.999-6.653,1.283-14.133,2.211-21.056.241-1.801.551-2.049,1.729-3.194.619,3.893,2.15,8.807,1.892,12.772-.233,3.567-3.145,7.153-1.458,12.007" fill="#ff7aab"/><path d="M200.294,646.17c-.221,11.21-9.04,21.231-18.302,20.637,2.328-2.907,5.47-2.205,8.657-4.708,3.456-2.714,7.338-8.907,7.901-13.864-2.753-.262-4.519,2.489-7.394,2.126-1.35-.17-2.967-1.623-1.334-2.666l10.472-1.525Z" fill="#ff7aab"/><path d="M294.27,654.184c-1.753,1.314-3.106.049-2.465-2.342.17-.636,7.743-6.311,9.166-7.753,2.586-2.62,3.031-8.717,7.4-2.573-3.252,4.658-8.304,6.088-12.159,9.346-1.182.999-1.654,3.106-1.942,3.322" fill="#ff7aab"/><path d="M267.413,544.963c.377,2.67-.334,1.86-1.882,2.357-6.02,1.936-7.79-1.715-10.313,7.463-2.303,1.865-2.862-7.006,1.758-9.286,2.927-1.444,7.267-.099,10.437-.534" fill="#ff7aab"/><path d="M251.722,549.093c.454,2.684-.458,1.58-1.747,2.56.452,1.94,6.784,7.999,3.046,9.818-1.751.852-1.942-4.509-3.43-6.237-1.02-1.183-2.568-1.731-3.941-2.06-.71-5.309,3.203-3.365,6.072-4.081" fill="#ff7aab"/><path d="M229.059,806.237l-4.785,21.677-.027-9.313c.598-.561,2.584-15.464,4.812-12.364" fill="#ff7aab"/><path d="M284.843,924.992c.409.393,2.349,12.265-1.286,11.356-4.143-1.932-2.199-14.701,1.286-11.356" fill="#ff7aab"/><path d="M297.38,667.213c-1.025,1.079-1.645,3.007-3.381,3.728-1.106-.45-.187-2.001.196-2.825,1.763-3.804,7.586-8.163,9.398-12.639,2.172,2.003.786,1.551-.018,3.054-2.361,4.413-2.97,5.289-6.195,8.682" fill="#ff7aab"/><path d="M212.333,648.043l-5.933-.859c2.642-2.949,5.172-2.833,5.24-8.248,3.553,2.464,2.702,5.81.693,9.107" fill="#ff7aab"/><path d="M228.196,927.053c.144-4.883,2.284-9.449,6.089-11.354,1.369,2.597-4.627,13.225-6.089,11.354" fill="#ff7aab"/><path d="M149.735,694.705c-.063,2.062-1.147,10.252-3.047,10.301-2.721.071-.546-11.433,3.047-10.301" fill="#ff7aab"/><path d="M241.263,691.602l.871,11.36-2.607.005c.22-3.146-.333-6.78-.005-9.835.201-1.874-.297-1.676,1.741-1.53" fill="#ff7aab"/><path d="M252.563,562.559c1.262,2.216-3.892,7.633-6.061,6.146l-.012-3.089,3.492-.011-.866-4.117,3.447,1.071Z" fill="#ff7aab"/><path d="M148.863,1064.418c.496,3.28-6.466,5.42-6.965,2.557.497-3.557,4.865-3.288,6.965-2.557" fill="#ff7aab"/><path d="M138.266,700.025l1.009,3.964c-2.835.438-6.555-.081-4.788-4.13l3.779.166Z" fill="#ff7aab"/><path d="M167.169,664.746c-.991,1.149-7.648-6.223-7.841-8.246.716-.812,8.793,7.142,7.841,8.246" fill="#ff7aab"/><path d="M332.622,540.071c1.832.758,3.213,6.413-.69,5.923.261-2.823-.761-3.51-2.62-4.646,1.024-1.548,1.625-1.974,3.31-1.277" fill="#ff7aab"/><path d="M141.902,665.784c-1.011-5.164,4.554-5.937,5.219-2.569.459,2.322-1.79,2.929-3.048.806l-2.171,1.763Z" fill="#ff7aab"/><path d="M273.503,547.031l2.598,4.639-2.146,2.561c-.786.014-4.164-8.409-.452-7.2" fill="#ff7aab"/><path d="M258.705,897.105c-.833-3.175,5.26-5.359,5.208-2.576-.026,1.437-3.782,3.302-5.208,2.576" fill="#ff7aab"/><path d="M140.146,694.705c2.201,2.65-4.151,5.794-4.335,2.579-.141-2.457,3.543-3.533,4.335-2.579" fill="#ff7aab"/><path d="M192.447,954.937c-5.164.042-2.567-8.189-.426-4.132l.426,4.132Z" fill="#ff7aab"/><path d="M192.452,920.852l-6.969-1.012c2.384.382,5.728-2.778,6.969,1.012" fill="#ff7aab"/><path d="M294.44,660.631c-.754,2.311-3.297,3.21-5.23,3.077.868-2.688,2.929-3.436,5.23-3.077" fill="#ff7aab"/><path d="M210.754,887.822c.517,1.442-2.15,5.861-2.602,5.158l.876-5.16,1.726.002Z" fill="#ff7aab"/><rect x="274.229" y="932.538" width="2.069" height="3.498" transform="translate(-659.729 1207.145) rotate(-89.853)" fill="#ff7aab"/><polygon points="201.16 644.097 199.379 641.516 200.737 638.939 201.16 644.097" fill="#ff7aab"/><path d="M251.727,935.31l-3.482.005v-2.055c1.626-.266,3.016-.003,3.482,2.05" fill="#ff7aab"/><polygon points="338.85 577.859 340.127 583.041 338.711 583.53 337.434 578.349 338.85 577.859" fill="#ff7aab"/><path d="M302.281,618.285c.893,1.071-1.73,4.139-2.606,3.087-.893-1.071,1.73-4.138,2.606-3.087" fill="#ff7aab"/><path d="M148.863,657.528l-.427,4.12c-1.341-1.113-1.518-2.216-1.307-4.12h1.734Z" fill="#ff7aab"/><polygon points="215.112 876.45 213.377 876.451 213.381 872.331 214.233 872.333 215.112 876.45" fill="#ff7aab"/><path d="M143.637,690.58l-.882,3.086-1.728-.004c-.278-1.95,1.02-3.432,2.61-3.082" fill="#ff7aab"/><polygon points="288.333 664.756 288.334 666.811 284.856 666.806 284.858 665.797 288.333 664.756" fill="#ff7aab"/><rect x="208.151" y="1006.582" width=".854" height="6.186" fill="#ff7aab"/><path d="M297.056,542.903l-6.098.501c1.565,2.34,5.247,2.372,6.098-.501M319.72,543.925c-.382,5.861-6.606,2.097-9.246,2.168-10.027.267-20.351,1.304-30.295.869-1.192-.053-2.655-.955-3.944-1.086l-.096-5.052c3.698-.047,3.658,4.944,8.711,3.093l-.869-3.081,4.745,2.115c2.981-6.552,11.56-.356,17.047-2.114l-1.744,3.088h15.691Z" fill="#ff7aab"/><path d="M188.965,500.552c5.507-.786,11.121,1.624,11.34,9.307l2.611-.525-.01,6.706c-2.279-1.927-3.938.599-4.777.632-1.135.045-6.198-5.052-7.418-3.72l.866,4.116-2.612.007v-16.523Z" fill="#ff7aab"/><path d="M314.483,499.532l-7.835,2.046.867-3.082c-10.566,1.214-20.539-3.127-30.699,1.063-3.532,1.456-.995,12.816-2.856,16.478l-1.508-13.705-1.547-3.835c5.182,1.565,12.258-3.694,16.209-4.132,2.389-.265,7.069,1.087,10.423,1.068,3.509-.02,7.585-2.322,10.839-.539,1.604.879,3.241,5.003,6.107,4.638" fill="#ff7aab"/><path d="M215.112,525.342l-.901,7.574,1.654.801c-.662,6.803-8.402.93-12.08.903,2.207-1.562,2.302-6.351,3.162-7.3,2.758-3.047,2.654,1.86,5.107,1.149.851-.247.83-3.958,3.058-3.127" fill="#ff7aab"/><path d="M326.693,525.337h-1.743v-20.138c0-.344-2.453-4.522-1.908-6.504-.918-1.525-5.006.143-4.19-3.301,2.234-.277,3.49-.201,5.324,1.486.428.394,2.517,6.893,2.517,7.286v21.171Z" fill="#ff7aab"/><path d="M281.358,522.234v-3.09c3.191-1.011,6.235.067,9.112.032,1.434-.017,6.018-2.533,6.581.495,1.017,5.48-13.156,3.04-15.693,2.563" fill="#ff7aab"/><path d="M180.185,544.011c-.185,5.124-3.677,11.143-8.654,10.231,2.404-4.789,5.54-6.215,3.492-12.377l5.162,2.146Z" fill="#ff7aab"/><path d="M304.892,503.646l2.612,5.662c-2.054,2.56-3.558,5.437-6.958,4.672-.164-5.462-1.12-9.279,4.346-10.334" fill="#ff7aab"/><path d="M324.95,540.827v-14.458c1.448-.014,1.708,3.501,1.762,4.651.154,3.262.158,13.078-3.089,13.928-3.913-1.19-1.958-4.467,1.327-4.121" fill="#ff7aab"/><path d="M197.682,544.968c-1.967,3.718-10.519,3.203-10.455-2.071l10.455,2.071Z" fill="#ff7aab"/><path d="M274.392,518.108c1.987.557,1.634,4.888,1.822,6.716l-1.822,10.84v-17.556Z" fill="#ff7aab"/><path d="M164.562,566.639c-1.49-1.559,7.156-9.97,6.952-5.675-.024.513-5.467,7.229-6.952,5.675" fill="#ff7aab"/><path d="M162.814,486.083c-1.832.675-9.347-5.593-7.841-7.213,3.459-.288,5.861,4.452,7.841,7.213" fill="#ff7aab"/><path d="M125.327,663.724l-.856,10.314c-.373-2.286-2.763-10.901.856-10.314" fill="#ff7aab"/><path d="M243,473.701c-4.67-.292-.058-3.514-.005-3.792.379-1.968-1.195-6.78,1.31-6.525,3.836,3.935-1.576,6.23-1.305,10.317" fill="#ff7aab"/><polygon points="281.089 533.77 283.427 534.452 282.187 540.42 279.849 539.738 281.089 533.77" fill="#ff7aab"/><path d="M317.972,470.609c.404,4.173-4.243,2.326-6.092,2.048l6.092-2.048Z" fill="#ff7aab"/><path d="M245.621,549.083h-3.48l.002-3.087c1.606-.242,2.557-.063,3.474,1.559l.004,1.528Z" fill="#ff7aab"/><path d="M283.104,525.342v3.088c-1.083,1.385-5.386-4.184,0-3.088" fill="#ff7aab"/><path d="M215.112,519.145v3.088h-2.606c-.285-1.882.959-3.417,2.606-3.088" fill="#ff7aab"/><path d="M317.981,540.822l-.007-2.05,3.481-1.042c.228,2.603-1.383,3.487-3.474,3.092" fill="#ff7aab"/><path d="M239.519,477.837l-.004,1.529c-1.061,1.223-1.801,2.987-3.478,2.586l1.759-4.113,1.723-.002Z" fill="#ff7aab"/><rect x="202.917" y="503.655" width="1.734" height="3.088" fill="#ff7aab"/><rect x="207.276" y="498.492" width="1.734" height="3.087" fill="#ff7aab"/><path d="M414.739,225.847l.864-7.217c-2.564-.467-3.75,4.337-2.607,6.183-7.555,1.808-1.447-9.311,2.186-8.982,3.847,1.604,3.618,9.217-.443,10.016" fill="#ff7aab"/><path d="M157.95,387.611c.31.368.924.45,1.37.392v1.001c-2.751-.279-1.933,3.317-3.039,5.174-2.205-2.662-2.397-5.979-1.305-9.282,1.908-.482,1.974,1.528,2.974,2.715" fill="#ff7aab"/><path d="M426.062,224.825l-1.729,4.656c-7.274,1.8.126-6.63,1.729-4.656" fill="#ff7aab"/><path d="M483.594,258.893l-2.606.002v-4.122l1.29.005c1.369,1.086,1.52,2.212,1.316,4.115" fill="#ff7aab"/><path d="M480.979,274.384h-2.606v-3.088c1.588-.337,2.884,1.137,2.606,3.088" fill="#ff7aab"/><polygon points="178.505 286.792 175.899 289.879 175.895 286.787 178.505 286.792" fill="#ff7aab"/><rect x="173.279" y="290.918" width="2.606" height="2.055" fill="#ff7aab"/><path d="M297.051,266.133l-1.29.005-1.316,1.554,1.307,2.561,1.299-4.12ZM307.506,261.995c-2.884-.649-2.215,3.146-1.72,5.161l2.598-.003-.878-5.158ZM294.436,262.002h-1.734v3.088h1.734v-3.088ZM302.285,252.713c-1.004-.939-3.885,2.625-4.358,4.11,2.721.652,3.459-1.532,4.358-4.11M314.489,253.725c-.673-2.619-3.316-2.1-5.226-2.05v2.055s5.226-.005,5.226-.005ZM318.847,249.615l-3.482-.005v2.054c1.626.267,3.016.004,3.482-2.049M256.139,231.979c3.054-.638,5.292,4.358,6.413,4.244,3.447-.352,3.661-4.29,5.684-4.821,1.784-.469,2.948.638,4.016.514,1.737-.201,3.314-2.864,5.621-1.939-1.296,6.573,10.88,15.642,15.063,14.315,2.059-.653,2.611-2.958,1.499-5.009,4.745-1.525,3.56,5.42,8.722,4.135-1.264,3.813-5.682-1.383-7.828,2.572,3.485,3.248,7.022-.567,9.126,5.656,2.23-3.709,22.184-9.784,23.159-5.537-.211,1.511.39,4.289-.189,5.403-.567,1.09-9.503,4.915-9.168,8.459-1.598,1.284-3.672,2.578-5.066,4.104-3.241,3.546-6.149,11.325-10.904,8.257l.756,3.386-22.575,27.114c-3.158,1.734-5.246-4.417-8.688-3.652-.14,2.425,1.655,3.836,2.337,5.99,2.637,8.324-1.58,7.276-4.606,13.71-5.291-.296-5.833-8.452-10.809-8.358l.807-4.013-5.158-2.703,2.59-3.082c-12.142-14.567.253-11.703,6.595-15.959,8.75-5.872,8.492-24.789,3.871-34.12l-.824,7.683,1.7,5.732-2.632-.579c-3.348,5.959,1.75,6.841,2.64,11.404l-1.751,1.07c-5.22-7.139-3.244-16.017-3.441-24.842-.091-4.061-1.569-7.326-.044-11.83-6.344.838-3.448,5.109-3.487,10.316-3.158,1.095-2.168-5.626-2.615-6.192l-4.836,3.102,2.196,13.395-2.621.682c.689,6.33-4.125,12.778-5.037,17.699-.284,1.53-.156,9.41-1.034,10.559-4.188-.189-1.777-3.847-1.819-6.603-.118-7.851,1.59-6.966,1.901-11.462.188-2.718-.902-5.105-.942-7.751l2.58-.498c-1.253-2.069-1.206-7.335-.056-9.224.733-1.203,5.224.756,1.229-6.512-.927-1.684-3.012-1.997-2.788-3.723l3.383-3.786.869,4.13c.892-3.028,3.056-16.13,4.339-17.079,1.397-1.032,1.776-.138,2.524,1.027l-.702,4.616Z" fill="#ff7aab"/><path d="M265.226,432.933c2.928,4.433,2.483,11.713-.487,16.433-1.573,2.499-4.503.132-3.42,5.747-3.961-1.802-4.891,2.726-5.868,3.096-3.997,1.513-10.284-.581-13.398.628-4.198,1.629-7.427,7.943-12.438,7.594-8.314-.58-3.73-6.48-3.15-10.796.47-3.501-3.961-.204-5.22.03-1.41.263-2.401-.388-4.096.213-5.733,2.029-6.655,8.492-12.288,9.342-3.549.535-6.205-1.332-9.382-.901-3.078.417-3.858,4.2-6.509-.434,3.617-2.093,7.178-4.491,10.57-7.087,2.009-1.538,6.624-6.833,7.766-7.415,1.069-.546,2.497.712,2.575.576.252-.437-.401-2.697.186-3.929.475-.993,4.036-1.772,4.869-6.115,1.381-7.191-2.873-6.262-3.265-8.131,1.82-5.217,5.148-9.869,4.314-15.92,3.477-.509,6.134.33,9.201,2.107l3.435-3.25c10.906,4.995,28.958,6.635,36.605,18.212" fill="#ff7aab"/><path d="M442.703,331.063l-.506-1.936-.89,2.068,9.158,8.255c-.017-2.255.306-6.285-1.085-7.998-3.11-3.83-5.99.263-6.677-.389M426.919,277.48c.134,5.351,2.381,3.405,4.869,5.08,1.833,1.234,2.442,3.216,3.277,3.875,2.818,2.225,6.175,2.206,8.01,7.569,2.958.527-.324-3.87.435-5.127l4.348-1.053c-1.8,4.817,2.208,6.758,5.223,3.086l.146,2.893,8.202,3.245-1.364,6.25c5.453,3.557,7.502-5.462,12.197-.504l-4.351,1.559c-.159,3.024,3.023,3.057,4.392,5.625.832,1.561.646,3.471,1.318,4.678.559,1.001,2.204.736,2.164,1.579-.084,1.771-2.524,3.242-1.057,6.47l-6.573,7.885.629,3.703,2.604-1.037c.597,4.131-1.263,5.409-3.933,7.238-.594-4.08-3.622-1.471-3.072,1.541l1.775.528-.424,1.028-11.779,8.262.874,4.114c-.817.967-9.269-6.113-7.838-9.283l4.359-.01-.118-2.96c-5.934-.853-4.628-4.607-6.845-7.991-.771-1.177-5.932-2.01-6.124-6.591,1.331-.238,2.825,1.022,2.631-1.551-.25-3.306-4.26-14.907-7.843-8.787-1.238-2.182.098-5.728-.419-7.204-1.167-3.335-5.651-1.592-3.075-7.247l-2.53-.072c.697-5.603-1.611-3.492-3.328-5.392-1.566-1.732-6.775-11.615-7.031-13.873-.041-.362,1.42-5.86,1.544-7.062l8.707-.464Z" fill="#ff7aab"/><path d="M243.006,254.773l-6.52,28.9-1.326-7.215-3.476,1.032c-.751-2.878.026-9.921,1.754-11.878.862-.976,2.488-.951,3.247-1.817.377-.43,4.512-11.414,6.321-9.022" fill="#ff7aab"/><path d="M195.053,444.782l2.633.007c-.355,4.933-6.089,4.364-8.659,5.749-2.546,1.372-4.597,5.111-7.907,4.564l1.027-4.963c.768-1.106,7.091-.312,5.939-2.757-1.23-.925-3.825-3.133-5.042-3.417-1.199-.28-7.525,2.166-6.274-.714,5.534-4.766,12.031-3.483,18.338-2.12l-.055,3.651Z" fill="#ff7aab"/><path d="M385.785,221.486c-1.862,3.049-15.504-1.317-11.612-8.063,3.656-2.762,7.492-4.152,11.846-2.61,1.516,1.436.485,9.496-.234,10.673" fill="#ff7aab"/><path d="M285.71,217.586l-1.738-.53c1.774-3.26-.995-4.524-2.943-2.613-.779.764-.321,2.351-.737,2.846-.59.703-2.266.405-2.93,1.277-1.098,1.444,2.327,4.967-1.222,4.193l-1.737-6.732-9.118-.489-.501-2.603c2.606-.567,1.303-2.58,2.194-4.635,1.355,2.464,3.758,1.65,5.62,2.637.978.519,1.756,2.161,2.893,2.776,4.966,2.686,3.292-2.396,4.936-4.977,1.966-3.087,5.662-.392,6.938,2.344l-1.655,6.506Z" fill="#ff7aab"/><path d="M419.964,270.258c-4.424,2.145-2.5,6.81-3.668,8.113-.383.427-1.868-.137-2.255.298-.663.745.252,4.792-1.913,5.014.451-8.889,6.303-15.5,8.995-23.427l2.185-1.998c3.412-9.366,11.245-14.925,15.933-22.436.809-1.295,2.392-2.716,3.383-1.703,1.064,1.088-17.645,22.332-18.269,25.332-2.035,5.016-3.62,5.648-4.391,10.807.894-.433,2.764-1.942,3.481-.523l-4.344,6.719c.46-2.025.561-4.176.863-6.196" fill="#ff7aab"/><path d="M346.742,235.147c6.618-1.966,6.331-9.147,13.067-11.36,1.796,6.723-5.507,6.298-4.344,12.389l3.474-1.026c.845,2.778-1.564,1.642-1.757,2.723-.249,1.394.119,3.043.016,4.498-.611.935-3.611-2.176-3.944-3.12-.349-.988.937-5.261-.846-5.116-.529.043-4.89,9.755-6.961,9.268-2.852-.67.989-7.192,1.295-8.256-5.667,1.683-8.892.704-13.726-2.821-1.291-.94-1.771-2.552-1.088-3.37,1.147-1.376,9.704,5.758,11.731,6.233l4.822-7.266c-.318,2.407-1.08,4.932-1.739,7.224" fill="#ff7aab"/><path d="M362.43,207.263l.45,3.148,7.713-3.049,2.211,2.628-5.595,10.703c-2.787.378-5.5-8.225-6.082-8.247l-3.92,2.041c-.154-3.501,1.797-7.82,5.223-7.224" fill="#ff7aab"/><path d="M340.638,194.872c-.558,3.902.669,5.537,2.615,8.253l-2.604-1.039-1.339,4.155-6.576-1.637-1.242,3.687c-3.279-7.888,1.679-15.747,9.146-13.419" fill="#ff7aab"/><path d="M299.598,458.29c.022,5.32.281,9.046-4.897,8.887-4.335-.133-3.973-5.126-4.756-5.707-1.07-.792-3.939.779-5.076-1.71,4.318-3.255,10.014-3.009,14.729-1.47" fill="#ff7aab"/><path d="M309.137,216.403l.605-1.968,5.619,3.145-3.487.021c1.402,6.156,7.072,3.586,9.588,8.241-1.513-.043-3.123.331-4.614-.204-1.028-.369-10.209-6.198-11.366-7.187-2.876-2.458-5.559-6.217-.583-6.596l4.238,4.548Z" fill="#ff7aab"/><path d="M184.602,375.6c1.646,2.023-13.458,20.083-15.25,21.682-1.521,1.356-3.712,2.972-5.666,3.088,2.27-4.662,6.951-6.657,10.065-10.269,2.963-3.436,5.45-8.534,7.91-12.318.811-1.249,1.288-2.584,2.941-2.183" fill="#ff7aab"/><path d="M257.825,264.059l-.005,6.194-3.474-3.087-.137,10.13-4.217,5.355c1.121-6.739.104-19.096,7.833-18.592" fill="#ff7aab"/><path d="M265.554,326.168l-2.502,9.151c-1.343,1.458-4.61-5.981-6.079-6.713,3.089-2.752,5.003-5.874,8.581-2.438" fill="#ff7aab"/><path d="M401.66,339.466l-.882,3.081c-2.966-3.608-5.234-1.751-7.883-2.464-1.541-.415-3.31-3.925-2.564-4.758,1.651-1.846,3.451,3.787,5.221,2.054.729-.713-1.901-3.317-2.267-5.016-.337-1.561-1.014-2.547.952-2.198,3.081,4.128,1.113,9.143,7.423,9.301" fill="#ff7aab"/><path d="M207.191,333.171l-2.531.077,2.001-12.593,2.776-7.013c2.216,1.801.541,1.928.264,3.37-1.037,5.399-1.533,10.776-2.51,16.159" fill="#ff7aab"/><path d="M312.163,463.699c-.961,1.79-.581,4.285-1.592,5.866-3.957-5.606-3.267-10.797,3.469-11.352l.917,2.072c-.467,2.256-2.326,2.541-2.794,3.414" fill="#ff7aab"/><path d="M169.788,483.009c-.187,5.377-2.768.396-3.292.081-4.199-2.529-3.966-2.239-7.483-5.916-1.665-1.741-4.261-1.868-4.915-6.56,1.17-1.401,12.567,13.612,15.69,12.395" fill="#ff7aab"/><path d="M261.312,319.823c-.898,1.074-6.343-3.938-7.606-4.893-1.253-.948-1.855-2.43-1.102-3.358,1.063-1.31,10.167,4.134,8.708,8.251" fill="#ff7aab"/><path d="M302.281,459.238c-1.93.392-1.741-.176-2.173-2.013-1.059-4.498-.154-9.821-.429-14.5,1.318-.05,1.487,3.606,1.631,4.765.475,3.821.288,7.925.971,11.748" fill="#ff7aab"/><path d="M406.885,239.272c-3.395-.716-9.181,1.937-11.328-2.05l9.154-1.07,2.174,3.12Z" fill="#ff7aab"/><path d="M384.225,233.094l-.447,2.066c-1.742-.669-9.059-2.392-9.124-4.661-.141-4.948,8.593,3.569,9.571,2.595" fill="#ff7aab"/><path d="M468.659,288.721l-5.106,2.181,1.735-2.044-3.49-.015.013-3.092c3.352,2.398,7.124-4.526,6.848,2.97" fill="#ff7aab"/><path d="M280.493,386.954c-1.083-.693-3.071-.191-2.611-3.093l2.607-.007c.101,1.011-.105,2.106.004,3.1,3.676,2.352,5.324,6.361,6.097,11.354l-5.299-7.694c-.808-1.093-.656-2.365-.798-3.66" fill="#ff7aab"/><path d="M395.566,326.025c1.736,1.495,4.58,5.381,5.386,7.569,1.883,5.112-3.48.631-4.735-2.671-.601-1.582-.783-3.185-.651-4.898" fill="#ff7aab"/><path d="M306.612,192.823c.773.618.564,4.943.021,6.177l-4.345-1.043c.046-1.998,2.245-6.797,4.324-5.134" fill="#ff7aab"/><path d="M319.635,459.336c.214.173,1.559,5.076,1.648,5.83.779,6.537-3.212,3.865-2.993.788.154-2.153,3.678-2.511-1.18-5.174-.612-2.199,1.99-1.875,2.525-1.444" fill="#ff7aab"/><path d="M215.983,298.147c.633.82-2.44,8.183-3.046,8.236-3.122.274,1.42-10.342,3.046-8.236" fill="#ff7aab"/><path d="M282.236,191.783l-7.841,7.213c-.59-.702,3.582-5.738,4-6.052,1.179-.884,2.436-1.35,3.841-1.161" fill="#ff7aab"/><path d="M190.717,364.234c-.164-4.115,1.076-8.41,4.341-10.327l-4.341,10.327Z" fill="#ff7aab"/><polygon points="414.73 299.169 411.274 297.638 414.303 291.951 414.73 299.169" fill="#ff7aab"/><path d="M480.981,282.64c-.211-5.235,5.588-2.698,5.227.512-.34,3.025-4.261-1.419-5.227-.512" fill="#ff7aab"/><path d="M285.728,229.978l1.309-2.018,6.515.474c-1.916,2.746-5.258,1.231-7.824,1.544" fill="#ff7aab"/><path d="M407.749,308.461c-2.49-.723.095-7.232,1.319-7.201l2.163,2.563-3.482,4.638Z" fill="#ff7aab"/><path d="M409.509,292.973c-.294-.4.794-8.089,2.602-8.256-.142,2.899,1.191,8.284-2.602,8.256" fill="#ff7aab"/><polygon points="259.7 253.441 261.686 253.81 260.69 261.326 258.704 260.957 259.7 253.441" fill="#ff7aab"/><path d="M392.066,235.141h-4.35c-.077-4.238,4.427-4.238,4.35,0" fill="#ff7aab"/><path d="M215.997,297.108l.423-7.223c1.975,1.853,2.002,6.215-.423,7.223" fill="#ff7aab"/><path d="M326.689,225.847h-3.478c-.205-1.893-.046-3.011,1.303-4.105,1.059,1.323,2.514,2.158,2.175,4.105" fill="#ff7aab"/><path d="M188.961,368.37c.842,1.088-1.112,4.958-2.602,5.158-.892-1.932,1.296-6.847,2.602-5.158" fill="#ff7aab"/><path d="M457.443,286.777c-2.099.439-2.72-2.328-3.482-4.115l2.635.481c1.115.892.908,2.126.847,3.634" fill="#ff7aab"/><polygon points="269.157 266.133 269.157 270.256 266.551 270.253 267.432 266.132 269.157 266.133" fill="#ff7aab"/><polygon points="460.058 278.525 459.177 282.646 457.452 282.645 457.451 278.523 460.058 278.525" fill="#ff7aab"/><path d="M385.964,228.945c-3.742.185-4.237-1.531-1.299-4.12l1.299,4.12Z" fill="#ff7aab"/><path d="M258.701,220.678l3.05-4.1,1.291,1.529c-1.183,1.377-2.662,2.774-4.341,2.571" fill="#ff7aab"/><path d="M253.471,318.785c-1.963.378-3.654-.92-4.358-3.077,1.962-.378,3.654.919,4.358,3.077" fill="#ff7aab"/><path d="M199.421,330.161v2.054l-4.354-.005c.529-2.331,2.693-2.2,4.354-2.049" fill="#ff7aab"/><path d="M212.496,307.441c.539.687-.406,4.095-1.303,4.105-2.599.031-.242-6.072,1.303-4.105" fill="#ff7aab"/><polygon points="443.936 279.542 445.688 281.618 443.936 283.694 442.184 281.618 443.936 279.542" fill="#ff7aab"/><path d="M270.029,206.225h-2.606c.014-3.786,2.592-3.786,2.606,0" fill="#ff7aab"/><path d="M290.077,217.585h-1.734l.004-4.125c1.733.552,1.955,2.199,1.73,4.125" fill="#ff7aab"/><path d="M227.315,281.613c-.904,1.057-3.493-2.05-2.606-3.088.904-1.057,3.493,2.05,2.606,3.088" fill="#ff7aab"/><path d="M245.621,246.512c.887,1.038-1.702,4.145-2.606,3.088-.887-1.038,1.702-4.145,2.606-3.088" fill="#ff7aab"/><path d="M161.071,402.455c-.466,2.053-1.856,2.317-3.482,2.05v-2.055l3.482.005Z" fill="#ff7aab"/><path d="M290.077,405.537h-1.734l.004-4.125c1.733.552,1.955,2.199,1.73,4.125" fill="#ff7aab"/><path d="M329.304,231.011c-1.317,1.56-3.716-3.071-1.303-3.072.577,0,1.803,2.479,1.303,3.072" fill="#ff7aab"/><polygon points="493.178 250.637 491.448 249.073 492.755 246.512 493.178 250.637" fill="#ff7aab"/><path d="M346.733,251.669c-1.733-.552-1.959-2.204-1.726-4.13,1.733.552,1.959,2.204,1.726,4.13" fill="#ff7aab"/><rect x="225.581" y="287.82" width="2.606" height="2.054" fill="#ff7aab"/><rect x="415.61" y="347.716" width="2.606" height="2.055" fill="#ff7aab"/><polygon points="473.138 290.923 471.818 292.973 469.656 291.424 473.138 290.923" fill="#ff7aab"/><path d="M203.774,300.208l.882,3.086c-1.413,1.286-4.71-3.9-.882-3.086" fill="#ff7aab"/><path d="M134.043,321.892l-3.477.523,1.736,2.572c-3.449-.366-12.872,5.502-8.297-3.118,3.188-6.006,8.758-8.208,10.038.023" fill="#ff7aab"/><path d="M140.148,333.241l-8.715,1.035c1.363-2.927,7.332-4.827,8.715-1.035" fill="#ff7aab"/><polygon points="135.607 311.204 137.023 311.695 135.781 316.723 134.365 316.232 135.607 311.204" fill="#ff7aab"/><path d="M148.872,335.314c-1.317-1.56,2.592-4.402,2.593-1.544,0,.684-2.093,2.137-2.593,1.544" fill="#ff7aab"/><path d="M307.506,261.995l.878,5.158-2.598.003c-.495-2.016-1.165-5.81,1.72-5.161" fill="#ff7aab"/><path d="M314.489,253.725l-5.225.005v-2.055c1.909-.05,4.553-.569,5.225,2.05" fill="#ff7aab"/><path d="M302.285,252.713c-.899,2.578-1.637,4.762-4.358,4.11.473-1.485,3.354-5.049,4.358-4.11" fill="#ff7aab"/><polygon points="297.051 266.133 295.752 270.254 294.445 267.692 295.761 266.138 297.051 266.133" fill="#ff7aab"/><path d="M318.848,249.615c-.466,2.053-1.856,2.316-3.482,2.05v-2.055l3.482.005Z" fill="#ff7aab"/><rect x="292.702" y="262.002" width="1.734" height="3.088" fill="#ff7aab"/><path d="M442.703,331.062c.686.653,3.566-3.441,6.677.389,1.391,1.713,1.068,5.743,1.085,7.998l-9.158-8.255.89-2.068.506,1.936Z" fill="#ff7aab"/></svg>