<?xml version="1.0" encoding="UTF-8"?><svg id="a" xmlns="http://www.w3.org/2000/svg" width="502.89" height="1278" viewBox="0 0 502.89 1278"><path d="M268.92,1053.563c0,8.601-6.881,17.202-17.202,17.202h-17.202v-366.398h17.202c10.321,0,17.202,8.601,17.202,18.922v330.274ZM268.92,532.349c0,10.321-6.881,17.202-17.202,17.202h-17.202V195.195h17.202c10.321,0,17.202,6.88,17.202,17.202v319.952ZM379.011,704.367c-8.601-24.082,25.803-37.844,25.803-65.367s-34.404-41.284-25.803-65.366c13.761-34.404,70.527,29.243,89.449-1.721,18.922-32.683-53.325-44.724-44.724-80.848,8.6-34.403,77.408-12.041,79.128-46.445,1.72-36.123-82.569-12.041-82.569-48.165,0-37.843,82.569-12.041,82.569-48.164,0-37.844-82.569-12.042-82.569-49.886,0-36.123,82.569-10.321,82.569-48.165,0-36.123-72.248-12.041-80.849-48.165-8.6-32.683,63.647-46.444,46.445-77.407-17.202-30.964-65.367,24.082-89.449-1.721-24.082-25.802,29.243-72.247-1.72-89.449-30.963-17.202-44.725,56.766-79.128,46.445C263.759,69.622,286.121.815,251.718.815c-37.844,0-12.041,80.848-48.165,80.848-37.844,0-13.761-91.169-49.885-80.848-22.362,6.881-12.041,43.004-32.683,55.045-30.964,18.922-63.647-46.444-87.729-18.921-22.363,24.082,41.284,53.325,25.802,80.848-15.481,25.802-51.605,8.601-58.486,36.124-8.601,34.403,82.569,12.041,82.569,48.164S.572,214.117.572,250.24c0,37.844,82.569,12.042,82.569,48.165,0,37.844-82.569,12.042-82.569,49.886,0,36.123,82.569,10.321,82.569,48.164,0,36.124-82.569,12.042-82.569,48.165,0,37.844,82.569,12.042,82.569,48.165,0,37.844-82.569,12.042-82.569,49.885,0,36.124,82.569,10.322,82.569,48.165,0,36.124-82.569,12.042-82.569,48.165s82.569,12.041,82.569,48.165c0,37.844-82.569,12.041-82.569,48.165,0,37.844,82.569,12.041,82.569,49.885,0,36.124-82.569,10.321-82.569,48.165,0,36.124,82.569,12.041,82.569,48.165,0,37.844-82.569,12.041-82.569,48.165,0,37.844,82.569,12.041,82.569,49.885,0,36.124-82.569,10.321-82.569,48.165,0,36.124,82.569,12.041,82.569,48.165,0,37.844-91.17,13.761-82.569,48.165,6.881,27.523,44.725,10.321,58.486,36.124,15.482,29.243-48.165,56.766-25.802,80.848,24.082,27.523,56.765-36.124,87.729-18.922,22.362,12.041,10.321,48.165,32.683,55.046,36.124,10.321,12.041-80.849,49.885-80.849,36.124,0,10.321,80.849,48.165,80.849,34.403,0,12.041-70.527,46.445-79.128,34.403-8.601,48.165,63.646,79.128,46.444,30.963-17.201-24.083-65.366,1.72-89.449,25.803-24.082,70.527,29.243,89.449-1.72,18.922-30.963-55.045-44.725-46.445-77.408,8.601-36.124,80.849-12.041,80.849-48.165,0-37.844-82.569-12.041-82.569-48.165,0-37.844,82.569-12.041,82.569-49.885,0-36.124-82.569-10.321-82.569-48.165,0-36.124,84.289-12.041,82.569-48.165-1.72-34.403-70.528-12.041-79.128-46.445-8.601-34.403,61.926-46.444,44.724-79.128-17.202-32.683-75.688,30.964-89.449-3.44" fill="#ff1c26"/></svg>