<?xml version="1.0" encoding="UTF-8"?><svg id="a" xmlns="http://www.w3.org/2000/svg" width="499.849" height="1278" viewBox="0 0 499.849 1278"><path d="M91.033,879.415c0,37.787-80.728,12.023-80.728,48.093,0,37.787,80.728,12.023,80.728,49.811,0,36.069-80.728,10.305-80.728,48.093,0,36.069,80.728,12.023,80.728,48.093,0,37.787-91.033,13.741-80.728,48.093,8.588,25.764,42.941,10.305,56.681,36.069,15.459,29.2-44.657,54.964-24.046,80.728,22.329,27.482,54.963-36.07,87.598-18.894,22.329,12.023,8.588,48.093,32.634,54.964,34.353,10.305,12.024-79.01,48.093-79.01s12.024,79.01,48.093,79.01c37.788,0,12.024-79.01,48.093-79.01,37.788,0,12.024,85.88,49.811,82.445,32.635-3.435,5.153-68.704,36.07-79.01,32.634-10.306,46.375,53.246,79.01,44.658,46.375-12.024-37.788-70.422-37.788-120.233,0-48.093,84.163-106.491,37.788-120.232-32.635-10.306-46.376,54.963-79.01,44.658-30.917-10.306-10.306-63.552-42.94-70.422-36.07-6.871-29.2,77.292-65.269,68.704-27.482-6.871-44.658-34.352-42.941-63.552,1.718-34.352,72.14-18.893,72.14-54.963,0-34.352-77.292-13.741-77.292-48.093s75.574-12.023,79.01-46.375c3.435-36.07-70.422-27.482-70.422-61.834,0-77.293,111.644-34.352,130.538-109.927,8.588-34.352-24.047-63.551,1.717-89.316,25.764-25.764,72.14,30.917,89.316-1.717,17.176-32.635-54.963-44.658-44.658-80.728,10.306-34.352,75.575-12.023,77.292-46.375,1.718-36.07-80.727-12.023-80.727-48.093,0-37.788,80.727-12.023,80.727-48.093,0-37.787-80.727-12.023-80.727-49.811,0-36.07,82.445-10.305,80.727-48.093-1.717-34.352-66.986-12.023-77.292-46.375-10.305-34.352,61.834-48.093,44.658-79.01-17.176-30.917-63.552,24.046-89.316-1.718-25.764-25.764,29.2-72.139-1.717-89.315-30.917-17.176-44.658,53.246-77.293,44.658C262.794,68.704,285.123,0,250.77,0c-36.069,0-12.023,68.704-48.093,79.01-34.352,10.306-48.093-63.551-79.009-46.375-30.917,17.176,24.046,65.269-1.718,89.315-25.764,24.047-72.14-29.199-89.316,1.718s54.964,44.658,44.658,79.01C66.986,237.03,0,214.701,0,249.053c0,36.07,77.292,12.023,77.292,46.376,0,36.069-77.292,15.458-75.575,51.528,1.718,34.352,65.269,10.305,75.575,46.375,10.306,34.352-54.963,46.376-44.658,79.01,13.741,46.376,72.14-44.658,120.233-39.505,34.352,3.435,44.658,77.292,79.01,39.505V211.266c0-10.306,8.588-17.176,18.893-17.176,8.588,0,17.176,6.87,17.176,17.176v261.076c0,140.844-115.079,65.269-133.973,140.844-8.588,36.07,22.329,65.269-1.717,89.315-25.765,25.765-72.14-27.481-89.316,3.436-17.176,30.917,54.963,44.658,44.658,79.01-10.306,34.352-73.857,12.023-77.293,46.375-3.435,36.07,80.728,12.023,80.728,48.093" fill="#ff7aab"/></svg>