<?xml version="1.0" encoding="UTF-8"?><svg id="a" xmlns="http://www.w3.org/2000/svg" width="495.213" height="1278" viewBox="0 0 495.213 1278"><path d="M286.656.147s-40.153,16.906-46.927,25.36c-6.772,8.453-14.029,13.284-17.899,24.756-3.87,11.472-9.676,16.907-11.611,25.36-1.935,8.453-5.321,22.341-5.321,22.341,0,0-4.354-5.435-7.741,0-3.386,5.434-2.903,5.434-3.87,10.265-.968,4.83-49.829,104.458-49.829,104.458l-12.095,3.019s-15.48,8.453-18.383,14.492c-2.903,6.038-10.643,26.567-10.643,26.567l-3.387,27.775-2.899,6.74s0,6.96.465,9.86c.464,2.9,3.02,5.51,3.02,8.7s-1.161,52.49-1.161,52.49c0,0,2.556,23.201,5.111,31.031,2.556,7.83,5.577,18.85,12.315,25.23,6.739,6.38,11.153,6.09,15.8,6.09s29.509-8.99,36.945-13.34c7.435-4.35,20.214-11.89,20.214-11.89,0,0,2.556,1.74,2.556,3.77s-12.082,30.45-14.871,44.08c-2.788,13.631-3.949,32.771-3.949,44.661s-.233,23.49,1.161,31.03c1.395,7.54,7.9,20.301,9.062,22.62,1.162,2.321.465,3.481.465,3.481,0,0-1.394,7.25-11.385,7.25s-48.563-4.64-75.98,0c-27.418,4.64-55.3,13.63-63.201,12.18l-7.9-1.45s.93-4.35-2.323-4.35-8.83-.58-8.133,2.32c.697,2.9.465,5.8-1.161,6.09-1.627.29-3.95,2.03-4.88,5.22-.929,3.19-1.858,3.77-1.858,8.99s4.224,10.088,1.478,24.369c-2.746,14.28-.915,19.992-3.204,22.849-2.288,2.856-4.119,3.566-4.576,7.781-.458,4.214,1.83,11.64,1.83,17.352s-1.373,18.28-1.373,21.136,5.035,5.712,4.577,9.71c-.458,3.999-3.204,2.857-2.746,7.426.458,4.57,3.204,4.57,3.204,8.569s1.373,11.995,5.492,11.995,9.611-3.998,10.526-5.712c.915-1.714,1.831,1.714,1.831,5.712s5.034,51.981,9.611,65.691c4.577,13.709,3.203,29.132,14.645,44.555,11.442,15.423,26.087,26.847,27.918,26.847s-3.204-34.273-6.865-41.699c-3.661-7.426-9.153-22.277-9.153-39.414s5.492-49.696,5.492-49.696c0,0,52.174,12.567,71.396,10.853,19.222-1.714,22.884-2.285,22.884-2.285,0,0,1.83,11.996,3.204,12.567,1.372.571,5.949,8.568,5.949,8.568,0,0,8.696,9.14,10.984,9.711,2.289.571,4.119,3.999,4.119,7.426s3.204,25.134,6.408,35.987c3.203,10.853,20.137,45.698,20.137,57.693s-.458,23.42,1.831,28.561c2.288,5.141,6.407,0,2.288,9.711-4.119,9.711-3.661,18.279-4.119,24.563-.458,6.283-5.492,15.994-3.204,23.42,2.289,7.426,3.204,11.424,9.611,11.424s14.188,2.285,16.477,3.427c2.288,1.143,12.814,21.136,14.645,29.704,1.83,8.568,8.696,17.137,9.153,29.704.458,12.567,1.373,22.277,1.373,26.276s-2.746,6.283-5.949,8.568c-3.204,2.285-20.595,21.706-23.341,29.703-2.746,7.998-5.492,9.14-12.815,9.14s-19.68,4.57-21.053,3.427c-1.373-1.142-.915-11.995-.915-15.994s3.203-13.138,0-13.138-16.477,7.426-18.765,23.42c-2.288,15.995-3.661,10.854-3.661,10.854,0,0-35.241,7.997-47.14,18.279-11.9,10.282-22.426,15.994-31.579,30.274-9.154,14.281-11.9,22.849-11.9,22.849l.458,29.704s9.153,36.558,77.346,51.41c68.193,14.851,166.134,28.561,228.835,11.424,62.701-17.137,95.195-35.416,99.772-42.841,4.577-7.426,7.323-20.565,7.323-20.565l.457-27.418s-2.288-23.42-36.613-45.126c-34.325-21.707-94.738-33.703-94.738-33.703,0,0-4.119-10.282-4.119-13.709s-3.204-7.426-3.204-12.567,2.289-70.26,2.289-74.83,0-23.991.915-29.132,2.746-7.426,5.034-9.711c2.289-2.285,5.95-6.855,5.95-13.709s1.373-10.283-.915-15.995c-2.289-5.712-10.984-19.421-12.357-25.705-1.373-6.283-4.119-13.709-4.119-16.565s-7.781-31.417-5.035-52.552c2.746-21.136,5.035-38.272,5.035-38.272,0,0,6.407,1.713,11.441,2.285,5.035.571,2.289,2.285,11.9,6.283,9.611,3.999,28.833,3.427,35.24,4.57,6.408,1.142,8.239,3.998,10.069,1.714,1.831-2.285,2.289-3.428,1.373-6.855-.915-3.427-8.485-11.463-8.485-13.166s-11.145-15.897-11.827-18.168c-.682-2.271-7.733-19.02-9.78-32.93-2.047-13.91-5.459-47.976-6.596-55.924-1.137-7.949.455-50.531-4.777-65.292-5.231-14.762-8.188-30.091-13.419-39.175-5.231-9.085-8.643-9.085-8.643-10.788s.228-37.188.228-37.188c0,0,.909,1.703,2.729-2.555,1.82-4.258,4.776-6.671,4.776-13.768s-1.592-25.265-1.592-25.265c0,0,1.137-3.123,3.867-2.839,2.729.284,36.619.284,40.94-5.394,4.322-5.677,6.824-10.219,8.416-20.723,1.592-10.503,2.729-44.001,2.729-46.556s-.455-2.839,1.592-3.122c2.047-.284,3.184,0,3.184-3.691s-9.78-29.523-12.737-59.898c-2.956-30.375-8.642-51.666-12.964-57.628-4.322-5.961-5.231-10.219-5.231-10.219,0,0,.909-1.703,2.729-2.271,1.82-.568,20.447-3.451,23.242-29.614,2.796-26.164-2.795-39.245-11.18-45.35-8.385-6.105-18.866-7.849-20.962-7.849s-14.674-31.396-14.674-36.629,4.891-44.478,9.783-53.199c4.891-8.721-.861-9.795-.861-9.795,0,0-12.937,5.045-15.848,4.844-2.911-.202-4.851-1.211-4.851-1.211v-5.45c0-2.624.525-15.441-4.811-28.762-5.337-13.321-37.356-47.734-40.469-52.174-3.113-4.441-16.709-15.279-31.257-13.745" fill="#ff7aab"/><path d="M385.595,97.73c.633.761-.255,10.667-2.472,11.371,1.077-4.044.062-7.302-.004-11.365l2.476-.006Z" fill="#ff1c26"/><polygon points="25.438 711.751 25.438 726.223 23.839 713.21 25.438 711.751" fill="#ff1c26"/><path d="M71.8,845.103c1.577,1.832-3.316,4.627-3.291,1.545.008-1.063,2.74-2.185,3.291-1.545" fill="#ff1c26"/><path d="M379.811,121.51l.829-6.196h.81c.053,2.264.46,5.399-1.639,6.196" fill="#ff1c26"/><path d="M76.771,850.256l-3.307.005v-2.057c1.544-.267,2.864-.003,3.307,2.052" fill="#ff1c26"/><path d="M408.777,269.334l.003,2.05-2.474,1.046c-.281-1.886.907-3.426,2.471-3.096" fill="#ff1c26"/><path d="M54.83,818.222c-.28-.089-1.269-1.407-1.242-2.057,5.073.924,10.189-1.772,14.901.002.237.386-1.084,2.055-1.24,2.055-3.04,0-10.086.742-12.419,0" fill="#ff1c26"/><path d="M314.136,9.186c2.366,2.21,5.645,7.083,7.71,9.979-4.82-.889-6.921-7.778-11.186-10.32-.903-2.657,3.161.047,3.476.341" fill="#ff1c26"/><polygon points="36.148 777.617 37.445 785.98 35.26 786.508 33.963 778.145 36.148 777.617" fill="#ff1c26"/><polygon points="63.365 802.689 67.384 810.54 65.79 811.812 61.771 803.961 63.365 802.689" fill="#ff1c26"/><path d="M51.096,799.615l-3.277-3.674,1.645-3.55c1.688.69,1.435,5.418,1.632,7.224" fill="#ff1c26"/><path d="M61.031,745.856c-1.823-.604-1.012-6.929.829-7.229l-.829,7.229Z" fill="#ff1c26"/><path d="M330.118,28.478l-4.127-2.579,1.988-1.485c1.15,1.081,2.439,2.182,2.139,4.064" fill="#ff1c26"/><polygon points="48.623 800.658 48.616 802.711 45.311 802.711 45.317 799.615 48.623 800.658" fill="#ff1c26"/><path d="M393.051,248.645c1.337-1.564.9-5.499,2.475-6.187.121,2.485.528,6.403-2.475,6.187" fill="#ff1c26"/><path d="M60.212,812.009c-.652-.09-1.576.232-2.061,0-3.048-1.46-.41-6.089,2.061,0" fill="#ff1c26"/><path d="M376.487,139.078h-1.647c-.2-1.906-.033-3.01,1.241-4.124l.406,4.124Z" fill="#ff1c26"/><path d="M378.137,129.772c-.108.144-.543-.05-.809.002-.317-.853.538-5.727,1.639-5.157.206.554-.59,4.834-.83,5.155" fill="#ff1c26"/><polygon points="71.799 816.159 71.795 819.255 69.323 816.665 71.799 816.159" fill="#ff1c26"/><path d="M88.363,564.966c-.802,3.476-4.71,1.516-6.873,2.097-7.886,2.117-17.82,6.637-25.997,9.066-3.798,1.128-6.724-.22-10.768,3.097-3.506,2.875-1.8,4.697,1.394,2.601.451-.296.292-1.856,2.962-2.302l6.987.935c-5.299,1.851-11.727,2.626-16.786,5.174-1.041.523-.821,4.363-2.653,5.032l-4.623-3.548c-.459-12.689,13.968-18.529,22.183-20.886,7.886-2.262,16.802-4.501,24.738-6.328,25.584-5.89,50.588-4.998,76.173-5.171,1.991-.014,4.014,1.374,6.127.934,1.374,1.284-.093,1.883-1.231,2.065-5.166.825-10.857-.81-15.746-.827-5.377-.018-11.193.79-16.526.873-8.275.127-24.544-1.757-31.562,1.931-3.843,2.02-.955,3.935-7.799,5.257.183-.793-.114-2.141.005-3.098-.479-.575-10.632-.431-9.936,4.126.481.5,8.44-.74,9.931-1.028" fill="#ff1c26"/><path d="M100.778,608.392l-5.86,6.849,2.142,5.54,1.379-5.999c3.851-1.747,5.346-.569,8.551,1.902l.916-2.172c5.175.316,12.442,3.214,17.298,3.162,2.229-.024,14.012-4.804,12.872,2.57l-4.569,3.638c-1.225.041-2.376-1.611-3.514-1.844-7.366-1.507-9.045-1.804-16.378-1.807-2.402,0-5.285-1.901-7.415-1.545-2.016.337-2.839,3.942-5.417,3.124l-.825-3.098v4.151s-4.14-.004-4.14-.004l-.408,4.123c-4.934-6.78-3.454-10.749-.459-18.128l5.827-.462Z" fill="#ff1c26"/><path d="M95.81,718.992c-5.538-.725-5.489,4.868,0,4.124v-4.124ZM98.173,712.921l.122,12.262c-4.791.399-7.938,1.047-8.257-6.164l4.105-2.616c-7.198-11.073-7.884.666-5.78,8.776l-5.521-3.535c1.281-4.206-1.826-15.394,4.157-14.119.854.182.732,2.697,1.827,3.034.867.268,3.66-1.403,5.327.155.748-3.228-2.148-1.871-3.097-3.367-.473-.746-.439-2.759-1.037-3.856l4.135,1.019-.833-5.174-2.47,1.051c-2.357-4.925,1.67-7.377,1.669-7.835,0-.921-.83-2.18-.799-3.162.11-3.454.993-6.067-.039-9.684l2.894-1.027-.039,28.98c.358,3.345.65,5.15,3.636,5.262" fill="#ff1c26"/><path d="M156.247,694.173c-1.155.142-1.559-3.936-1.597-4.806-.283-6.493-.019-18.755-.915-24.6-.32-2.088-2.223-3.926-2.144-5.206.176-2.861,1.636-8.903,1.864-11.896.366-4.815-1.458-10.57,1.584-15.53,1.775-.41,3.534,1.487,3.695,3.657-2.701,19.081-2.126,38.965-2.487,58.381" fill="#ff1c26"/><path d="M90.014,607.358c-.455,2.124-2.388.327-3.562,3.377-.709,1.842.419,6.417.184,9.432-.075.955-.46,4.481-1.987,3.71-2.882-1.455-1.122-11.77-2.921-15.488l-1.222,7.24-4.866,2.136-1.475-9.245c-1.418-.389-3.557-.508-3.186-3.234l19.035,2.072Z" fill="#ff1c26"/><path d="M68.493,707.605l4.971,1.048c-2.537,7.291,3.033,6.843,3.304,12.396l-11.064-1.908-2.171,6.043c-.069-4.887-1.052-7.576,3.36-8.893.574-2.524-1.98-16.456,3.241-11.259l-1.641,2.573Z" fill="#ff1c26"/><path d="M143.002,720.041l-.398,2.022-2.07-.589c-1.351,4.17-5.815,6.295-4.558.621l-4.555,3.088.823-4.119c-3.124-.2-6.422-.501-9.513-1.069-1.121-.206-2.585-.466-1.25-2.031,2.358-.26,4.626-1.482,7.062-1.135,1.703.243,3.177,2.171,3.956,1.981.748-.181,1.437-1.935,2.479-1.727.615.123,1.353,1.566,2.062,1.693,2.12.378,3.677-.763,5.962,1.265" fill="#ff1c26"/><path d="M94.99,648.691l-.012,13.442-2.469-2.065c.595,2.483.634,5.049-1.652,6.199l-.096-16.96,4.229-.616Z" fill="#ff1c26"/><path d="M149.632,682.807v31.011c-4.414-2.32-1.121-7.709-.997-11.887.123-4.18-.085-8.561.09-13.329.071-1.937-2.438-6.522.907-5.795" fill="#ff1c26"/><path d="M147.964,716.917c2.223,10.158-.955,19.42-7.44,7.248,4.459-1.157.544,4.315,4.964,3.097l.007-10.349,2.469.004Z" fill="#ff1c26"/><path d="M208.416,639.392c3.066-.762.63,3.051.791,5.631.327,5.266,1.281,9.885.909,15.614-.118,1.813.158,3.992-1.7,4.597v-25.842Z" fill="#ff1c26"/><path d="M129.759,725.201c-.485,2.281-2.232,1.987-3.68,2.112-1.193.104-14.553-.458-14.542-1.608,6.054-.962,12.159-1.453,18.222-.504" fill="#ff1c26"/><path d="M190.201,629.055v1.034h-27.323l.005-1.024c1.876.599,3.941-.98,5.499-.992,1.233-.01,2.111.982,2.362.982h19.457Z" fill="#ff1c26"/><path d="M90.851,638.364l2.893,2.045,1.652-5.146c2.318,5.103.78,8.554-3.313,10.306-1.889-1.708-1.169-4.73-1.232-7.205" fill="#ff1c26"/><path d="M81.739,621.819h-14.903c-.456-4.251,6.519-1.393,8.557-1.415,2.491-.026,6.371-3.523,6.346,1.415" fill="#ff1c26"/><path d="M126.449,630.089l6.25-2.104c4.02.915,7.446,1.834,11.438-.047l1.355,3.175c-1.107.538-1.903-1.024-2.07-1.024h-16.973Z" fill="#ff1c26"/><polygon points="116.513 714.852 120.233 712.685 129.76 714.852 116.513 714.852" fill="#ff1c26"/><path d="M89.187,626.982c.052,2.201.073,4.399-.096,6.604-.08,1.036-.336,4.864-1.548,4.767l-.832-11.36,2.476-.011Z" fill="#ff1c26"/><path d="M149.627,632.162l.822,12.392c-1.128.257-1.257-1.85-1.425-2.843-.389-2.288-.75-5.69-.988-8.099-.202-2.043.18-1.49,1.591-1.45" fill="#ff1c26"/><path d="M36.2,571.156l-7.446,1.041c-.493-4.285,6.471-3.73,7.446-1.041" fill="#ff1c26"/><path d="M124.789,561.875c.227,1.556-2.37,1.395-3.204,1.431-2.662.116-5.601-.875-8.379-.418.266-1.288,4.693-1.943,5.467-1.952,1.978-.022,4.007,1.379,6.116.939" fill="#ff1c26"/><path d="M211.72,721.049l-2.242-5.707c.881-3.03,4.463-3.574,3.461.481-.345,1.398-1.82,2.894-1.219,5.226" fill="#ff1c26"/><polygon points="87.535 686.942 86.046 679.189 87.535 671.437 87.535 686.942" fill="#ff1c26"/><path d="M182.746,603.218c.306,4.842-6.601,2.197-7.447-1.029l7.447,1.029Z" fill="#ff1c26"/><path d="M92.498,668.341l-1.642,8.262c-.537-1.909-1.6-8.541,1.642-8.262" fill="#ff1c26"/><path d="M104.918,562.91c-.086,1.465-3.191,2.395-4.094,2.626-1.678.429-3.296.678-5.005.454.344-1.35,3.908-2.364,4.927-2.619,1.399-.35,2.736-.706,4.172-.461" fill="#ff1c26"/><rect x="86.707" y="649.729" width=".828" height="16.539" fill="#ff1c26"/><path d="M244.846,615.628c-1.009,3.193-4.436,1.859-6.623,2.047,1.009-3.193,4.436-1.86,6.623-2.047" fill="#ff1c26"/><path d="M244.018,701.403l-4.558,2.055-1.233-3.072c1.925.712,4.933-2.254,5.791,1.017" fill="#ff1c26"/><path d="M239.887,614.583l-.004-6.197c3.621-.044,2.608,4.498.004,6.197" fill="#ff1c26"/><path d="M136.38,561.875c-.155,1.971-6.332,2.321-6.615,2.051-.661-3.957,4.807-1.385,6.615-2.051" fill="#ff1c26"/><rect x="234.702" y="634.836" width="2.074" height="4.977" transform="translate(-401.823 872.423) rotate(-89.942)" fill="#ff1c26"/><path d="M216.692,712.79l-1.234,6.192c-2.586-1.213-.142-8.352,1.234-6.192" fill="#ff1c26"/><path d="M234.08,620.801c2.31,3.173-4.579.831-4.964,1.008.295-2.973,4.464-1.695,4.964-1.008" fill="#ff1c26"/><path d="M186.894,605.275v-3.091c4.141-.389,4.141,3.481,0,3.091" fill="#ff1c26"/><path d="M248.986,704.524l.002,5.15-2.481.004c.133-2.007.073-5.934,2.479-5.154" fill="#ff1c26"/><path d="M236.571,593.904v-3.091c3.036.017,3.036,3.074,0,3.091" fill="#ff1c26"/><path d="M80.907,711.756v2.057c-1.526.249-2.411.04-3.303-1.551l3.303-.506Z" fill="#ff1c26"/><path d="M147.971,626.982h-2.476c.014-3.79,2.463-3.79,2.476,0" fill="#ff1c26"/><path d="M92.494,629.055l-2.474-1.046.003-2.05c1.564-.329,2.751,1.21,2.471,3.096" fill="#ff1c26"/><path d="M90.014,612.521c1.251,1.562-2.462,4.406-2.463,1.545,0-.684,1.988-2.138,2.463-1.545" fill="#ff1c26"/><path d="M169.508,724.143v-1.009l2.07-1.019c2.292,2.359.312,3.415-2.07,2.028" fill="#ff1c26"/><polygon points="115.681 715.896 115.679 716.906 112.378 717.948 112.378 715.891 115.681 715.896" fill="#ff1c26"/><path d="M27.098,692.115c-4.25-.89-14.439-1.971-8.62,6.019,3.655-1.343,8.988.602,8.62-6.019M10.529,687.988c3.971-.696,5.678-1.801,4.965-7.247-2.293,2.654-4.44,2.015-7.328,2.197-1.828,2.608.402,4.565.425,5.558.03,1.256-2.752,3.5-2.192,5.677h4.965s-.835-6.185-.835-6.185ZM6.391,670.409c-4.525-.517-4.341,5.373.002,3.083l-.002-3.083ZM53.592,678.669c2.355-5.279-9.873-10.381-10.762-9.294-.272,3.632,2.149,4.267,3.781,6.139,2.46,2.821,1.218,4.285,6.981,3.155M66.836,666.279l6.579,12.975c1.753,1.568,4.798-1.291,3.816-3.674-.813-1.973-9.433-10.402-10.395-9.301M25.435,670.397c-.79-6.669-6.318-3.883-9.026-.527,2.151,2.646.676,4.753,1.093,7.816l7.94.981v-4.125c-.459-.587-6.137,1.394-6.625-2.06l6.618-2.085ZM8.047,669.364c-.013-3.79-2.462-3.79-2.476,0h2.476ZM7.906,661.324c-.658-.501-1.557-.278-2.274-.133l-.895,2.998,4.97,1.036c-.451-.732-1.636-3.776-1.801-3.901M56.068,660.071l-1.642-.004-.837,3.089,2.479.005v-3.09ZM65.19,663.165l1.63-1.549-2.46-2.584.83,4.133ZM25.434,652.826c.265-7.032-6.088-5.601-9.915-4.099,1.046,6.015.508,8.485,5.787,8.813,1.374.085,2.192,1.099,3.296-1.107l-5.771-3.086c2.424-4.474,3.504-1.11,6.603-.521M64.348,649.724c.848-1.072-1.644-4.142-2.475-3.09-.848,1.072,1.643,4.143,2.475,3.09M56.896,644.566h-2.475v2.056h2.475v-2.056ZM49.234,644.845c-.632-.791-2.191-1.613-3.076-.851l-6.636,11.938c1.795.241,4.414-4.052,4.704-4.125,1.211-.308,2.589.306,3.807-.037.485-.137,1.088-3.098,3.077-2.051-.753-1.294-1.142-3.956-1.876-4.874M11.276,643.626l-7.831.869-.357,11.431,6.615-5.685-2.486-.515,1.248-3.079,2.891,2.043-.08-5.064ZM3.088,639.386c.475.593,2.463-.86,2.463-1.545,0-2.861-3.714-.016-2.463,1.545M24.602,632.162h-.811v6.192h.811v-6.192ZM21.305,637.321c.231-2.635-.163-4.977-2.247-6.069l-6.041,1.948.828,7.221,7.453,1.029-3.316-3.597,3.323-.532ZM11.226,628.899c.776-.596,1.355-4.369-.272-4.986-1.908,1.229-6.488,5.354-1.609,5.18.622-.023,1.361.205,1.881-.194M37.857,616.641c-.639-2.628-3.149-2.087-4.963-2.051-.227,1.434.253,2.336,1.325,2.929l3.638-.878ZM64.348,605.286h-2.475v2.057h2.475v-2.057ZM15.496,585.641l-2.094.095-1.203-4.225c-.764,5.044.011,14.567-.847,18.937-.155.791-1.603.658-1.678,1.352-.241,2.223,1.627,7.061,1.699,9.68,3.382-2.889,2.339-6.526.826-10.309l2.461-1.564-1.622-3.119,2.458-.511v-10.336ZM27.338,589.48c1.477,2.131,7.405,3.741,9.705,4.957l-.019,3.602,4.973.016c-3.23,3.696-2.145,5.459-1.65,10.332l2.474-.011-1.652-4.119c2.663-.742,2.436.994,3.726,3.071,3.006-2.347,1.252-4.655,1.245-8.244,3.1-1.76,4.431,2.024,4.705,2.089,1.809.429,5.302,1.068,7.333,1.459,3.545.682,9.476-1.221,11.551,4.721,1.029,2.946-.373,6.583,2.073,9.286l-5.368,1.096-.478-3.032c-2.415-.359-6.49-.904-4.916,2.963l-7.151,2.53c-.39,3.83-.649,10.781,1.576,13.744.79,1.052,2.641.821,2.982,1.482.444.861-.229,2.933.222,3.806.318.616,1.971.489,2.609,1.125.819.815.873,2.558,1.945,2.999,1.783.736,5.461-.135,7.203,1.184.856.648.345,1.98.807,2.748.428.714,1.493.858,1.777,1.42.464.923,1.902,13.098,2.696,16.311,1.245,5.04,4.455,8.986,3.551,15.165-.611,4.17-5.41,9.067-9.054,7.867l-1.305,7.207-3.747.368-2.141,4.634c-3.504-.378-16.104,3.345-13.556-3.988l-4.152-1.066.418-3.096h-6.21s-.088,4.013-.088,4.013l-4.046,1.173c-.465.734,5.326,3.694,2.063,6.185l-1.183-3.715-7.031.554-.552,3.025-6.543,2.203,1.648-5.158c-8.964-4.138-11.857,6.598-2.076,6.188,3.712.451-8.232,13.622-10.339,6.221,10.094-.598.762-4.156,1.595-11.304l-4.075-.071c-.707.815,3.604,9.683-.823,9.299.578-4.91-4.311-11.093-4.837-14.195-.699-4.131,1.878-6.713,1.598-11.16-.124-1.985-1.524-1.39-1.981-2.796-3.569-10.979.779-17.161.241-23.949-.231-2.919-2.893-7.276-3.046-10.583-.14-3.01,1.443-5.631,1.955-8.273.217-1.123-.851-2.638-.191-4.468.274-.762,4.715-10.848,5.043-11.367,1.37-2.171,5.436-3.566,4.113-6.236l-2.895,2.06c.676-5.666,1.107-11.335.853-17.098-.472-10.735-5.552-24.321,3.709-31.469,2.468-.827-.141,7.097,3.708,6.176-2.149-5.647-2.291-18.143,5.016-15.051,4.973,2.105,2.352,9.429,2.609,13.277.105,1.579,2.707,12.918,3.383,13.893" fill="#ff1c26"/><polygon points="315.212 674.531 316.527 689.019 302.806 695.218 300.334 677.143 302.045 675.988 315.212 674.531" fill="#ff1c26"/><path d="M314.39,45.023l-4.959,3.085,4.476.026.483-3.111ZM230.767,43.989c-1.698.032-4.154,4.148-4.96,5.689-.675,1.291-.995,1.943.419,2.565,2.34,1.03,1.598-.091,2.047-1.563.859-2.814,1.807-4.13,2.494-6.691M328.466,41.922h-2.475v2.057h2.475v-2.057ZM246.499,41.911l-.002,2.074,5.805.004v-2.074s-5.803-.004-5.803-.004ZM301.143,40.888c-2.768.48-5.702.685-8.445,1.338-.915.217-3.287.208-3.137,1.746,3.461.45,12.11,4.079,11.582-3.084M319.362,37.792c-2.705,1.228-7.69-3.15-8.275,1.524.431,2.795,7.69,1.881,8.275-1.524M290.379,38.827c-6.862-2.099-13.727-1.104-20.693-1.035,3.261,4.458,10.01.484,14.487,3.09l6.206-2.055ZM249.814,33.657l-4.135.502,2.065,1.61,2.07-2.112ZM306.941,33.659c-2.28-.794-5.673-2.639-5.789,2.05l5.789-2.05ZM319.358,31.574c.589-4.839-8.258-3.496-8.258-1.545,2.028,2.875,5.6,1.138,8.258,1.545M278.793,16.084c-1.544-.105-3.643-.303-4.14,2.047,1.544.106,3.643.304,4.14-2.047M324.036,26.779c2.022,2.299,3.991,5.267,6.279,7.925,2.569,2.986,4.867,6.518,7.688,9.272l1.628-2.071c2.782.875,11.594,13.82,13.41,17.403.942,1.858.922,4.602,1.277,5.125.336.496,2.128.293,3.53,2.311,1.975,2.846,5.89,28.092,4.564,29.953-2.966.43-3.168-4.296-4.391-5.885-3.982-5.174-9.465-9.977-13.771-14.301-5.981-6.008-11.131-10.106-17.117-14.791-6.533-5.113-6.122-3.581-12.77-5.808-3.258-1.092-7.721-5.159-12.219-6.454-5.918-1.704-12.941-1.341-18.586-3.665-1.255-.517-1.994-2.482-2.813-2.696-1.522-.399-2.884,2.388-4.14,2.662-2.5.544-6.875-3.645-9.419-.206-.842,1.138-.444,3.205-1.376,3.621-7.054,3.14-8.686-7.014-17.081-.031-.802.668-1.018,5.22-2.638-.021-1.375-.053-2.759,2.804-5.045,3.126-2.078.293-4.264-1.273-5.561-.873-.991.306-4.688,5.251-6.465,6.444-1.906,1.278-5.827,2.037-7.313,3.272-1.845,1.531-.662,5.245-3.35,4.595-.058-6.324,4.371-14.032,7.469-19.09,2.229-3.641,4.861-9.179,8.564-6.827l1.341-4.054-3.304,1.023c.868-3.696,3.921-2.441,5.781-3.669.312-.206,4.718-5.79,4.147-6.658l-2.882,2.077-.42-2.061c3.301-1.622,6.574-3.86,9.714-5.932,4.319-2.849,10.743-5.378,14.354-8.045.785-.579-.051-2.612.689-3.115,1.167-.794,2.941-.35,4.231-1,5.524-2.784,10.09-5.82,16.552-4.674l-.833-2.04c3.803-1.548,7.528-1.427,11.442-.35,8.731,2.402,21.946,17.677,28.834,25.508" fill="#ff1c26"/><path d="M284.584,113.247h-2.476v2.057h2.476v-2.057ZM225.494,102.379l-.966,5.566,2.212.599.966-5.567-2.212-.598ZM276.183,96.86l-3.181-1.186c-.61.79,2.417,13.277,5.791,11.355-2.265-3.807-2.95-4.972-2.61-10.169M272.802,87.708c.19.133.138,1.555.756,1.74,3.517,1.056,19.484-.473,21.628,3.335l2.647,14.25c-3.575,0-2.266-6.185-4.551-8.242-3.585-.038,2.071,12.053,2.481,13.421.907,3.027,1.238,7.12,2.585,10.21l5.279,9.421c-1.276.188-2.322-.669-3.234-1.637-3.321-3.527-13.267-24.94-14.602-30.351-.513-2.079-.426-4.139-.37-6.261l-4.141.014c-1.195,1.303,6.373,19.737,6.489,22.426.194,4.531-5.865,3.315-8.203.892-.81-.84-8.799-13.745-9.405-15.132-1.353-3.099-1.9-7.772-2.137-11.299-6.419-2.002-2.978,8.747-1.448,12.674,1.348,3.461,6.942,8.379,3.511,12.135-.902.241-6.902-7.289-7.614-8.576-.173-.313-2.627-6.015-2.739-6.368-1.391-4.363.888-9.997-4.12-9.853.795,11.367,4.923,23.833,14.067,27.922l-1.651,4.105c3.693-1.514,6.051.327,9.28,2.412,1.153.745,1.363,2.298,2.149,2.709,1.275.666,3.433.287,4.95.819.709.249,7.045,2.66,4.333,3.907-3.921,1.805-13.822-4.82-18.68-4.747-2.02.03-1.809,4.89-4.513,4.207l.663-7.035c-.752-1.577-9.547-6.53-11.334-8.106-2.908-2.562-7.729-13.627-10.405-13.754-1.265-.059-2.565,1.376-3.748,1.541-3.092.431-7.77-.199-10.4,2.508-2.215,2.279-4.659,10.812-8.661,11.433l2.32,3.587-3.969,5.686,1.657.512-.887,2.545c-2.217.519-2.054.025-2.843-2.009l-2.066,2.065.825-10.338c2.231-.971,1.413,1.617,1.744,1.913.794.712,2.111-.57,2.384-1.411.671-2.07-2.955-1.162-1.634-3.585.049-.09,1.138.207,1.646-.733,1.022-1.889,1.327-4.559,3.303-6.008l-2.486-.516,2.54-3.733-.887-3.495c-1.871-1.739-5.139,7.141-5.81,8.548-.627,1.315-2.918.221-.806,4.877l-4.134-1.027-2.478,6.202-1.373-4.641c.006-2.766,2.777-3.254,3.026-4.357.84-3.72-2.351-9.693,1.644-9.6l1.235,5.153c2.245-2.105,3.201-5.564,5.438-7.679,3.81-3.601,5.815-.609,9.579-2.545,2.518-1.294,5.602-10.539,5.282-1.129,2.458,1.054,2.227-1.647,3.094-2,1.921-.782,6.156-1.46,7.911-.124,4.078,9.296,7.825,21.548,17.138,23.819.372-5.635-5.111-7.105-7.353-9.933-3.486-4.398-4.351-14.811-9.472-14.895-3.139-1.612,2.843-5.677,4.873-6.118,7.161-1.556,13.178,1.917,17.32,1.619.979-.07,2.29-2.824,4.377-1.37" fill="#ff1c26"/><path d="M376.487,113.236l-4.132-1.023c2.758,4.129-3.71,12.653-3.319,5.159-6.819.207-7.458,10.209-10.342,15.515-1.848,3.4-1.924-2.915-1.717-4.205.716-4.468,4.704-10.447,7.5-13.376,3.005-3.148,11.759-11.391,12.01-2.07" fill="#ff1c26"/><path d="M372.347,101.876c2.384,2.403-7.494,3.867-8.333,4.652-.817.764.809,8.985-5.689,1.998-.8-2.775,1.171-2.332,1.329-2.764.168-.459-.484-1.301-.312-1.577.509-.818,2.233-1.225,2.373-3.162l10.632.853Z" fill="#ff1c26"/><path d="M392.218,225.919c.453,4.049-4.879,2.278-6.618,3.093v-3.095s6.618.002,6.618.002Z" fill="#ff1c26"/><polygon points="390.563 243.476 386.431 244.515 386.499 241.524 389.22 240.5 390.563 243.476" fill="#ff1c26"/><polygon points="384.77 232.105 380.637 233.146 380.635 229.02 384.77 232.105" fill="#ff1c26"/><path d="M357.445,118.415l-2.476-.01c-.345-2.417.681-3.714,2.07-5.159l.406,5.169Z" fill="#ff1c26"/><path d="M384.767,222.818l-.004,1.53c-.871,1.623-1.774,1.802-3.3,1.561v-3.091s3.304,0,3.304,0Z" fill="#ff1c26"/><path d="M373.997,151.48c-1.821-.605-1.01-6.928.83-7.228l-.83,7.228Z" fill="#ff1c26"/><polygon points="231.598 87.39 227.948 87.377 227.464 84.302 231.598 87.39" fill="#ff1c26"/><path d="M201.183,111.446c-3.768,4.648-19.05,47.082-22.969,56.603-6.423,15.604-13.211,31.071-19.964,46.461-1.509,4.114,2.829,4.085,3.801,7.259-3.362-.651-5.445-3.63-8.94-4.851-2.712-.948-5.621-1.445-8.448-1.346-.216-1.477.249-2.55.641-3.848,5.962-19.767,22.223-51.238,31.306-70.486,4.152-8.798,12.936-22.514,15.878-30.828,1.826-5.16-.431-10.743,5.201-13.137,7.117-3.026,12.451,6.028,6.557,12.336-.84.9-2.386,1.001-3.063,1.837" fill="#ff1c26"/><path d="M161.714,231.513c.724.569,1.053,2.816,3.28,2.679l2.435-3.105c1.672,1.601,2.807,3.626,1.72,6.272-6.281,3.937-9.768-2.88-14.54-6.274-1.86,4.559,1.342,8,1.699,11.856.419,4.518-6.374,22.09-8.798,26.323-3.288,5.742-7.22,8.266-7.808-.965,4.576,2.95,7.013-.907,6.659-6.602-.013-.214-3.083-1.684-1.693-3.733,1.563-2.305,1.41,2.664,2.472,2.057.462-2.295-1.179-4.011-1.421-5.813-.167-1.241.776-2.807.654-3.831-.105-.884-1.594-.971-2.025-1.798-.687-1.322-.761-2.885-1.71-4.116-1.12-1.453-9.332-4.237-7.078-7.173.538-.699,14.053,5.425,11.592,10.33,2.6.891,2.762-4.457,3.441-5.012,1.039-.85,3.714,1.1,3.183-1.695l-4.144.496c1.905-3.89,3.387-4.201,2.3-9.594-1.419-7.04-9.255-3.23-10.576-10.03,3.839-1.279,6.099,2.595,8.911,3.852,5.141,2.299,6.109,1.681,11.447,5.876" fill="#ff1c26"/><path d="M143.831,216.621c-.171,1.741-5.713,2.5-5.775.506l5.775-.506Z" fill="#ff1c26"/><path d="M165.358,227.976l-1.225-.005c-3.73-4.96,1.524-6.249,1.225.005" fill="#ff1c26"/><polygon points="376.487 99.809 376.487 101.866 372.358 100.824 372.355 99.814 376.487 99.809" fill="#ff1c26"/><path d="M219.176,94.629h-2.476c.013-3.79,2.463-3.79,2.476,0" fill="#ff1c26"/><polygon points="224.138 80.165 224.976 83.254 222.496 83.259 222.496 80.169 224.138 80.165" fill="#ff1c26"/><path d="M271.331,83.257h-.808l-.834-4.122c2.678.005,2.426,1.458,1.642,4.122" fill="#ff1c26"/><path d="M274.649,115.314v3.091c-3.036-.017-3.036-3.074,0-3.091" fill="#ff1c26"/><path d="M379.803,210.419c-.443,2.055-1.763,2.319-3.307,2.052v-2.057l3.307.005Z" fill="#ff1c26"/><path d="M335.917,36.742c-.859,1.059-3.318-2.052-2.475-3.09.858-1.059,3.318,2.052,2.475,3.09" fill="#ff1c26"/><path d="M371.528,216.605c-1.251-1.562,2.462-4.406,2.463-1.545,0,.684-1.988,2.138-2.463,1.545" fill="#ff1c26"/><polygon points="350.821 113.246 350.415 116.337 348.341 113.251 350.821 113.246" fill="#ff1c26"/><rect x="300.324" y="68.797" width="1.647" height="3.091" fill="#ff1c26"/><path d="M340.065,79.135c1.251-1.562,3.529,3.074,1.238,3.075-.549,0-1.713-2.482-1.238-3.075" fill="#ff1c26"/><path d="M324.334,111.179l.004,1.53c1.383,4.438,7.973-1.756-.004-1.53M327.916,108.755c5.743,4.516,10.021,5.346,14.586,11.299,1.232,1.607,3.16.747,2.52,3.521l-1.643,1.024c2.719,1.41,4.712,1.082,7.44.017l-.83,7.231c-2.13-1.483-3.962-1.206-6.134-.087-2.49,4.486,4.49,3.94,5.777,7.324.528,1.388-.623,3.319-.3,5.384.492,3.154,2.477,7.05,5.428,5.667,3.291-1.542-.319-8.361,3.512-7.945-.338,1.995-.078,4.928-.395,6.721-.223,1.26-1.437,1.75-1.727,3.103-.532,2.481,2.297,1.918-3.363,3.546-1.261,1.092.367,6.533-4.435,6.29-.332.587,3.728,11.264-2.501,8.69l-1.237-5.593c-1.232.073-1.954,7.044-4.549,6.176-.256-3.123,1.575-5.276,2.299-7.986,1.806-6.749,3.259-14.425,2.566-22.383-.604-6.933-1.897-3.418-2.792-4.683-1.841-2.604-.329-7.996-3.725-9.392-.512,2.059,1.087,5.016.885,6.569-.1.772-3.919,1.893-2.539,5.814l2.47.533c-1.474.078-3.651,8.791-4.959,6.719.925-9.321-.477-18.7-1.663-27.91-3.582-.764-3.54,2.831-3.313,6.209-2.795.699-1.94-6.187-2.489-8.265-1.189-.197-1.513,2.756-1.585,3.71-.177,2.342-.297,12.335-.025,14.309.678,4.914,4.577,11.058,4.867,16.718.057,1.103-.198,4.568-1.583,4.531.29-5.938-5.966-14.585-6.481-19.353-.289-2.678,1.498-5.103,1.515-8.02.018-2.989-1.587-17.656-2.885-19.169-1.226-1.43-1.049-.765-2.071.538,1.988,3.782,2.031,7.762.795,11.891l-3.728-14.454-2.498,7.708c1.474,3.448-.89,6.379-.818,8.921.147,5.166,4.628,11.424.45,16.962l1.387,1.339c2.885.12,4.634.14,4.398,4.342l3.292-3.098c-.632,5.91,3.4,8.471,4.469,11.341.503,1.352-.216,5.324,1.337,7.251l-2.491-.703c-.266-2.073-1.308-4.557-2.471-6.01-4.385-5.476-9.538-9.841-14.319-14.677-1.533-1.549-3.916-1.438-4.716-4.981-.231-1.522.006-1.838,1.239-1.547,2.451.579,5.001,7.022,7.836,2.608-3.605-4.228-.966-4.674-.859-7.206.024-.56-.969-9.134-1.165-10.92-.588-5.343-2.211-10.317-2.272-15.772-6.843-8.165-2.704,2.37-2.374,6.064.896,9.999-.067,9.821,3.423,19.507.51,1.414,1.123,3.768-.459,3.649-.867-.065-5.251-17.473-7.489-19.574l-2.025-17.618c8.437.386,16.427,9.939,23.811,12.163,3.353,1.01.778-1.053,4.606,1.957" fill="#ff1c26"/><path d="M320.186,140.112l-2.489-.627-1.638-12.806c3.277,2.911,2.505,9.157,4.127,13.433" fill="#ff1c26"/><path d="M340.901,144.255c4.062.266,1.554,3.918-.426,6.179l.426-6.179Z" fill="#ff1c26"/><path d="M334.262,149.426c-1.026,2.724,1.204,8.405-2.477,8.257,1.2-1.954-.455-8.98,2.477-8.257" fill="#ff1c26"/><path d="M273.819,225.926c-7.091-2.254-13.849-2.063-21.097-2.076-1.393-.002-2.881,1.152-4.192,1.099-1.869-.077-7.583-4.977-5.612,1.982,3.624,1.734,7.101-.27,10.619-.077,5.514.303,10.645,1.723,16.566,1.133.962-.095,3.712-.32,3.716-2.061M232.422,217.65c-4.299-.403-1.017,10.654.824,12.399l-.824-12.399ZM287.071,209.364l-2.321.843c-1.252-3.156-3.709-2.426-4.716-7.014l-2.907,5.647,2.489,3.63c-3.544.564-5.509-2.78-8.893-3.874-7.599-2.457-14.565-.22-21.832,2.252-1.443.491-1.447,2.19-2.222,2.573-.889.439-14.235,5.419-11.754,8.353,2.979,1.045,2.723-2.598,4.324-3.442,5.133-2.705,5.392,1.271,7.844,2.205,3.426,1.304,9.668-.505,13.49.198l-3.304-3.08,3.681-.08.905,3.243c7.789-.539,15.306,2.994,23.08,1.911,1.937-.27,4.108-2.268,5.879-2.046,1.805.225,1.606,2.41,2.708,3.127,2.509,1.632,6.154.873,6.797,5.195l-8.279,1.034.799-3.493-2.024-1.683c-2.225.022-13.614,12.044-15.882,12.249-1.63.148-3.62-3.634-8.391-1.186-4.626,2.373-3.169,1.615-8.856,2.403-2.894.401-15.216,3.579-16.605,1.072-.569-4.026-1.225-10.629-5.338-11.414l2.475,15.495-3.297-2.06-2.486,5.166-1.255-6.197c-.658,8.655-4.64,4.259-5.18-.73-.288-2.651,3.644-4.473,3.027-12.085-.226-2.785-.622-10.56-.898-12.225-.061-.372-2.102-6.768-2.337-7.008-2.08-2.117-1.049,5.919-3.292,5.167,1.033-6.595,2.741-8.716-3.318-11.893l1.651-1.024c-2.317-1.63-2.96-2.015-2.473-5.689,7.499.254,4.866,5.395,7.39,8.869.887,1.219,2.172,1.057,3.094,1.817.706.582.549,2.598,2.34,2.841,3.685.502,4.697-6.979,5.97-7.34,1.541-.435,5.345-.739,7.294-.985,6.275-.795,18.719-1.545,24.832-.047,2.505.614,2.197,5.495,5.698,4.062,3.14-1.286-1.443-8.186,2.572-10.231l9.521,15.474Z" fill="#ff1c26"/><path d="M242.358,153.562c-.552-.87-3.778-1.176-3.303,1.529.561,3.195,4.491.345,3.303-1.529M224.972,156.651c.51-.637-.382-4.11-1.238-4.108-3.207.008-.903,6.781,1.238,4.108M234.907,150.464c-2.115.347-4.865-2.444-5.791,1.013,1.396-.525,5.372,1.276,5.791-1.013M246.74,158.458c.09.263,1.925,1.358,2.66,4.385.963,3.972,2.572,13.605-2.061,14.489-1.43-2.965-.56-6.999-1.154-9.342-.594-2.34-4.405-4.744-5.064-8.211-1.985,5.75-5.509,12.758-11.462,10.146-.276-.122-4.061-4.756-4.216-5.066-.583-1.167-.6-4.973-1.709-5.08-2.08-.201-.087,5.656-.422,6.181l-3.189-1.169c.434-8.899-4.22-13.596,3.987-17.993,4.962-2.659,14.962,1.223,19.514,4.666,4.14,3.13,1.9,3.461,3.116,6.994" fill="#ff1c26"/><path d="M273.821,162.864h-3.303v2.054s2.067,1.019,2.067,1.019l1.232-1.544.004-1.529ZM281.281,149.426c-.153,2.58-.202,1.772,1.241,2.037,2.76.507,12.479,1.707,14.762,1.052.371-.106,2.451-5.177,5.52,1.03l-5.785,1.082c-.117,1.807.82,3.3.466,5.168-1.264,6.663-8.89,7.922-13.203,6.032-1.738-.762-1.532-6.703-4.657-6.065l3.304,9.293c-3.224,2.089-7.325-2.72-8.683-2.744-1.533-.029-5.152,4.311-7.872,2.744-1.231-3.616,1.698-4.363,1.687-4.654-.062-1.587-1.53-2.318-1.524-3.927.006-1.578,1.975-7.341,3.083-8.547,3.236-3.521,3.996,1.309,6.259.596,1.934-1.025.4-3.799.521-4.029.833-1.581,10.023-3.942,11.484-.624l-6.603,1.556Z" fill="#ff1c26"/><path d="M337.676,170.997l3.215,1.184c-1.724,3.087,1.506,5.682-1.704,6.823-.167,1.31,1.702,9.942,2.478,11.053.975,1.396,3.86.708,3.359,3.807l-6.486-.812c-2.363,3.378-1.115,8.589-1.906,11.557-.384,1.441-2.24,1.3-2.423,2.384-.243,1.434.841,3.339.323,5.238-.279,1.023-1.45,1.226-1.616,1.644-1.19,2.995-1.81,7.05-4.438,8.938l9.095-41.343-4.018,1.195-.12,3.975c-3.632,1.216.352-6.332-2.067-6.189-.599.036-2.218,4.781-4.55,1.536l7.042-7.753,1.242,2.06c2.915-1.237.794-4.183.851-6.736.134-5.964,1.293-11.997.801-18.065,1.846-.387,1.958.968,2.433,2.642,1.788,6.299-2.303,10.514-1.511,16.862" fill="#ff1c26"/><path d="M212.565,145.287c1.716,2.278,2.235-5.03,2.196-5.892-.196-4.301-3.825-7.928,2.76-7.552-.57,2.982.661,6.186.665,8.792.009,4.986-1.637,11.36-1.91,15.956-.086,1.435,1.483,5.703.412,8.335-6.569-8.681-9.635-23.345-7.437-35.143,3.098-3.522,2.441,13.913,3.314,15.504" fill="#ff1c26"/><path d="M241.522,277.602c-1.405-.043-1.791-.58-1.586,1.456.241,2.394.511,4.93.791,7.322.211,1.805-.433,1.739,1.632,1.55l-.837-10.328ZM243.985,290.005l-4.815-.098c-.898-.729-2.914-13.217-2.667-14.708.185-1.116,2.306-1.161,2.536-2.3.128-.642-3.152-9.878-1.64-12.868,1.418-.341,1.716.389,2.272,1.805,1.725,4.393,6.728,24.998,4.314,28.169" fill="#ff1c26"/><path d="M241.451,250.843l1.756,3.992,1.578-.071c.045-.742.091-1.534.686-1.959,1.723-1.233,14.729.326,17.033,2.039l.552,3.111c-4.493-2.378-8.715,1.859-13.24.011l.82,3.091-7.025-5.215c-.712,2.117-.803,2.47-2.902,2.125l-.061-4.095-2.421-.56,3.224-2.469Z" fill="#ff1c26"/><path d="M312.145,213.808c-.478.359-.746,1.973-1.568,2.705-1.899,1.695-4.808.111-6.946-.424l-.865-3.065c1.722-3.303,14.811-7.58,13.278-1.074-.415,1.762-2.967,1.159-3.899,1.858" fill="#ff1c26"/><path d="M298.667,129.79l-.851,4.461c-1.494,4.342-5.973-6.362-6.662-6.981-1.417-1.274-5.655-.982-4.903-3.161l4.117-4.666c1.965,4.214,3.257,11.229,8.299,10.347" fill="#ff1c26"/><path d="M259.742,260.03l.307,3.125-10.226,13.41-.002-7.232,2.878,1.031.864-2.061-1.261-3.103c1.133-.104,2.46.333,3.531-.051,1.932-.693,1.679-5.688,3.909-5.119" fill="#ff1c26"/><path d="M278.788,278.627c-2.18.493-1.46-.506-2.011-2.081-2.531-7.238-4.58-10.752.777-16.516l1.234,18.597Z" fill="#ff1c26"/><path d="M231.599,257.959c.819-.087,1.666.081,2.485.006l.003-5.17c2.287-.402,2.502,2.769,3.158,4.708-5.645,3.386.131,8.815-2.343,14.929-1.208,1.616-1.483-.147-1.635-1.543-.284-2.612.025-5.877-.267-8.521-.174-1.568-1.231-2.741-1.401-4.409-.742.079-1.552-.369-2.238.295l-8.525,11.065,10.349-18.575c1.872,1.827.122,4.347.414,7.215" fill="#ff1c26"/><path d="M306.943,159.758c-.422-.766-4.857-6.124-2.076-6.177.694-.013,9.165,6.797,7.868,8.239-1.882-.08-4.066-1.162-5.792-2.062.447.811.128,2.731,2.479,3.628,1.52,3.326-4.965-.45-5.757-1.085l-4.997-6.672c3.262-.372,5.233,2.542,8.275,4.129" fill="#ff1c26"/><path d="M286.961,281.599l-4.026,2.195c1.2-4.465-.57-8.914-.827-13.425,1.535-2.171,5.088,9.765,4.853,11.23" fill="#ff1c26"/><path d="M277.132,192.83c-1.516,1.845-7.17-1.802-8.949-2.816-1.182-.673-2.251.603-1.806-2.341,1.263-1.806,13.109,2.292,10.755,5.157" fill="#ff1c26"/><path d="M227.231,251.537l-7.638,11.569c-1.654-1.548-1.092-1.612-.267-3.408,1.77-3.852,6.01-7.21,6.487-12.074l1.686,2.618-.268,1.295Z" fill="#ff1c26"/><path d="M234.907,130.809l-10.755-.506c2.514-4.219,6.976-3.263,10.351-2.613l.404,3.119Z" fill="#ff1c26"/><path d="M243.172,259.003c2.768,4.708,4.382,10.528,4.982,16.523-1.789.812-2.642-2.786-2.908-4.096-.481-2.372-.087-4.816-.537-6.615-.19-.758-6.249-5.672-1.537-5.812" fill="#ff1c26"/><path d="M298.647,245.563c2.055,4.405,1.836,8.447,1.664,13.429-1.485-.32-1.419-2.094-1.77-3.466-.261-1.022-2.808-13.052.106-9.963" fill="#ff1c26"/><path d="M330.962,171.127c-.11-1.938,1.188-3.435.733-5.467-.558-2.488-2.989-1.852-3.221-3.825l4.877,1.687c.625,2.339-.346,6.638-2.389,7.605" fill="#ff1c26"/><path d="M282.919,269.326c-2.187.246-1.359.088-1.618-1.57-.463-2.958-1.027-6.683,1.221-8.758-.637,4.314,2.147,6.11.397,10.328" fill="#ff1c26"/><path d="M269.695,275.529c-1.084-3.061-.746-7.247,1.638-9.296-.255,2.926,1.106,7.762-1.638,9.296" fill="#ff1c26"/><path d="M272.988,286.902c-1.911.309-4.896-7.329-2.061-7.215,1.127.045,2.522,5.58,2.061,7.215" fill="#ff1c26"/><path d="M276.301,283.795c-1.211-.515-4.059-6.146-3.299-7.225,2.835-.151,3.147,4.717,3.299,7.225" fill="#ff1c26"/><path d="M226.627,234.178h-4.132c-.073-4.242,4.205-4.242,4.132,0" fill="#ff1c26"/><path d="M293.687,249.687l.829,5.17c-2.605-.992-2.845-1.697-2.472-5.163l1.643-.007Z" fill="#ff1c26"/><path d="M221.667,242.447c.603-1.495.134-5.855,1.644-6.19l.461,4.096-2.105,2.094Z" fill="#ff1c26"/><path d="M260.495,272.328c-1.111,2.24-6.529,1.135-.328-2.994.749.079.522,2.604.328,2.994" fill="#ff1c26"/><path d="M329.294,165.965c.214,1.928.003,3.576-1.643,4.129l-.004-4.129h1.647Z" fill="#ff1c26"/><polygon points="219.188 140.116 218.369 137.532 219.593 136.003 220.831 138.551 219.188 140.116" fill="#ff1c26"/><polygon points="243.187 243.493 242.352 247.614 241.543 247.616 241.539 243.492 243.187 243.493" fill="#ff1c26"/><rect x="328.475" y="200.076" width="1.647" height="3.091" fill="#ff1c26"/><path d="M278.032,344.701l-3.242-9.904-7.585-13.777c4.446-.916,6.927,5.995,8.943,10.015,1.367,2.727,2.965,10.629,5.504,9.658,1.313-.503,13.453-24.846,17.003-26.914.29,1.745-.716,2.725-1.316,4.032-2.242,4.889-10.39,20.325-13.258,23.761-1.615,1.934-3.666,3.851-6.049,3.129" fill="#ff1c26"/><path d="M350.571,244.228l-22.924,24.063c-.945-4.773,1.83-4.56,3.347-6.664,5.38-7.462,11.632-13.877,16.491-21.805l3.804,1.564-.718,2.842Z" fill="#ff1c26"/><path d="M321.854,276.565c-.09-3.148,1.986-5.253,4.124-6.201.881,1.19-3.165,5.803-4.124,6.201" fill="#ff1c26"/><polygon points="320.383 276.816 321.645 278.392 318.342 282.516 317.08 280.94 320.383 276.816" fill="#ff1c26"/><polygon points="340.053 242.453 338.409 240.887 339.651 238.323 340.053 242.453" fill="#ff1c26"/><path d="M338.403,1124.203l-24.003-4.139c-.402,2.977.521,1.707,1.914,2.203,6.536,2.329,13.632,1.907,20.084,4.986l2.005-3.05ZM308.686,1095.194l-.095-6.144c-.099-.168-2.555,1.511-2.931,2.017-2.862,3.849-3.12,21.107-4.504,26.926l6.6-3.615c-.654-.771-1.581-1.659-1.507-2.919.034-.578,2.332-9.499,2.744-11.063.703-2.667,4.609-5.456-.307-5.202M321.014,1088.022l-6.614,1.04c-.17,1.851,1.412.436,2.544,1.709.369.415,1.557,3.22,1.608,3.944l-4.153,2.594c4.151.074,9.453.047,13.455,1.304,3.486,1.094,3.605,3.64,6.407,4.904.619-8.745-14.608-5.536-14.688-10.831l1.441-4.664ZM391.394,782.053l-4.135-.005v2.056c1.578.151,3.632.283,4.135-2.051M349.16,722.088c.062-1.853-.92-5.589-2.467-6.197-.086,2.32.583,5.289,2.467,6.197M253.949,691.072l-1.237-8.243c-2.353,2.914-2.91,7.814,1.237,8.243M258.089,677.644l-2.486,1.572,3.72,12.885c4.502-6.617-2.473-8.585-1.234-14.457M270.797,656.614c-.67-.854-3.75-8.769-5.247-6.879,3,10.124,12.208,19.345,20.228,22.802,2.592,1.117,12.476,2.275,13.31,4.06,1.951,4.357-.037,24.578,3.361,25.826l14.429-9.84c2.184,1.763,1.391,5.169,2.216,7.616,4.018,11.916,10.174,23.875,18.718,31.421,2.096,1.85,4.641,4.437,7.217,4.93-10.051-9.35-19.009-21.428-23.338-36.493-.667-2.318-2.458-8.014-.701-9.567,11.285-.757,19.035,11.312,24.457,22.29,1.02-.424.254-2.152-.059-3.027-4.344-12.159-15.567-24.138-26.811-21.834l-.875-16.488-16.053,2.017-2.141-3.042c-.298,3.174-1.241,3.265-3.531,2.905-6.714-1.056-20.397-10.606-25.18-16.697M255.598,649.734c-1.354-1.542-3.069,3.569-3.175,4.466l4.011,5.861-.836-10.327ZM256.434,647.656l-1.643-11.358c.118,4.064-3.849,12.241,1.643,11.358M285.186,636.591c-2.448-2.454-11.441-5.423-14.669-3.923,3.006,1.783,5.721,2.544,8.828,4.484,6.135,3.832,12.089,10.607,15.222,18.208,1.719,4.169,2.225,10.498,4.916,14.01-1.204-6.429-3.019-14.672-5.615-20.372-1.266-2.781-6.746-10.467-8.682-12.407M255.605,625.96h-1.648s.835,4.122.835,4.122l.809.002.004-4.124ZM253.122,620.791l-1.226.006c-1.3,1.087-1.443,2.214-1.25,4.118l2.476.003v-4.127ZM223.315,616.657h-1.647c-.2,1.905-.032,3.01,1.241,4.124l.406-4.124ZM261.401,615.623c-2.552-.504-1.316.826-1.622,2.584-1.172,6.732-1.417,15.533-.845,22.216,1.226,1.48,1.495-.105,1.637-1.539.815-8.197-.274-15.268.83-23.261M217.528,623.882c3.839.746,2.843-10.222,1.238-10.311-1.603-.089-.177,8.772-1.238,10.311M209.242,613.544c2.645.221,4.981.475,6.609-2.578-1.614-2.581-4.389-1.356-6.61-1.543v4.121ZM223.312,613.544c.847-.928.453-4.836-.824-5.765l-3.307.615c.669.622,2.806,6.602,4.131,5.15M256.434,599.074l-3.308.015c1.401,3.414,2.95,6.445,1.658,10.319,3.384.502.955-8.086,1.65-10.334M249.622,598.296l-1.263,1.576,3.304,4.124,1.262-1.576-3.303-4.124ZM228.881,571.505c-1.289-.724-2.574-.284-3.906-.326-.819.714,6.212,4.407,7.448,4.119.525-3.287-1.458-1.522-3.074-2.385-.246-.131-.251-1.286-.468-1.408M217.705,568.374l-.266,1.744,6.472,1.539.266-1.745-6.472-1.538ZM235.738,562.91l-8.275,1.012c2.59-1.175,6.946,2.739,8.275-1.012M214.823,491.756c-9.943,2.561.901,22.325,5.544,13.183,3.355-6.606,1.444-14.983-5.544-13.183M252.293,452.305l-5.787-1.039c-1.141,3.245,5.64,2.741,5.787,1.039M372.347,440.935l-9.931-1.035,3.768,3.049,6.163-2.014ZM357.442,438.869c-7.147-1.589-14.17-3.961-21.516-3.109-2.951,2.8,7.069,1.967,7.85,2.075,3.475.481,7.285,1.841,10.749,2.095.903.067,3.14.664,2.917-1.061M329.479,437.525c1.523,1.028,2.689-.463,3.552-1.771l-.944-1.932-19.247-2.613c-1.173.983-7.583-1.425-7.536.928.024,1.241,7.935,2.971,9.069,3.129,4.254.595,10.352-.604,14.371.502.613.168.583,1.654.735,1.757M301.147,429.563c-6.114-1.114-11.736.581-11.583,9.293,3.478-3.398,3.176-9.948,8.573-5.264l3.01-4.029ZM273.947,395.307c-.136-.17.4-2.314-.761-4.709-1.619-3.339-12.292-22.235-14.025-22.878-1.116-.414-2.58-.494-3.574.303-2.674,2.143.895,2.903.89,3.182-.023,1.067-1.063,2.368-.761,3.879.065.326,1.809,5.591,1.958,5.872.523.987,3.004.627,2.067,3.62-1.128,3.601-3.932-.114-5.409-.459-3.791-.887-9.556.944-12.743,3.639-.69.584-6.512,6.693-6.781,7.133-1.028,1.681.13,3.07-.058,3.5-.098.227-3.976,2.055-2.319,4.282,1.248,1.678,2.584-3.205,2.882-3.104,6.362,2.157-1.506,5.964-1.849,6.474-.901,1.341-4.086,11.971-3.111,14.203l4.553-7.225-2.489,11.352c-3.901-1.28-4.51,2.025-6.672,3.556-2.139,1.515-6.094.507-5.733,3.687,4.601,1.549,6.786-2.732,10.756-3.089-.407,2.835-1.019,5.818,1.651,7.229-.741-4.5.966-8.807,4.549-10.332,3.865.991-3.726,9.23-4.109,10.349-2.132,6.244.741,10.608,4.955,13.415l.412-4.136c2.701.271,6.823.644,9.36-.015.459-.119,4.643-7.785,3.061,2.086.447.577,4.346-1.857,5.54-1.822,1.202.035,1.9,1.604,3.1,1.718,1.501.142,3.705-2.46,4.602,1.132l-3.307,1.033,19.623-.741c1.621-1.132,2.81-2.717,3.727-4.719.528-1.152,4.598-13.159,4.68-13.907.262-2.393-1.482-4.096-2.348-5.953,1.971-2.189,4.739.754,4.112-4.646l-3.315,1.536c-.462-6.757,7.526-13.662,1.059-17.842-2.133-1.378-13.627-6.922-14.173-7.603M250.228,354.113c-1.287,1.891-4.49,3.63-1.644,6.177,1.945.435,4.315-4.561,1.644-6.177M388.084,345.834c-5.974-2.621-8.71.25-12.42,5.675l-15.728,35.656c2.003.38,2.993-.776,4.131-2.585,3.837-6.099,7.277-17.697,10.916-24.618,1.178-2.241,5.554-9.596,6.913-11.05,1.949-2.085,6.382,1.777,6.188-3.078M201.792,336.509l-4.621-6.02-14.415,2.943,9.596,4.028,9.44-.951ZM219.167,317.917c-2.368-.729-1.842,4.023-2.658,6.486-2.443,7.374-3.894,12.639-7.124,18.965-1.993,3.903-3.272,6.886-2.616,11.758,2.859-2.379,3.716-7.348,5.787-10.854,2.596-4.396,6.839-9.669,9.987-13.609l-3.376-12.746ZM241.53,326.178c1.223-1.908-7.707-16.205-9.099-14.461l6.968,12.509c-.056,1.449,1.489,2.952,2.131,1.952M398.167,271.277l-.486,2.054,3.161,1.166.486-2.054-3.161-1.166ZM128.096,275.527c.053-2.265.46-5.401-1.64-6.196l.829,6.196h.811ZM388.907,257.954c-.267-5.626-6.221-2.017-9.098-1.539-2.719,4.526.461,3.021,1.575,4.172,1.091,1.127,1.393,2.999,2.58,4.064,1.76,1.578,8.872,6.441,10.65,4.555.946-3.532,1.74-9.146-1.993-10.192-2.889-.809.348,5.301-.402,6.175l-9.109-3.101.815-3.633,4.982-.501ZM341.717,206.274c3.714-2.517,7.321-11.949,4.783-16.309-.398-.684-2.22-.821-3.098-1.8-3.509-3.912-.994-11.665,1.181-7.652l.952,3.086c1.764-.289,3.913.364,5.564-.084.61-.166.667-3.278,3.006-2.03l1.269,8.245c2.739-2.619-.009-6.135.777-9.29.544-1.303,9.172-6.153,10.982-8.587,1.805-2.425,4.224-9.685,5.847-12.832.521-1.01-.09-1.843,1.847-1.332,1.32,7.544,3.209,16.406,5.644,23.46.995,2.885,7.02,14.903,6.787,16.317-.494,2.986-4.014-.263-5.383,1.524-2.082,2.718.061,6.464-.424,7.284-1.198-.48-2.183-2.052-3.594-1.866-.344.046-6.088,3.121-6.358,3.39-1.081,1.074-.482,2.994-.875,3.87-.899,2.002-2.473.462-.764,5.976l-3.289-2.061c-1.019,3.904-3.206,6.384-5.811,8.264.619-3.01,1.224-6.183,1.702-9.238.591-.755,4.995,1.269,4.085-1.599l-9.514-19.122c-3.235,2.972-1.949,6.266-2.815,9.811-2.135,8.737-8.155,7.643-13.399,11.528l-2.474,13.119,5.032,7.364-2.076,1.604-.477-1.972-1.572-.113c.117,2.24-2.014,2.692-2.481,3.898-1.293,3.338-1.07,10.293-2.112,12.601-1.449,3.206-10.023,9.733-11.207,11.857-.903,1.621-.637,4.482-1.57,5.294-.871.757-2.86.095-3.257.559-.255.299-.147,3.706-.886,5.361-1.112,2.49-11.083,11.99-13.355,13.56-1.82,1.258-4.226.866-6.161,2.645-1.931,1.775-1.895,4.547-3.216,6.323-1.313,1.766-3.146,1.783-4.235,3.021-1.066,1.211-3.006,5.486-4.451,5.77-1.453.286-2.658-.745-3.762-.579-1.33.2-2.202,1.962-3.351,2.011-2.487.106-5.687-4.062-9.096,1.861-3.608-4.864-2.727,3.052-6.057.768l-.597-2.583c-3.059,2.043-5.872-1.053-8.924,1.218-1.535,1.141-1.673,3.144-2.599,3.995-1.365,1.254-3.245.708-4.662,2.448-1.558,1.913-2.488,7.14-2.418,9.892,1.724-.847,1.666-3.399,2.852-5.215,5.882-9.002,13.129,1.819,16.992,7.822,5.032,7.818,9.391,18.367,15.306,25.34,1.184,1.395,1.833,2.48,3.744,2.029.989-4.646,4.005-10.26,6.296-14.376,16.701-29.996,34.564-63.728,55.365-89.034,2.074-2.524,4.879-4.209,6.701-7.165,1.424-.396,4.294,7.391,5.771,4.133,2.747-6.06-4.191-6.244-3.808-10.865.039-2.507,2.846-2.566,3.302-4.322.59-2.279-1.58-5.199-.382-7.592.846-1.632,2.867-1.408,3.766-2.057-.451,2.193-.624,3.599-1.664,5.661l4.156,3.15c-1.982,3.566-2.05,6.376.41,9.79l1.664-4.12,1.652,3.104,3.304-3.094,1.782,3.163c3.699-1.261,8.079-2.515,11.049,1.482-.192,4.734-4.678.427-5.729,1.62-.155,1.298-.243,3.459-1.31,4.049-3.269,1.809-1.07-2.049-1.571-3.09-.86-1.79-9.019-2.389-9.502-1.963-.161.142-1.55,4.312-1.533,4.559.058.836,1.444,1.62,1.807,2.647.483,1.365.152,3.013.999,4.145.261.349,6.102,5.165,6.477,5.074,2.782-3.714-1.544-7.291-4.537-7.246,3.556-6.713,3.713-1.357,5.525-.206.81.514,5.759,1.632,6.06,1.254l.008-6.199c2.672-.702,2.549,1.205,3.785,3.176l4.475-2.142c.098,3.751,2.826,3.562,4.547,5.191,1.626,1.539,4.636,5.418,5.768,6.237,1.929,1.397,4.001.311,5.414,2.52l-3.289,4.648,4.129-1.025c2.069,9.81-6.099,8.497-9.013,15.817,4.373,9.357,8.835,17.454,11.74,27.816,4.989,17.803,5.108,36.396,8.413,54.618,2.813,15.509,8.855,30.477,9.422,46.294l-4.89,2.877,1.746,21.524c-2.714,11.768-2.396,34.777-8.425,44.359-7.877,12.52-35.662,7.758-47.112,9.407-1.508,1.214.734,11.766.858,14.528.52,11.589-1.061,21.335-7.424,29.99l-.034,35.943c9.383,7.942,12.099,19.926,15.933,32.025,10.07,31.782,7.319,41.159,8.886,73.668.702,14.543,3.845,30.976,5.725,45.572,3.077,23.879,2.544,36.461,14.645,57.175,4.538,7.768,13.25,17.575,16.923,25.393,2.026,4.31,1.876,9.015-2.912,8.828-2.46-.096-6.541-2.744-9.936-3.13-7.873-.894-17.884.267-25.602-1.114-5.193-.929-10.433-6.068-15.185-7.918-1.817-.707-15.347-4.114-15.912-3.395-1.117,16.667-3.992,32.237-3.348,49.149.832,21.814,5.825,51.733,13.123,71.48,4.661,12.609,9.436,12.288,7.538,29.689-1.137,10.432-10.013,15.899-10.524,20.994-.191,1.901.715,3.884.7,5.931-.24,32.644-5.197,68.886-2.436,101.235.548,6.42,3.007,13.954,3.226,20.782l1.84,2.87c37.542,9.24,83.83,16.892,113.635,49.362,14.659,15.971,20.563,29.443,18.646,54.23-1.425,18.43-9.459,25.831-21.265,34.439-25.712,18.748-55.898,26.858-85.079,32.3-80.368,14.988-187.096,12.304-263.981-24.055-4.425-2.092-11.335-7.364-15.263-8.888-2.406-.934-4.533.814-6.852.837l1.675-2.577c-.026-2.265-11.574-10.403-14.105-13.729-9.123-11.991-9.41-25.153-8.303-41.097,2.067-29.747,34.271-52.853,54.47-62.24,12.182-5.661,24.949-8.977,37.487-13.152,1.013-10.369,7.609-30.384,16.7-32.937,11.138-3.128-1.623,23.872,4.444,29.167,11.005-2.921,22.44-4.627,33.473-5.052l-.386-4.172,1.625-1.818c3.605,2.734,7.754,5.072,12.008,4.985l-.389,2.045c2.5,4.115,11.803-7.936,12.806-10.868.583-1.706-1.108-2.113-1.633-1.529-.104.115-.378,2.025-1.206,3.114-3.657,4.814-4.609,7.258-10.406,5.141l.469-6.179-6.243-3.635c.027-1.201,4.694-4.925,5.486-6.051,4.209-5.989,3.379-13.033,11.361-7.816l3.82-5.773-4.949-3.096c9.821-6.1,6.824-15.081,5.801-25.86-1.592-16.788-6.31-33.106-11.261-48.995-.532-1.705-8.707-19.517-9.398-20.312-4.107-4.73-21.108-3.139-26.501-9.295-6.038-6.891-.049-17.555.714-24.844,1.035-9.881-.602-17.069,3.14-27.053.451-1.204,1.78-1.235,1.905-1.996.655-3.965-1.743-5.75-2.544-9.042-2.451-10.075-.668-20.793-2.634-30.822-1.263-6.438-5.32-13.489-7.391-19.717-8.464-25.445-16.553-51.091-19.874-78.557-3.536-2.898-7.764-4.418-11.01-7.961-1.164-1.271-8.68-11.427-9.569-12.862-1.764-2.845-2.315-9.347-2.479-12.927l-7.345-2.205,1.147-2.984c2.857,6.409,4.373,2.626,4.56-3.103l-8.275,1.018c1.415-3.538,4.09-3.173,6.617-2.06l-.946-10.698-1.121-1.361-2.063.706-.829-6.21c5.766.403,5.258,7.854,5.383,13.481,4.388,4.234,9.751.801,14.067.901,2.898.067,16.679,2.352,17.801,1.111.355-.964-.733-3.096-1.237-3.096h-27.737c-.631-4.071,3.606-1.105,5.388-1.041,7.076.254,16.309-1.782,22.406-1.098,3.241.364,5.717,2.97,9.085,3.188,2.746.177,5.446-1.387,7.401-1.111,2.814.398,1.536,4.878,3.725,6.784-2.268,3.987-3.103-1.499-5.346-1.542-1.25-.024-2.684,1.766-4.221,2.038-2.198.389-3.984-.845-5.632-.694-5.372.492-8.003,5.824-16.48,2.554-2.091-.806-4.215-5.661-8.044-3.902l.828,4.121-4.139-.506,2.476-3.617c-2.144-.473-3.109.536-3.325,3.096l-3.29-3.096-.621,7.793c.152,1.083,1.093,1.387,1.872,1.533,3.558.663,11.68-1.825,15.759-2.137,12.786-.981,26.081-.072,38.375-4.595.783-.288,2.338.781,2.56.51l.845-11.885c-.066-.88-8.173,1.212-7.461-3.616l3.737-2.082c1.307,3.662,10.39,5.247,7.854-1.032h11.592c-1.705,3.245-.111,5.795-.105,9.135-5.209,2.594-8.821,6.811-14.798,5.347,2.328,4.929,6.229.711,8.756.07,1.424-.362,2.944-.017,4.535-.542,6.32-2.087,12.708-6.372,19.242-8.021l1.307-1.467.113-5.561-3.326.004c-.9-3.483,1.62-5.967,1.752-8.807.088-1.892-1.454-1.32-1.987-2.796-1.85-5.117-.672-7.211.234-12.17l-3.3,2.062,1.669-3.65c1.796-.94,4.889,2.455,6.59-.996l-5.776-1.556.812-3.666,4.157-.97-4.2-.976-.782-27.995c.524-3.355,4.857-2.584,2.485-8.764l-1.309,2.157-3.647-1.145c-.467-4.493,4.859-1.056,5.369-5.048.554-4.325-2.689-2.668-2.943-3.784l-.061-10.13c-.633-2.402-3.233-1.65-4.849-1.702,1.94-5.11.564-7.249-.026-12.373-.853-1.04-10.295,3.542-11.581,4.611-2.143,1.779,1.58,2.453,1.669,2.623-2.754,2.529-.039,5.904-1.192,8.265-1.615,1.889-3.94,1.921-5.779,3.208-.951.665-1.079,2.732-1.895,2.99-1.467.464-3.6-.309-5.208-.005l.836,3.082-2.962.962-1.605,9.379-2.062-4.123c-.475,5.412,3.27,7.502,2.473,12.398l-2.361.646-.681,10.253,2.216,1.5.833-10.331v43.415c-2.517-1.334,1.292-10.194-2.481-9.308-1.358,7.031.495,13.155-.847,19.955l-2.465.716c1.882-3.575-.995-26.742,2.067-26.851l2.906,1.523-4.197-3.158c-.561-5.598.68-12.093.615-17.37-.04-3.205-.469-7.437-.536-11.492-.083-5.045-1.394-10.004.086-14.882,2.52-.038,3.027.311,4.027-2.72-3.03-.852-5.477-8.304-7.316-4.009l.685,4.534-11.587-.004c1.589-4.316,11.595.718,7.042-7.202-2.377,1.654-5.84,2.991-8.475,3.873-1.534.513-3.36-.158-4.682.386-1.187.489-1.081,2.876-1.871,3.036-.912.184-2.694-1.076-4.027-1.117-7.49-.226-14.898-.499-22.371-1.048-1.912.431-2.8,4.832-5.814,5.157-5.59.603-6.841-5.599-6.163-11.339,2.077-.495,2.706,3.189,4.563,3.168,1.28-.015,3.334-5.253,6.19-4.203.689,3.372-2.47,1.408-3.303,3.619-2.304,6.115,4.844-.546,5.204-.739,3.89-2.084,19.45-6.21,23.403-6.047,1.866.076,2.446,1.845,4.501,1.726,2.583-.15,4.364-2.169,6.26-2.643,2.6-.65,7.704,1.859,7.818-3.15-3.722.4-7.412,1.345-11.09,2.155-6.682,1.472-16.049.157-24.08.958-2.017.201-6.054,2.123-7.373,1.807-1.433-.344-1.886-3.453-3.812-2.856l-.844,5.164c-4.143-4.339-8.892-4.514-14.061-4.128,1.647,4.775,1.417,9.045-2.89,11.36l-2.894-6.716,3.245-1.626.057-3.019c-3.331,1.042-5.755-1.682-8.674-2.103-9.952-1.435-20.631,2.446-30.241-2.047l7.067-1.065c25.361,1.784,54.244,5.19,79.454.049.968-.198,1.478-.558,2.046-1.551l-1.668-6.683c-.257-.31-5.366-.019-6.638-.354-1.48-.388-1.269-1.261-.778-1.75l4.508.068.569-2.965c3.312-1.902,6.287-.039,9.407-.114,3.736-.089,11.772-3.812,12.011,4.037l1.657-.532.425-3.603c1.699-.429,3.825,3.144,7.289,2.057.628-.197.526-1.939,1.101-2.086,2.437-.622,4.518,2.503,6.41,2.16.274-.05,1.346-3.91,4.636-2.123.459,2.849-.608,1.764-1.679,2.499-8.334,5.718-21.088,4.759-30.224,6.756-3.018.659-5.319-1.837-6.179,3.133,2.475.665,4.821-.891,7.081-1.056,8.297-.606,16.965-1.7,25.383-4.402,4.733-1.518,18.415-6.394,19.58-12.883.289-1.613-1.876-7.285-3.207-4.891l1.676,4.091-2.911,2.587c-2.297-1.398.008-4.184-.471-4.998-.781-1.326-5.911-3.886-7.343-4.898-4.399-3.112-3.485-2.2-8.485-3.734-2.988-.917-22.259-6.654-23.023-8.068l2.055-2.826c2.78,2.92,7.135,5.649,4.437-1.133l-43.75-7.406c-.26-.323,1.072-2.057,1.241-2.057h14.904l1.131-1.731c-1.557-3.228,1.877-6.463,1.679-7.939-.107-.795-5.089-7.79-6.043-10.069-6.34-15.155-6.287-62.306-3.433-79.548,1.477-8.922,4.758-20.346,7.508-28.873,1.218-3.778,9.585-23.831,9.379-25.197-.224-1.488-2.125-3.114-3.396-2.584-12.075,7.151-24.99,15.458-37.863,20.024-25.585,9.075-36.35,5.452-45.563-26.871-8.718-30.581-4.222-53.371-4.911-83.714-.161-7.116-5.593-15.586-.857-24.322,1.97-.573,1.333.439,1.832,1.344,5.153,9.355,9.478,12.346,18.809,9.962.566-12.704,1.829-22.914,6.706-34.24.533-1.237,2.062-1.334,2.276-2.475.193-1.028-.841-2.3-.274-3.545,1.415-3.107,4.194,1.433,5.788,1.624,1.532.184,6.476-2.264,7.075-1.608l-.775,3.453c1.945,2.336,3.987,2.624,3.255,6.869l-3.291-3.088c-.429,4.073-3.945,6.445-5.166,9.585-.318.817-2.667,9.408-2.731,9.98-.166,1.491,1.955,7.494,2.114,10.884.23,4.932-1.304,8.334-1.325,11.404-.025,3.546,9.447,30.082,11.663,32.542.824.914,1.238,1.362,2.459,1.077,2.87-3.654,1.386-9.014,2.243-12.734,1.709-7.419,29.391-20.704,35.993-25.354,7.972-5.615,14.91-13.069,22.25-19.825l.257-2.323c-9.549-28.495-17.716-57.639-25.732-86.855-1.266-2.684-4.094-3.145-5.623-5.383-8.099-11.853,14.718-19.597,14.972-6.199.05,2.663-1.41,5.058-.523,7.72l32.049,95.48,3.183,3.768c-2.069-4.784-3.081-12.864,2.479-13.476l.032-2.55c-3.547-.947-.696-6.29,1.629-7.748.736,7.201-2.273,13.095-1.665,20.185l3.325,9.786c-2.519.121-1.311-2.644-4.557-3.096-1.37-.191-1.343-.1-1.265,1.571.222,4.76,4.404,18.183,9.966,15.992l-4.192-3.729.044-8.671,3.325.002c-.426-5.441-4.997-11.034-1.247-16.514l1.338,11.745c1.311,3.475.961,7.192,4.782,5.648l.622-2.979,5.155-1.134c.17-3.949.661-8.246,3.01-11.229,1.452,3.015,1.087,9.557.386,12.722-.223,1.008-2.164.341-1.625,2.245.802,2.832,2.766-.25,3.961-.707.59-3.312-.858-5.536-.33-9.121.386-2.618,3.513-12.464,6.294-9.8-2.047,3.268-4.524,7.004-4.204,11.379.176,2.407,2.467,9.074,5.031,8.778,1.034-1.452-5.069-13.302.781-11.406.465-5.332,4.175-10.562,6.265-15.46.992,3.198-2.219,6.554-3.217,9.414-2.8,8.025.026,10.604-1.336,18.485,6.994.484,4.298-5.56,4.14-11.36,2.524-.574,1.264.965,1.724,2.44.586,1.882,1.161,3.879,1.593,5.822,3.027-1.237.435-4.082,1.227-6.194l5.855,3.027c.971,1.723-.66,6.06,1.585,5.221,2.291-2.725,5.742-2.581,8.191-4.25,2.585-1.76,5.435-5.769,7.143-8.139-.186.354-2.638,1.545-3.303,2.067-1.392-3.127.988-5.497.845-7.663-.419-6.362-9.553-16.851-2.092-23.342.301,6.165.705,11.935,2.907,17.563,3.682.891-1.249-7.889,3.294-7.226,1.211,4.333-1.185,7.864-1.54,10.805-.17,1.413,1.031,5.618-.111,7.796,1.778-2.467,3.931-4.115,4.151-8.267,3.587-.343,2.282,5.834,5.495,5.934,5.935.185,6.087-12.18,6.076-17.302-1.166-.244-1.207,1.827-1.413,2.862-.811,4.07-.179,9.246-4.365,10.571.212-1.992-1.426-11.294-2.906-11.35-2.48,1.582.313,6.987-2.894,6.187l-1.656-12.409,3.305.007-.822,4.12,3.298-1.037c-.052,1.892.359,4.574,2.49,4.14l.841-19.635c1.652,1.386,4.512,3.862,5.781,5.65.637.898,2.523,7.448,3.745,4.704,2.745-6.166-5.183-15.262-3.735-17.584,1.107-1.775,2.12,2.369,3.031,2.891,1.302.746,3.571.174,4.496,1.945,1.011,1.936-.137,3.911.126,5.731.421,2.915,2.627,6.687,1.459,11.134,1.101,1.868,2.612-9.811,2.353-11.642-.634-4.485-6.632-10.628-7.321-15.233,6.122,5.602,10.734,15.099,9.935,24.808,7.99-9.352-4.444-18.73-5.817-27.381-.244-1.537.032-1.834,1.244-1.553,1.397.889,6.471,13.644,6.225,16.529,3.297.937,2.034-7.333,1.471-9.594-.4-1.608-2.015-2.54-2.49-4.126-2.514-8.398-2.263-12.693-1.469-21.425-.391.233-1.701-.447-2.328.153-.98.938-.881,9.37-4.287,4.488l7.04-12.902,1.226.502c-1.981,2.248-1.403,5.031-1.651,7.759.734-.436,3.927-3.435,4.132-3.101.907,4.801-3.409,4.986-3.169,8.497.065.948,1.705,8.732,1.939,9.102.701,1.115,2.377.51,2.919,1.732,1.379,3.106,2.856,13.09,2.462,16.845l2.478-.003c.251-.27-.677-2.399-.57-3.467.899-8.958,2.681-17.295,4.628-26.089.466-2.104.656-4.457.92-6.617l2.058,2.064c1.698-1.327.988-3.438,1.246-5.165-.847.574-1.328,1.368-2.48,1.027l.828-11.368,3.305.011c-.912,3.368-1.136,6.873-1.653,10.33" fill="#ff1c26"/><path d="M215.044,503.973v-3.091c4.141-.39,4.141,3.481,0,3.091" fill="#ff1c26"/><path d="M493.791,1186.837c-.488.368-3.771,1.066-3.183-1.384l4.127-4.658-.944,6.042Z" fill="#ff7aab"/><path d="M476.533,1207.66c-1.251-1.562,2.462-4.407,2.463-1.545,0,.684-1.988,2.138-2.463,1.545" fill="#ff7aab"/><path d="M148.654,717.698l.636,7.794c-5.247,4.586-2.012-.478-1.832-2.064.215-1.888-2.04-6.523,1.196-5.73" fill="#ff7aab"/><polygon points="97.282 555.18 97.637 557.33 92.713 558.599 92.358 556.449 97.282 555.18" fill="#ff7aab"/><path d="M180.948,725.974l-1.661,8.257c-2.644-.41-5.352-1.179-4.971-5.17l-1.222.012c-3.486,3.488-5.569,6.225-7.474,11.359-4.081-1.197-2.179-6.205-2.431-8.827-.121-1.258-1.764-1.781-1.28-3.569,3.909,2.209,5.598-1.375,8.74-2.009,3.168-.64,7.03.31,10.299-.053" fill="#ff7aab"/><path d="M180.94,756.974c-3.357-4.726-11.534-5.105-10.747-12.403l6.582-.048-.714-5.998,2.822-2.22,2.057,20.669Z" fill="#ff7aab"/><path d="M190.88,613.296l-4.722,7.093c-2.523.215-3.909-2.331-6.425-2.772-5.458-.955-8.641,6.677-14.513,2.897-2.138-3.535,23.935-6.579,25.66-7.218" fill="#ff7aab"/><path d="M49.897,598.155c3.821,3.019,3.922.621,7.109,1.674.834.275.781,2.083,1.413,2.576,2.597,2.025,4.035-2.201,3.295,6.746l-2.057-4.105c-1.504-.124-3.484,6.048-5.382,4.104-1.709-1.75,1.803-2.177,1.656-2.566-1.737-4.481-2.637-2.832-5.128-3.924-4.909-2.153-3.607-6.64-.906-4.505" fill="#ff7aab"/><path d="M205.673,713.706l.934,5.021c-3.835-3.997-6.175-.149-8.76.033-1.923.136-3.784-2.921-6.14-2.106-.251-2.511.009-1.64,1.155-2.175,3.766-1.758,8.802-.748,12.811-.773" fill="#ff7aab"/><path d="M63.378,564.717c-2.095,5.214-8.646,1.125-10.371,6.241l-4.531-2.128c.146-1.683,1.268-1.54,2.164-1.937,4.121-1.823,8.353-2.692,12.738-2.176" fill="#ff7aab"/><path d="M218.202,611.219c.669,3.877.228,6.833-1.234,10.336l-2.071-2.584c2.915-.066,1.454-6.231-.315-3.483-2.958,4.596-3.078,1.227-3.832-3.223l7.452-1.046Z" fill="#ff7aab"/><path d="M77.461,614.326c-2.925-5.926,3.861-13.627,4.209-5.686.165,3.77-1.24,5.371-4.209,5.686" fill="#ff7aab"/><path d="M183.433,721.819l1.641-2.574c-1.558-3.023-2.161.845-4.119.513l-.834-3.087c7.138-1.416,14.592,2.454,3.312,5.148" fill="#ff7aab"/><path d="M224.83,709.435c-.967,3.445-.406,6.266-4.135,6.187l.945-6.044,3.19-.143Z" fill="#ff7aab"/><path d="M97.32,608.127c.245,3.491.326,8.077-3.303,8.259-.543-.731,1.149-4.644,1.577-5.818.496-1.36-.817-3.05,1.726-2.441" fill="#ff7aab"/><path d="M69.17,603.993c.251,1.517.188,6.889-2.053,6.192-2.573-.801-.705-6.815,2.053-6.192" fill="#ff7aab"/><polygon points="47.548 568.955 48.475 571.932 42.684 570.387 47.548 568.955" fill="#ff7aab"/><path d="M134.579,614.33c.025,4.49-4.294,2.925-6.615,3.085l6.615-3.085Z" fill="#ff7aab"/><path d="M110.57,614.312l-3.589.95c-1.078-.644-1.609-1.524-1.373-3,1.814-.036,4.324-.576,4.962,2.05" fill="#ff7aab"/><path d="M175.149,739.407c.352,2.489-1.866,3.226-3.299,4.129l-.005-4.129h3.304Z" fill="#ff7aab"/><path d="M241.394,602.96c1.501-1.484,3.783,3.422,1.224,4.123-2.166.593-1.921-3.434-1.224-4.123" fill="#ff7aab"/><path d="M157.771,613.284c-1.188-1.874,2.741-4.723,3.302-1.528.475,2.704-2.75,2.398-3.302,1.528" fill="#ff7aab"/><path d="M215.718,650.499h-1.647l.004-5.163c1.87.627,1.764,3.193,1.643,5.163" fill="#ff7aab"/><polygon points="175.148 715.632 175.146 717.69 170.189 716.649 170.189 715.637 175.148 715.632" fill="#ff7aab"/><polygon points="144.521 611.214 146.179 611.219 146.172 615.367 144.513 615.362 144.521 611.214" fill="#ff7aab"/><rect x="176.813" y="715.632" width="2.475" height="2.056" fill="#ff7aab"/><polygon points="45.159 609.166 45.157 610.176 41.856 611.218 41.855 609.161 45.159 609.166" fill="#ff7aab"/><path d="M251.329,582.285c1.468-1.97,3.706,4.14,1.238,4.109-.852-.011-1.75-3.421-1.238-4.109" fill="#ff7aab"/><path d="M225.662,603.993c.551-.64,3.283.482,3.291,1.545.025,3.083-4.869.287-3.291-1.545" fill="#ff7aab"/><path d="M47.897,799.037c2.734,2.989,15.281,12.889,18.391,12.697,1.868-.115,2.206-3.741,4.526.543-5.81,5.099-14.18,1.988-20.677.52.012.833-.115,1.733.011,2.556.222,1.449,7.939,12.779,9.38,14.652,3.91,5.079,9.47,9.783,13.54,14.623.85,1.011,2.341,1.03,1.894,3.311-11.649-6.353-23.853-18.248-29.97-32.347-3.076-7.092-3.601-13.373-5.156-20.439-.179-.814-5.253-14.943-1.279-10.807,2.218,2.308,6.404,11.48,9.34,14.691" fill="#ff7aab"/><polygon points="62.413 645.512 63.378 648.426 55.933 649.467 56.411 646.278 62.413 645.512" fill="#ff7aab"/><path d="M54.267,648.442l-.816,2.622-4.148-.57c.64-2.628,3.149-2.088,4.964-2.052" fill="#ff7aab"/><path d="M45.987,674.272l.832,5.165c-1.136,1.54-6.081-6.942-.832-5.165" fill="#ff7aab"/><path d="M46.829,686.682c-.377-.405-.682-4.674.4-5.162l1.214,1.603v1.952l-1.614,1.607Z" fill="#ff7aab"/><path d="M56.75,681.52v3.091c-3.036-.017-3.036-3.074,0-3.091" fill="#ff7aab"/><polygon points="38.536 641.206 38.536 644.297 36.057 644.291 36.894 641.202 38.536 641.206" fill="#ff7aab"/><path d="M20.321,612.252c-1.251,1.562-3.53-3.074-1.238-3.075.549,0,1.713,2.482,1.238,3.075" fill="#ff7aab"/><path d="M33.567,620.532c-.226,4.802-5.921,3.579-8.266,5.163.312-5.73,3.568-2.975,5.256-3.394,1.02-.253,1.555-2.268,3.01-1.769" fill="#ff7aab"/><path d="M34.396,677.374l-3.179-1.193-.12-6.037c1.348.229,3.787,6.63,3.299,7.23" fill="#ff7aab"/><rect x="27.777" y="658.773" width="2.484" height="4.135" fill="#ff7aab"/><path d="M32.74,628.802l-3.3,5.163c-.978-1.448,2.363-6.428,3.3-5.163" fill="#ff7aab"/><path d="M38.535,664.97c-2.595.42-2.227-3.026-2.472-5.162,1.744.85,2.787,2.804,2.472,5.162" fill="#ff7aab"/><path d="M30.256,687.712h-1.639s-.836-4.124-.836-4.124l1.225.004c1.3,1.088,1.443,2.215,1.25,4.12" fill="#ff7aab"/><path d="M291.899,1271.749c2.437-.314,5.611,1.204,7.43-1.545-1.148-4.84-9.208-.372-7.43,1.545M281.131,1273.822c1.226-2.726,4.837-.295,6.676-2.582,1.176-1.462-.67-4.48,2.185-5.478,2.896-1.012,6.674.793,9.708-1.266.896,3.992,4.078.955,6.313,2.574l-.04,4.679c2.457.178,2.685-1.933,1.647-4.124h2.488s.001,6.197.001,6.197h-28.978Z" fill="#ff7aab"/><path d="M437.614,1206.642c-1.809,2.151-5.981,3.469-8.464,4.411-7.813,2.965-15.19,4.57-23.062,6.567-1.739.441-3.421,2.194-5.425,2.434-1.429.171-3.388-1.065-3.538-.939-.299.249-.338,3.096-2.305,3.859-2.502.97-7.005.733-8.535-2.393l51.329-13.939Z" fill="#ff7aab"/><path d="M233.105,1253.144l.006,3.107,1.662-4.136c2.394,2.82,1.171,3.898,4.952,2.061l.84,6.204c2.075.806,1.952-2.336,2.61-2.866,2.406-1.936,7.283,4.778.762,2.876l-1.306,4.111-2.053-2.05-1.664,3.101-.884-5.156c-.67-.574-5.451,1.702-6.154,1.664-2.107-.115-4.366-5.15-7.874-2.718,1.713-2.94-1.263-6.104,1.236-8.236,2.633,2.371,4.692,3.753,7.867,2.038" fill="#ff7aab"/><path d="M288.709,1260.506l-1.357,2.957-9.529-4.625c4.3-3.282,10.478-1.157,15.236-2.539l1.316,2.519-1.669,2.121-3.997-.433Z" fill="#ff7aab"/><path d="M340.743,1255.227c-2.131,7.448-5.673,4.666-9.44,5.166-.859.113-7.286,4.569-7.102,1.541.117-1.909,11.688-6.306,13.661-6.791,1.187-.291,1.564-.447,2.881.084" fill="#ff7aab"/><path d="M306.073,1258.165c2.333.914,3.908-.31,5.684-1.915l.004,8.264-2.079-3.092-7.02,1.024c-.906-2.756,2.444-2.454,2.463-3.612.012-.72-2.688-2.121-2.062-3.619,1.301-3.107,3.262,1.095,3.01,2.95" fill="#ff7aab"/><path d="M435.958,1216.979c-.525,1.691-3.558,3.748-4.752,3.956-2.022.352-3.202-1.707-3.955-1.641-.531.047-4.069,4.928-7.024,2.833,4.121-5.472,10.46-4.078,15.731-5.148" fill="#ff7aab"/><path d="M281.953,1267.633c-.664,1.986-5.7,2.758-7.216,2.787-1.405.026-2.286-1.4-3.135-1.428-1.936-.062-4.391,5.007-2.882-3.439,3.596,3.639,8.907.892,13.233,2.08" fill="#ff7aab"/><path d="M401.177,1225.229l.832,4.138-11.584-1.55c3.318-3.828,7.112-.049,10.752-2.588" fill="#ff7aab"/><path d="M417.739,1222.143c-.012,4.719-4.859,2.8-7.452,3.091v-3.092h7.452Z" fill="#ff7aab"/><path d="M437.611,1228.329l-4.407.937-1.403-2.476c2.134-3.371,5.015-3.168,5.81,1.539" fill="#ff7aab"/><polygon points="473.095 1210.612 469.909 1210.761 472.802 1205.619 473.095 1210.612" fill="#ff7aab"/><polygon points="316.732 1269.676 312.626 1270.72 311.765 1267.63 316.732 1269.676" fill="#ff7aab"/><path d="M275.331,1261.423l-.004,1.53c-1.383,4.438-7.973-1.756.004-1.53" fill="#ff7aab"/><path d="M318.385,1262.446h-3.304c.019-4.116,3.305-4.063,3.304,0" fill="#ff7aab"/><path d="M454.998,1237.637h-3.304c.019-4.116,3.305-4.063,3.304,0" fill="#ff7aab"/><path d="M316.732,1255.228c-.503,2.334-2.557,2.2-4.134,2.049v-2.051s4.134.002,4.134.002Z" fill="#ff7aab"/><path d="M180.944,1257.288v2.057c-1.526.249-2.411.04-3.304-1.55l3.304-.507Z" fill="#ff7aab"/><path d="M338.264,1266.581v-3.091c3.036.017,3.036,3.074,0,3.091" fill="#ff7aab"/><path d="M386.277,1230.402c-.859,1.058-3.318-2.052-2.476-3.091.86-1.059,3.319,2.052,2.476,3.091" fill="#ff7aab"/><path d="M199.159,1245.918v2.056l-3.307-.004c.443-2.056,1.763-2.319,3.307-2.052" fill="#ff7aab"/><rect x="404.5" y="1224.21" width="2.476" height="2.056" fill="#ff7aab"/><path d="M130.444,1214.89c.318-3.103,5.824-2.403,5.778-.506-.062,2.583-4.622.571-5.778.506" fill="#ff7aab"/><path d="M355.857,1262.77c-.404.659-.226,1.932-.215,2.78-3.35-.326-4.719-4.012-7.866-.02l-1.24-4.108c4.157,1.55,8.772-7.869,11.596-.528-.184.817-1.775,1.059-2.275,1.876" fill="#ff7aab"/><path d="M406.16,1246.946l2.457,2.067c2.223-8.116,3.309,4.026,1.266,4.11-2.017-1.555-4.187-2.633-3.723-6.177" fill="#ff7aab"/><path d="M404.491,1253.16c-1.695,3.923-4.863.716-5.791-2.069l5.791,2.069Z" fill="#ff7aab"/><polygon points="393.729 1258.322 393.734 1260.373 389.599 1261.414 389.589 1258.321 393.729 1258.322" fill="#ff7aab"/><path d="M405.329,1258.311l-.007-2.054,2.912-1.011,1.214,1.52c-1.017,1.938-2.39,1.679-4.119,1.545" fill="#ff7aab"/><polygon points="385.45 1262.445 384.224 1262.441 383.005 1260.846 383.007 1258.892 384.215 1257.288 385.45 1262.445" fill="#ff7aab"/><polygon points="377.998 1262.457 377.998 1264.513 373.038 1264.509 373.04 1263.498 377.998 1262.457" fill="#ff7aab"/><polygon points="400.352 1256.255 400.352 1259.345 397.872 1259.34 398.71 1256.251 400.352 1256.255" fill="#ff7aab"/><path d="M187.613,1252.007l-.039-5.054,6.161,3.23c1.588.712.412,2.68.894,3.938.468,1.22,6.112,7.042.01,6.294-3.932-.483-2.354-9.134-7.026-8.408" fill="#ff7aab"/><path d="M209.799,1258.464c.353.717.049,2.003.123,2.948l-6.962-1.967-.485-3.19c.676-.854,6.896,1.341,7.324,2.209" fill="#ff7aab"/><path d="M291.899,1271.749c-1.778-1.917,6.282-6.385,7.431-1.545-1.82,2.749-4.994,1.231-7.431,1.545" fill="#ff7aab"/><polygon points="183.643 538.61 189.031 545.298 188.189 546.355 182.802 539.668 183.643 538.61" fill="#ff7aab"/><path d="M331.632,637.061c-.385-3.3-2.337-5.519-3.36-8.716-1.245-3.89-.24-10.163-4.924-10.454l-1.318,2.691c.55,1.857,2.201,3.159,2.857,4.753,1.573,3.82,2.697,10.314,6.745,11.726M322.524,616.387l-.004-3.096-2.471,2.589,2.475.507ZM325.84,593.661l-2.793,2.995.321,5.261c2.375-.402,2.631-4.548,5.78-.508l-2.823,1.47c-2.255,4.006,2.052,3.589,2.642,4.438.896,1.29,1.7,9.134,2.23,11.174,1.55,5.97,5.073,14.702,5.86,20.583.85,6.35-1.124,10.969,1.905,16.971l-4.528,7.827c-4.339.558-5.135-4.436-8.55-6.111-.205,3.206-1.917,3.211-4.157,3.112-.634.766,1.259,5.134-1.678,4.098l.802-5.748,3.329.58.013-5.164,2.467,2.067c1.817-3.714-5.993-10.06-6.612-9.304.679,2.299-1.182,4.478-2.878,4.139-2.202-.441,1.01-6.685-2.922-6.228,3.406-4.226-.002-7.504-2.202-2.56l.538,5.683-2.377-1.147c1.391-2.392-.756-1.736-.912-2.646-1.42-8.271-.22-9.755-5.792-16.333-.683-.806-1.023-2.705-1.629-3.142-.232-.167-5.093-.425-5.357-.361-2.104.51-1.896,5.277,1.181,4.516l-2.066,2.569c-.664-.17-6.335-14.069-6.253-14.909.141-1.43,1.349-2.422,1.519-3.437.403-2.397-1.985-5.147,1.364-7.554,2.361-1.697,3.774-.438,5.697-.985.637-.181.519-1.933,1.103-2.083,3.721-.957,6.312,5.148,9.832,6.198.798,3.673.571,7.818,1.624,11.411,1.658,5.655,7.842,10.28,10.929,14.775,1.488,2.165,2.893,6.28,4.797,9.007,2.31,3.309,5.158,6.491,7.867,9.29-.096-9.524-7.507-15.471-10.788-23.216-3.906-9.219-4.432-13.446-9.918-22.021-.736-1.15-3.032-6.757-.41-5.405,1.445.745,4.324,8.508,6.217,6.188,1.325-1.622-3.811-6.264-2.1-10.342l8.728-5.148Z" fill="#ff7aab"/><path d="M354.236,614.083c.409.468,1.645.036,2.008.459.588.686.35,2.664.87,3.599,1.761,3.167,7.162,9.11,3.101,11.429l-3.738-1.814c.821,5.304-1.059,3.598-2.769,5.299-3.073,3.058-4.439,5.072-8.82,5.04,1.331-6.538.74-3.794-1.677-6.658-4.02-4.763-6.116-10.138-6.602-17.109,4.48-.853,7.207,6.51,10.488,7.084,4.414.773-.454-5.432-.761-6.318-1.601-4.608-1.953-10.979-5.593-14.187l3.717-3.116c2.124,2.887,3.418,6.836,5.39,9.816.72,1.089,4.125,6.177,4.386,6.476" fill="#ff7aab"/><path d="M364.746,789.019l-7.439-7.758,4.14-.506v-5.169c4.232.181,1.869,5.958,2.055,8.798.082,1.237,1.786,2.723,1.244,4.635" fill="#ff7aab"/><polygon points="320.876 588.487 320.094 593.195 315.906 593.656 315.901 588.477 320.876 588.487" fill="#ff7aab"/><path d="M355.637,771.449c1.642,5.363.803,9.622-3.275,4.659l3.275-4.659Z" fill="#ff7aab"/><path d="M267.886,609.159c.909,1.333-2.236,7.102-3.271,2.525-.782-3.464,2.368-3.851,3.271-2.525" fill="#ff7aab"/><path d="M317.561,622.584c-1.337,1.667-4.487-5.715-4.131-7.225,2.319,1.305,3.04,4.671,4.131,7.225" fill="#ff7aab"/><path d="M336.6,736.306c.941,1.176-1.151,5.431-2.474,4.123-1.926-1.902,1.037-5.918,2.474-4.123" fill="#ff7aab"/><polygon points="348.003 771.697 351.306 775.821 350.044 777.397 346.741 773.273 348.003 771.697" fill="#ff7aab"/><path d="M362.279,715.631c1.224.068,1.847,7.16.406,7.211-1.874.065.095-6.18-.406-7.211" fill="#ff7aab"/><path d="M292.727,637.061l.111-2.961,2.36-1.169c.324,2.48-.384,4.387-2.471,4.13" fill="#ff7aab"/><polygon points="360.61 763.182 359.376 767.306 358.135 764.743 359.385 763.187 360.61 763.182" fill="#ff7aab"/><path d="M289.406,601.925v2.057c-1.526.249-2.411.04-3.304-1.551l3.304-.506Z" fill="#ff7aab"/><polygon points="343.228 683.572 340.748 683.577 340.753 680.481 343.228 683.572" fill="#ff7aab"/><path d="M282.258,801.069c.128.298,1.164.701,1.627,1.621,3.671,7.292,1.077,4.818.29,7.21-1.251,3.8.734,14.808,1.284,19.724.145,1.297,1.192,2.328,1.234,4.176.089,3.905-4.401,6.049-4.767,9.542-.316,3.02,1.102,11.017.943,14.432-.112,2.404-1.584,3.743-1.759,7.201-.226,4.472,1.867,24.873,2.69,29.766.647,3.85,3.369,6.833,3.122,11.08-2.617.544-4.172-2.085-4.777-4.879-2.783-12.842-5.311-39.894-5.974-53.53-.458-9.421.567-19.463-.095-28.824-1.926-27.199-8.805-56.55-11.607-84.745-.774-7.796-5.603-19.139.094-25.452l3.36,31.477c4.285,19.237,6.616,43.302,14.335,61.201" fill="#ff7aab"/><path d="M339.085,1098.086c.291-.509.132-3.139-.821-3.616-5.365-.379-12.696-8.775-17.375-3.096,2.732,2.644,6.034,1.166,9.555,2.523,2.157.831,7.242,6.633,8.641,4.189M335.868,1088.677l4.872-.91-2.464,2.573,4.159,3.273c.619,4.929-.693,9.674-.941,14.303-.127,2.389.876,4.549.813,6.253-.092,2.479-3.826,7.636-2.394,11.839-5.216-.63-10.216-3.258-15.415-4.014-3.037-.441-16.519,1.423-9.818-4.312l22.791,2.721c1.678-6.674,1.62-13.461.781-20.242-1.651.385-.84,3.152-2.826,3.119-3.47-.057-2.564-3.027-3.794-4.624-3.515-4.562-14.435-2.073-19.344-2.494-.754.192-.962.786-1.195,1.609-.485,1.719-2.634,12.027-2.262,12.748.587,1.136,2.986.437,2.109,4.109-1.464.183-3.156-.34-4.563-.006-3.058.727-10.534,18.876-10.351,23.785-3.945-4.31,1.86-12.125,3.111-16.283,1.636-5.439,4.35-15.013,5.13-20.471,1.021-7.153-1.791-15.642,7.498-15.954l-.824,6.196,7.444,1.024c.475-3.233-2.62-3.106-3.632-4.047-2.752-2.56,3.668-5.721,3.62-6.802l-2.464-2.06c2.853-9.922,16.501-4.029,5.807,4.127,2.1,3.807,6.153,2.583,9.557,2.633,2.469.036,3.868-2.435,4.595,1.907" fill="#ff7aab"/><path d="M257.12,904.803c-3.499,8.228-11.387,6.463-16.543,10.843l8.259.523-1.661,4.627,2.463,1.652c-1.948,5.582-9.002,7.833-13.633,8.19-1.3.1-2.869-1.329-4.013-.935-1.319.453-1.681,3.731-3.017,4.556-1.619,1-4.694.505-6.615,1.55-1.297-5.697-1.293-11.944.004-17.587,2.359,2.06,3.984-.932,5.238-.834.783.061,1.685,1.42,2.579,1.419,2.941-.004,6.329-2.403,9.548-1.62-.429-1.871-4.086-1.992-5.346-2.099-3.733-.314-7.613-.135-11.203,1.072l-.012-3.094c4.422-1.287,9.527.502,13.592-.079,6.615-.945,13.944-6.111,20.36-8.184" fill="#ff7aab"/><path d="M235.462,840.889c.593,1.235-.444,3.564-.272,5.148.204,1.876,1.879,3.994,1.875,4.513-.005.747-1.569,1.626-1.855,2.597-1.543,5.245-3.567,11.881-4.334,17.186-.328,2.268,1.44,5.723-1.488,8.613-3.228-4.56-1.355-11.085-3.775-16.004l1.507-.692-.616-2.302c.023-.782,1.464-.522,1.629-1.334,1.36-6.699-2.429-13.915-3.299-20.476l1.225-1.239c2.376.93,4.078.597,4.977-2.393.245,3.143,4.239,5.992,4.426,6.383" fill="#ff7aab"/><path d="M326.668,948.218l-8.216,15.055-12.475,7.676c-.887-4.667,1.628-2.177,2.54-3.718.406-.686.906-3.085.711-3.905l-4.083-2.192c3.023-3.958,8.514-13.215,12.935-13.634,2.294-.218,5.892,1.558,8.588.718" fill="#ff7aab"/><path d="M285.498,931.469c.46.405,1.522.055,2.153.275-1.497,4.88,2.211,10.261,2.405,13.014.044.625-1.525,9-1.799,12.051-.6,6.682-3.72,16.036,4.861,11.035,1.507,1.279,1.2,2.352.433,4.112l4.137,1.073c-3.068,5.444-4.037.213-4.991-.448-3.662-2.535-6.22-2.382-9.901-.602-2.091-4.31.526-6.713.775-9.873.596-7.554,1.135-18.291.857-25.766-.122-3.288-2.67-8.577.005-9.838.131,1.306.269,4.266,1.065,4.967" fill="#ff7aab"/><path d="M290.238,930.635c-.734-4.321,5.723-2.368,6.516-3.248.686-.761-.299-5.45,4.247-3.978l-1.641,2.574c.575.994,1.08,1.348,2.05,1.558,8.909,1.921,23.799-1.496,31.876-6.734,2.078-1.349,3.031-3.278,4.75-4.406,1.101-.722,8.161-4.223,7.688-.744-.277,2.324-2.602,4.008-4.235,5.054-5.282,3.382-21.476,9.924-26.826,9.924h-24.425Z" fill="#ff7aab"/><path d="M339.912,1063.987c.267,1.75-.708,2.697-1.682,3.575-.852.77-7.932,5.703-8.637,5.797-4.744.634-8.737-2.975-12.024-6.807-.348-2.293.824-1.482,2.072-1.564,2.585-.17,4.605,1.08,6.609,1.053,4.12-.054,9.071-3.416,13.662-2.054" fill="#ff7aab"/><path d="M193.363,1075.358c.272.34-1.86,8.657-2.101,9.254-.547,1.354-2.06,2.248-2.749,3.804-1.723,3.889-1.548,9.827-6.661,8.545-2.651-6.985.16-6.336,2.289-9.868,2.668-4.426,4.119-12.117,9.222-11.735" fill="#ff7aab"/><path d="M228.066,810.879c-1.068,3.942.626,7.129-1.054,10.901-.255.572-2.217-.095-1.352,2.377,1.684-.958,5.307,3.317,4.13,5.175l-2.47-1.03c-.321.445,1.52,5.208-.42,5.145-1.424-.046-.423-3.39-.819-4.09-.378-.669-1.606-.756-1.875-1.296-.211-.423-2.435-8.855-2.443-9.354-.028-1.943.641-11.914,3.053-10.582l3.25,2.754Z" fill="#ff7aab"/><path d="M301.008,1000.929c-.95,2.578,3.187,6.755,3.176,7.762-.008.725-1.945,1.878-2.235,3.291-.361,1.758,1.14,4.426.704,6.512-2.174.458-1.467-.434-1.889-2.233-1.786-7.614-2.897-16.356-4.681-24.066l2.013-1.605,6.202,9.819-3.29.52Z" fill="#ff7aab"/><path d="M314.081,1127.779c.31-.212-.171-2.733,1.812-1.772l1.659,10.334-3.713-6.181-2.547,3.139c-5.963-4.702-6.545.766-11.942,2.002.826-5.121,4.404-9.461,8.708-9.391,2.137.034,3.855,3.353,6.023,1.869" fill="#ff7aab"/><path d="M308.449,1057.775c-2.515.514-1.315-.806-1.668-2.515-1.011-4.886-3.836-15.844-3.948-20.012-.135-5.006,2.985-3.888,3.786.531.473,2.613,1.592,8.926,1.832,11.24.319,3.082-1.057,7.203-.002,10.756" fill="#ff7aab"/><path d="M273.682,1144.616l-4.945,6.843c-3.139.212-4.583-2.694-8.3-.652-1.873-2.491,5.986-6.7,7.269-7.023,2.057-.516,3.934,1.106,5.976.832" fill="#ff7aab"/><path d="M344.676,1079.732c1.91,2.387.027,14.389-2.27,12.153-2.043-1.989.781-5.365.79-5.684.064-2.365-7.92-1.609-6.59-6.707,1.969-.186,6.724-1.444,8.07.238" fill="#ff7aab"/><path d="M356.483,961.646c.785-5.959-3.194-5.666-5.699-8.89l2.804-7.645c1.482-.422,1.632,1.466,2.029,2.617,1.289,3.733,4.431,11.523.866,13.918" fill="#ff7aab"/><path d="M320.871,937.859l-4.588,1.865-2.602-3.731-11.019-2.246c1.962-.792,21.447-1.361,18.209,4.112" fill="#ff7aab"/><path d="M230.626,726.997h-16.559c.299-1.534,1.994-2.673,3.107-2.93,1.147-.264,11.393-.256,12.068.011,1.102.436,1.596,1.497,1.384,2.919" fill="#ff7aab"/><path d="M322.525,1025.741c1.062,1.176-2.087,5.553-3.921,6.02-1.504.383-6.757-.669-6.822-2.407-.103-2.777,4.993-.145,6.087-.598.556-.23,2.499-5.404,4.656-3.015" fill="#ff7aab"/><path d="M306.161,1078.656c.125-.275,3.228-2.762,3.622-4.236,5.444-.165.593,6.942-1.76,9.194-1.759.485-2.689-3.14-1.862-4.958" fill="#ff7aab"/><path d="M348.191,1225.244c2.139,2.217-7.743,6.662-9.099,2.574,2.707-2.404,5.816-3,9.099-2.574" fill="#ff7aab"/><path d="M272.677,1135.08c-.687.497-4.751,1.08-3.958-1.31l5.362-5.694c2.648.77-.922,6.655-1.404,7.004" fill="#ff7aab"/><path d="M320.874,1049.5l-5.793,1.039c-1.298-6.71,6.279-7.483,5.793-1.039" fill="#ff7aab"/><polygon points="297.686 959.585 297.685 966.81 292.727 964.216 297.686 959.585" fill="#ff7aab"/><polygon points="296.696 976.647 299.639 986.458 297.469 987.473 294.526 977.662 296.696 976.647" fill="#ff7aab"/><path d="M315.079,918.242c.492,5.802-9.66-2.552-8.277-4.14l8.277,4.14Z" fill="#ff7aab"/><path d="M315.905,996.782c-1.507.386-9.669-5.563-8.275-7.221,3.135.797,6.572,3.908,8.275,7.221" fill="#ff7aab"/><path d="M322.524,902.736c-.563,1.433-4.332,3.098-5.376,3.189-1.425.124-2.799-.099-3.723-1.654,2.632-2.32,6.079-1.438,9.099-1.535" fill="#ff7aab"/><path d="M266.228,954.421c-1.184,4.46-6.543,2.591-9.103.501l9.103-.501Z" fill="#ff7aab"/><path d="M309.279,979.235c.986,1.246.019,2.039-1.252,2.087-5.65.217-5.435-7.117,1.252-2.087" fill="#ff7aab"/><path d="M262.088,1135.302c-.819-4.978,3.369-4.293,4.951-1.545l-4.951,1.545Z" fill="#ff7aab"/><path d="M286.103,737.329c-1.9-2.426,2.539-7.27,3.3-3.602.637,3.073-2.489,4.637-3.3,3.602" fill="#ff7aab"/><path d="M226.484,743.528l-6.605-.509c1.464-2.402,5.633-2.492,6.605.509" fill="#ff7aab"/><path d="M300.18,899.632c.526-.913,4.569-1.6,4.13,1.528-1.36,3.448-5.235.392-4.13-1.528" fill="#ff7aab"/><path d="M335.772,1104.302c.502.566-2.193,6.9-3.303,5.158l.391-4.153c.398-1.176,2.615-1.34,2.912-1.005" fill="#ff7aab"/><polygon points="218.986 796.959 219.995 804.49 218.255 804.853 217.246 797.323 218.986 796.959" fill="#ff7aab"/><path d="M319.208,1145.644c-1.98-1.024-2.374-4.871-2.467-7.236,2.534,1.23,2.728,4.167,2.467,7.236" fill="#ff7aab"/><path d="M263.739,693.924c.095,2.161.319,3.872-1.238,5.143l-2.069-4.101,3.307-1.042Z" fill="#ff7aab"/><path d="M325.84,939.928c-4.579,1.314-5.706-5.206-1.658-2.572.555.361,1.527,1.702,1.658,2.572" fill="#ff7aab"/><path d="M213.235,739.417v2.046c-2.784.47-3.333.162-4.136-3.085l4.136,1.039Z" fill="#ff7aab"/><polygon points="288.587 783.845 291.071 783.856 291.062 786.958 288.578 786.946 288.587 783.845" fill="#ff7aab"/><path d="M349.019,768.34h-2.476c-.199-1.905-.032-3.01,1.242-4.124l1.234,4.124Z" fill="#ff7aab"/><polygon points="296.038 887.214 298.522 887.225 298.513 890.327 296.029 890.316 296.038 887.214" fill="#ff7aab"/><path d="M225.654,905.821l-2.371-.138-.937-2.948c1.987-.404,3.514.48,3.308,3.086" fill="#ff7aab"/><path d="M303.486,1141.499c-1.391-.521-5.201-.113-5.792-2.046,1.932.068,4.928-.92,5.792,2.046" fill="#ff7aab"/><path d="M268.707,684.61h-1.647c-.135-1.97-.157-3.922,1.241-5.158l.406,5.158Z" fill="#ff7aab"/><path d="M271.191,1029.875c.512.687-.386,4.098-1.238,4.109-2.468.03-.23-6.079,1.238-4.109" fill="#ff7aab"/><rect x="298.31" y="810.099" width="2.071" height="3.322" transform="translate(-513.223 1108.905) rotate(-89.845)" fill="#ff7aab"/><path d="M324.179,1112.579l.002,1.01h-4.136c.756-2.918,2.343-1.627,4.134-1.01" fill="#ff7aab"/><path d="M185.084,1103.257h-1.647c-.2-1.905-.033-3.01,1.241-4.124l.406,4.124Z" fill="#ff7aab"/><path d="M306.797,973.027l-2.057,2.051c-.889-.93-1.521-1.572-1.246-3.095l3.303,1.044Z" fill="#ff7aab"/><path d="M337.436,748.7c-1.251-1.562,2.462-4.406,2.463-1.545,0,.684-1.988,2.138-2.463,1.545" fill="#ff7aab"/><path d="M291.058,917.197c-1.349-.745-2.74-2.27-2.468-4.134,1.349.744,2.74,2.27,2.468,4.134" fill="#ff7aab"/><path d="M287.75,729.059c-1.251,1.562-3.529-3.074-1.238-3.075.549,0,1.713,2.482,1.238,3.075" fill="#ff7aab"/><polygon points="300.174 934.76 296.867 934.259 298.92 932.708 300.174 934.76" fill="#ff7aab"/><rect x="300.179" y="975.089" width="1.647" height="3.091" fill="#ff7aab"/><path d="M202.475,98.521c-.443,2.055-1.768,2.323-3.312,2.047.443-2.055,1.768-2.323,3.312-2.047" fill="#ff7aab"/><path d="M233.945,431.36c1.543-.755,2.557-3.324,2.468-5.168-1.731.833-2.77,2.841-2.468,5.168M286.094,401.388c-1.578-.15-3.633-.282-4.135,2.052l4.135.005v-2.057ZM256.287,386.915c-.27-.385-4.913,1.265-4.962,3.086l4.962,1.04v-4.126ZM267.051,379.68c-.475-.593-2.463.861-2.463,1.546,0,2.861,3.714.016,2.463-1.546M262.088,373.455c-1.299-3.714-3.167-3.213-5.796-2.035.472,1.638.924,3.309,2.419,3.659l3.377-1.624ZM291.897,405.502c-.133.192.134,2.292-.227,3.323-.6,1.712-2.341,3.907-2.315,5.435.014.807,1.983.678,2.418,2.224.505,1.792.22,4.908-.118,6.834-.333,1.902-5.27,15.998-6.21,18.08-.411.91-4.288,7.053-4.74,7.521-4.157,4.31-16.703-3.236-21.563-4.062-5.075-.862-10.609,2.194-14.423-3.161.298,3.963-3.811,1.621-3.326,5.164,3.033-1.301,5.684,1.766,7.93,2.065,2.859.38,5.809-3.128,7.78-.509-1.007,1.561-2.515,2.868-4.097,3.229-.638.145-6.819.063-7.487-.087-1.643-.368-10.854-6.596-11.637-8.242-1.62-3.405-.173-6.309-.751-9.172-.168-.834-4.067-2.451-2.51-6.914-1.98-.115-2.783,2.337-4.729,2.891-4.958,1.411-7.097-2.866-8.519-8.055l2.477-1.05c-.209,5.203,3.77,6.682,6.969,4.034,1.508-1.248,1.754-4.777,4.636-4.038.349-2.045-1.605-2.789-1.642-4.618-.048-2.42,3.219-7.756,3.316-10.459.086-2.445-1.879-3.501-1.545-5.817.828-5.727,11.896-17.78,16.216-19.152,3.734-1.186,6.677,1.596,10.142-.265.323-2.811-2.277-2.898-3.217-4.749-2.353-4.633-.255-9.676,2.917-12.679,3.917-.971,10.228,13.945,12.365,17.368,1.66,2.66,6.595,10.913,8.199,12.505,2.744,2.724,15.074,7.362,16.613,10.272,2.105,3.982-2.769,1.863-2.922,2.084" fill="#ff7aab"/><path d="M296.03,391.052l-2.472-1.04c-.202,1.896-.047,3.018,1.234,4.114l1.234-1.545.004-1.529ZM324.18,323.861h-3.305l.002,3.091,3.304-1.045v-2.046ZM336.6,305.255c.296.344-.941,6.862-1.332,8.146-.788,2.59-4.204,7.512-4.266,7.986-.144,1.119.797,2.657.542,3.857-.379,1.789-6.156,4.333-5.699,7.909,7.413-.577,6.428-6.08,8.768-11.266,1.434-3.178,3.878-5.981,5.106-9.415l11.223.005c5.744,5.535,8.015,4.399,1.407,12.405.383-3.362-10.318-8.855-10.772-8.262.704,2.754-1.158,2.931-1.628,3.883-6.615,13.396-8.399,11.558-16.171,20.935-.904,1.091-6.003,8.292-2.091,7.207-.097-4.149,10.98-6.864,11.641-3.469l-.073,3.432c-1.078.087-2.212-.022-3.221.602-5.433,3.363,3.192,12.258-3.37,11.868,3.751,4.099-.022,10.328-.08,13.925-.035,2.236,1.316,3.661,1.47,5.34.186,2.032-.629,5.088.27,7.597-.552.628-6.885-.09-7.791.239-.377.137-4.198,5.24-6.277,5.466-.298.795,2.763,4.357,3.136,4.603,1.813,1.196,4.949.26,5.189.483.889.83.666,3.368,1.218,4.698.937,2.258,3.427,1.082,2.866,4.143l-16.876,1.842c-3.913-4.129-6.933-8.159-12.099-4.94l3.296-3.607c-2.11-4.265-6.823-.889-8.653-5.749-1.622-4.308,1.173-4.673-5.816-4.066l-.413-2.583c.779-2.099,3.352-1.087,3.986-1.737,1.061-1.089.115-9.135,5.934-4.976-.52-5.358,2.735-3.289,3.993-4.333.605-.502.458-2.512.89-3.33.784-1.485,3.252.696,2.574-2.682-3.248,1.998-7.562-1.104-9.544-.98-1.737.109-4.687,5.133-5.35-1.074,4.654-1.654,3.45-3.629.823-7.244,2.084-.575,3.187,2.26,5.176,1.92,2.569-.439,10.452-8.042,13.428-10.259,1.052-.784,1.973.185,3.771-1.393,1.975-1.732,10.801-13.411,9-16.021l-3.231-1.677,1.65-3.078-2.488-2.999c.054-2.602,6.258-15.319,8.001-17.007,1.291-1.25,11.023-7.344,11.883-6.344" fill="#ff7aab"/><path d="M405.323,446.855c-6.175,2.865-11.052-2.143-17.076-2.96-5.59-.758-11.661.399-17.273-.143-10.125-.977-21.885-5.675-32.402-7.096-8.205-1.109-16.716-.487-24.723-1.087-2.613-.196-4.561-2.885-5.954-3.008-1.521-.135-2.647,3.785-4.393.353,1.352-.97,1.379-3.604,2.066-4.639,1.54-2.32,17.889-.393,21.451.064,18.518,2.374,37.048,7.212,55.622,10.15,7.726,1.222,18.225-1.49,22.682,8.366" fill="#ff7aab"/><path d="M221.518,338.328c2.234-.915,2.998-1.881,4.554-4.115l4.496,12.779c-8.692,8.621-8.638,27.152-17.044,35.625-1.642,1.656-9.089,5.878-8.201,1.166.725-3.843,2.967-6.867,3.823-9.734,1.191-3.989,1.475-8.693,2.498-12.178.311-1.057,5.372-5.607.936-7.177l-.122-1.297c2.615-5.923,6.395-9.467,9.06-15.069-1.415.58-3.905.172-4.54.985l-7.895,15.546-1.681-.586c-.2-1.026-.703-2.093-.745-3.136-.39-9.672,12.27-28.33,10.725-39.68,1.979-2.994,8.332,15.66,7.286,19.926-.095.388-2.681,5.96-3.15,6.945" fill="#ff7aab"/><path d="M395.108,346.95c3.664,3.914,7.389,11.68,9.38,17.219-5.171-3.685-7.729-13.335-12.973-16.422-2.42-1.425-2.828-.036-4.643-.312-1.071-.162-2.278-1.795-2.677-1.763-1.511.122-12.537,22.417-11.21,26.715l-3.145.175c-9.05,32.418-11.82-3.233-18.328-12.016-2.796-3.772-2.095.243-4.137,1.55l.827-7.232c3.822-.846,4.811,2.58,6.38,5.984,2.985,6.479,4.761,14.101,7.275,20.874l8.37-20.54c6.019-12.952,11.972-28.022,24.881-14.232" fill="#ff7aab"/><path d="M237.245,529.556c-.307-3.362-2.513-5.716-4.96-4.124l.807,3.634,4.153.49ZM231.215,518.566c3.68,2.337,6.379,1.287,8.308,2.458.788.478,4.157,3.666,5.947,4.987,1.506,1.112,2.449,4.284,4.582,3.541,1.271-.443.591-4.099,2.924-3.086.224,1.633-1.823,12.761-3.298,11.362l-2.08-5.146c-1.496,3.228-4.87,6.815-8.105,6.197-.568-.108-1.976-3.542-2.478-3.814-1.731-.94-3.856-.192-5.853-2.37l-2.206-13.972c.037-1.059,1.576-.59,2.259-.157" fill="#ff7aab"/><path d="M300.169,544.028c.598-.673-.68-3.366-1.992-3.041l-4.63.985,1.654,4.123-4.954-2.061-.833,6.196c.552.692,5.527-2.3,6.266-3.072,1.73-1.807-.018-4.212,1.6-5.189.223,1.634,1.927,3.141,2.889,2.059M289.41,554.37c1.093-1.26-3.799-5.863-4.7-6.025-.972-.174-5.292,3.774-7.733,2.381l.014,2.602-3.233-.092c-.708-3.022-.716-5.839,1.111-8.295,1.103-1.117,5.739-.547,7.514-1.16.885-.306,5.542-3.373,7.49-3.822,4.639-1.068,8.65.075,12.429-.139,1.555-.088,1.999-2.418,3.663-1.984.375,1.796-.598,2.066-1.234,3.101-5.2,8.469-10.535,8.811-15.321,13.433-.12.116.238,1.561-.122,1.945-.455.484-1.851-.801-2.654-.614-2.417.565-4.771,4.049-7.984,2.798,1.357-7.01,6.507-5.859,10.76-4.129" fill="#ff7aab"/><path d="M214.636,488.407c9.836-3.839,13.035,13.833,5.268,16.911-9.451,3.744-11.885-14.328-5.268-16.911" fill="#ff7aab"/><path d="M319.213,544.039c.275,4.338-6.115,1.456-4.958,7.226,3.555-.998,7.357-4.34,9.929,1.027-1.96-.378-3.654,1.881-5.341,1.957-1.044.047-2.331-1.142-3.229-.992-.345.058-2.887,6.088-5.809,3.274-.217-.209-2.707-5.598-2.175-6.29,1.874-2.441,6.779,9.533,5.392,1.239l-2.064-.723c2.122-3.319,4.249-7.98,8.255-6.718" fill="#ff7aab"/><path d="M303.489,426.196c.645,2.996-1.18,5.861-3.374,6.763-1.911.786-2.673-2.364-5.15-1.472-1.658.597-2.915,3.99-3.082,6.073-4.318.409-1.015-7.016.456-9.259,3.469-5.288,6.582-1.347,11.15-2.105" fill="#ff7aab"/><path d="M209.094,463.41c.71,2.998-1.488,5.416-1.624,7.796-.233,4.083-.023,4.796-.671,9.494-.441,3.195.92,8.61-2.659,8.543-2.119-1.916,1.585-20.628,2.872-23.833.613-1.528.002-2.498,2.082-2" fill="#ff7aab"/><path d="M311.761,537.836c.734,1.004-2.005,6.361-2.628,7.562-2.287,4.405-7.682,12.568-11.308,15.061-1.469,1.01-3.383,2.261-5.098,2.175-.595-3.555,1.836-1.298,3.126-2.278.411-.312.888-2.516,1.775-3.454,2.076-2.195,4.55-3.993,6.29-6.644.702-1.071,6.326-14.497,7.843-12.422" fill="#ff7aab"/><path d="M273.683,565.746l9.927-.011-2.48-2.065c-.4-5.035,6.098.293,7.449,1.567,1.156,5.646-18.367,4.288-14.896.509" fill="#ff7aab"/><path d="M237.245,559.544l-1.994,3.042c-5.738-2.094-11.745.514-17.041-3.559,2.333-3.561,5.357.145,7.928.428,3.677.405,7.43-.116,11.107.089" fill="#ff7aab"/><path d="M244.469,367.003c-.062.211-2.486,3.236-3.076,2.33,1.815-5.9-2.647-8.89-2.484-14.461,4.165-.061,6.714,8.186,5.56,12.131" fill="#ff7aab"/><path d="M247.187,375.533l3.302.54-5.782,2.566c-.255-1.567.539-3.272.433-4.669-.257-3.368-2.328-1.881,1.637-6.713,3.5.183,1.749,6.091.41,8.276" fill="#ff7aab"/><path d="M303.482,495.455c.716.91.145,2.409-1.047,3.361-3.438,2.746-5.966,6.363-9.708,7.999-1.584-4.253,9.866-12.49,10.755-11.36" fill="#ff7aab"/><path d="M390.76,351.33c3.191,4.166,6.783,7.543,8.769,12.83-.953,1.104-8.337-8.799-9.106-10.099-.936-1.581-1.86-3.281-1.649-5.396,1.05.166,1.298,1.766,1.986,2.665" fill="#ff7aab"/><path d="M252.97,350.735c1.474,3.968-.347,8.628-4.125,8.262-.213-3.667.195-8.938,4.125-8.262" fill="#ff7aab"/><path d="M264.568,536.802c1.359,2.482-5.04,10.337-5.787,9.293.178-3.858,2.052-9.887,5.787-9.293" fill="#ff7aab"/><path d="M407.808,384.834c-1.315,1.597-9.503-10.716-9.099-13.427,1.65.524,9.607,12.811,9.099,13.427" fill="#ff7aab"/><path d="M257.944,528.533c.653.768-1.768,9.17-4.131,8.259l.359-7.293,3.772-.966Z" fill="#ff7aab"/><path d="M213.234,390.018c.742.914-2.84,10.157-4.131,8.259-.835-2.182,1.885-11.027,4.131-8.259" fill="#ff7aab"/><path d="M247.18,540.937c1.329,1.751-4.711,9.236-6.615,7.225-.408-2.238.951-2.346,1.949-3.284.609-.572,4.317-4.402,4.666-3.941" fill="#ff7aab"/><path d="M343.223,281.465c-2.609,1.141-4.009,1.625-5.775-1.541,2.163-2.855,5.519-3.225,5.775,1.541" fill="#ff7aab"/><path d="M377.17,384.85l-.004,1.53c-4.87,7.019-6.621-2.369.004-1.53" fill="#ff7aab"/><path d="M368.062,394.153c.09,3.225-1.001,6.874-4.135,6.187.329-.512,2.897-8.132,4.135-6.187" fill="#ff7aab"/><path d="M247.181,499.589l-.004,1.529c-1.383,4.439-7.974-1.755.004-1.529" fill="#ff7aab"/><path d="M286.094,376.58l-.004,1.53-2.062,2.579c-2.032-1.875-.55-5.106,2.066-4.109" fill="#ff7aab"/><path d="M402.836,369.333l-1.226-.005c-.98-1.258-2.395-2.136-2.073-4.124,1.434.902,3.652,1.639,3.299,4.129" fill="#ff7aab"/><path d="M228.965,503.725v2.046s-3.303,1.044-3.303,1.044l.004-1.53c.871-1.623,1.773-1.802,3.299-1.56" fill="#ff7aab"/><polygon points="211.388 546.354 214.079 549.713 212.82 551.285 210.129 547.926 211.388 546.354" fill="#ff7aab"/><path d="M278.643,385.872h-2.476v-3.091c1.509-.337,2.74,1.138,2.476,3.091" fill="#ff7aab"/><path d="M291.89,346.603c.217.241.027,1.402-.406,2.067-3.05,4.681-2.578-5.388.406-2.067" fill="#ff7aab"/><path d="M231.454,370.362c1.154-1.432,1.893-4.411,3.303-5.153l-.408,3.09-2.895,2.063Z" fill="#ff7aab"/><path d="M200.818,326.968c-.623,3.306,2.267,4.519,2.947,7.166.998,3.884,1.424,13.259-2.537,14.524-.244-4.583,4.428-9.835-.453-12.855-4.892-3.028-7.061,1.976-11.889,1.575l-1.252-3.757c-3.73-1.498-6.669-.312-9.995,1.611l-.008-3.116c-2.354,1.713-4.3.932-4.975-2.564-.548-4.248,4.607,1.177,5.39,1.183,1.476.013,10.354-1.429,12.337-1.816,7.2-1.403,4.651-2.017,7.921-6.654,2.009-2.847,5.634-3.205,3.34-8.73l11.216-6.234c3.183.05,2.35,9.43,1.127,11.804-1.468,2.854-10.17,7.2-13.169,7.863" fill="#ff7aab"/><path d="M180.12,344.52l-3.232.111c-.191,10.118-3.838,10.959-10.29,14.544l-10.483,10.158c-1.921-7.769-1.83-11.619,1.65-18.591l-4.963-1.576c1.818-7.862,9.707,3.009,13.226-4.119-.42-1.801-4.095-.783-3.288-3.087,1.776-5.072,15.14-2.546,17.38,2.56" fill="#ff7aab"/><path d="M192.531,360.037l-4.541,11.364c-3.593-4.493-.181-11.876,4.541-11.364" fill="#ff7aab"/><path d="M204.947,376.572c-2.726,3.418-.023-9.071.422-9.296,2.684,2.646-.252,6.163-.422,9.296" fill="#ff7aab"/><rect x="189.228" y="343.496" width="2.484" height="4.135" fill="#ff7aab"/><path d="M191.701,379.672l-1.641-.002c-.623-6.776,3.7-6.303,1.641.002" fill="#ff7aab"/><path d="M116.368,318.677c-1.543.106-3.643.304-4.14-2.047,1.544-.105,3.643-.303,4.14,2.047" fill="#ff7aab"/><polygon points="195.847 381.753 195.845 382.764 191.716 383.806 191.716 381.748 195.847 381.753" fill="#ff7aab"/><rect x="198.956" y="379.048" width="2.071" height="3.322" transform="translate(-181.257 579.671) rotate(-89.845)" fill="#ff7aab"/><path d="M201.063,230.526c2.058,3.555,6.282,13.092,7.523,17.839,3.117,11.923,4.853,25.635,9.772,36.577,3.211,7.141,2.783,9.256,4.834,16.421.332,1.16,1.775,1.065,2.276,2.534,1.012,2.969,1.951,7.455,1.842,10.65-2.714,3.502-6.09-10.177-6.565-11.956-9.852-36.944-24.423-72.306-33.429-109.178-.557-2.282-1.812-5.661-3.039-7.559,3.144-4.315,5.598,2.99,6.404,6.49,2.013,8.749,3.938,13.254,6.589,21.721,1.056,3.375,3.045,15.17,3.793,16.461" fill="#ff7aab"/><path d="M229.785,317.656l.413,5.185.441-1.586,1.638-.494c.192,1.723-.342,3.963-.01,5.529.236,1.11,2.498,0,1.669,2.728-2.104-1.16-2.621,2.093-2.897,2.098-3.578.062-1.872-10.104-4.543-11.928l3.289-1.532Z" fill="#ff7aab"/><path d="M234.501,335.551c6.394,9.523-3.458,8.912-3.039-2.392.107-.18,2.77,1.991,3.039,2.392" fill="#ff7aab"/><path d="M243.877,333.154c-.472-.61,1.316-6.919,2.881-6.187,3.42,1.599-2.001,7.324-2.881,6.187" fill="#ff7aab"/><path d="M183.432,175.014c-.497,2.35-2.596,2.152-4.14,2.047.497-2.35,2.597-2.152,4.14-2.047" fill="#ff7aab"/><path d="M218.202,309.379h-1.647l.004-4.129c1.646.553,1.857,2.201,1.643,4.129" fill="#ff7aab"/><path d="M308.449,557.466h-2.476c.014-3.79,2.463-3.79,2.476,0" fill="#ff7aab"/><path d="M215.718,396.22c.848,1.073-1.644,4.143-2.475,3.09-.848-1.072,1.643-4.142,2.475-3.09" fill="#ff7aab"/><path d="M238.901,541.96c-.832,1.052-3.323-2.018-2.476-3.091.832-1.052,3.324,2.019,2.476,3.091" fill="#ff7aab"/><path d="M285.262,454.101l-2.459-2.584,1.225-1.53c1.282,1.096,1.436,2.218,1.234,4.114" fill="#ff7aab"/><path d="M207.438,499.579h-1.647l.004-4.129c1.646.553,1.857,2.201,1.643,4.129" fill="#ff7aab"/><path d="M252.148,500.612c-1.251,1.562-3.529-3.074-1.238-3.075.549,0,1.713,2.482,1.238,3.075" fill="#ff7aab"/><rect x="251.329" y="566.785" width="4.959" height="1.013" fill="#ff7aab"/><path d="M284.447,367.276c1.251-1.562,3.529,3.074,1.238,3.075-.549,0-1.713-2.482-1.238-3.075" fill="#ff7aab"/><rect x="300.179" y="348.671" width="2.475" height="2.056" fill="#ff7aab"/><path d="M251.316,349.698l-2.474-1.046.003-2.05c1.564-.329,2.751,1.21,2.471,3.096" fill="#ff7aab"/><path d="M255.465,489.237c.757.883,7.92-5.105,6.615-8.259-2.321,2.576-5.512,4.414-6.615,8.259M247.023,456.42c.251.186.455,1.738,1.025,2.232,2.327,2.016,7.706,8.826,8.474,9.161,1.559.682,2.902-.581,4.236-.256,1.441.352,2.39,1.447,3.592,1.827,3.511,1.109,3.759-1.66,5.558,4.12,8.365-4.008,6.289,3.368,7.084,4.38.365.466,8.459-1.42,9.918,2.577-4.37,6.264-8.35,11.905-14.038,16.422-2.325,1.846-5.226,3.914-8.024,6.157-.697.559-.553,2.606-2.32,2.798-1.12.121-9.23-1.966-7.892-3.142l3.319-.015v-3.095c-4.105,1.033-5.082-5.858-9.952-5.178l.844-3.087-2.409-.062-.09-5.113c-2.992.299-4.202,5.7-5.799,6.705-2.494,1.568-10.144,3.184-12.633,1.407-1.783-1.273-4.762-7.398-6.132-7.926l-10.203-.191c-.999-2.926,1.567-3.052,1.68-3.775.609-3.888-2.402-5.271,2.456-8.12l-3.313-3.602,3.206-.144.896-3.573c3.723,1.607,3.053-1.386,4.552-1.569,1.856-.228,4.002.924,5.529.588,1.448-.319,8.303-5.243,9.574-5.623,2.09-.623,4.956.555,7.197-.147,1.878-.832.543-6.069,3.665-3.756" fill="#ff7aab"/></svg>