<?xml version="1.0" encoding="UTF-8"?><svg id="a" xmlns="http://www.w3.org/2000/svg" width="502.89" height="1278" viewBox="0 0 502.89 1278"><path d="M459.844,155.971c0-30.832-51.386-18.842-63.376-46.247-13.703-32.545,49.673-65.089,22.267-89.07-29.119-25.693-46.247,61.664-82.217,49.674C307.399,60.05,324.527,3.526,293.696.1c-37.683-3.426-11.99,82.218-47.961,82.218-37.683,0-13.702-89.07-49.673-78.792-22.267,6.851-11.99,42.821-32.544,54.811-30.832,18.842-63.376-46.247-87.356-18.841-22.268,23.98,41.108,53.099,25.693,80.505-15.416,25.693-51.386,8.564-58.238,35.97-8.564,34.257,82.218,11.99,82.218,47.96s-82.218,11.99-82.218,47.961c0,37.683,82.218,11.99,82.218,47.96,0,37.683-82.218,11.99-82.218,49.673,0,35.97,82.218,10.277,82.218,47.96,0,35.971-82.218,11.991-82.218,47.961,0,37.683,82.218,11.99,82.218,47.96,0,37.683-82.218,11.99-82.218,49.673,0,35.97,82.218,10.277,82.218,47.961,0,35.97-82.218,11.99-82.218,47.96s82.218,11.99,82.218,47.96c0,37.683-82.218,11.99-82.218,47.961,0,37.683,82.218,11.99,82.218,49.673,0,35.97-82.218,10.277-82.218,47.96,0,35.97,82.218,11.99,82.218,47.96,0,37.683-82.218,11.99-82.218,47.961,0,37.683,82.218,11.99,82.218,49.673,0,35.97-82.218,10.277-82.218,47.96,0,35.97,82.218,11.99,82.218,47.96,0,37.684-90.782,13.703-82.218,47.961,6.852,27.406,44.535,10.277,58.238,35.97,15.415,29.119-47.961,56.525-25.693,80.505,23.98,27.406,56.524-35.97,87.356-18.842,22.267,11.99,10.277,47.96,32.544,54.812,35.971,10.277,11.99-78.792,49.673-78.792,35.971,0,10.278,85.643,47.961,82.218,30.831-3.426,13.703-59.951,42.822-70.228,35.97-11.99,53.098,75.366,82.217,49.673,27.406-23.98-35.97-54.811-22.267-89.069,11.99-27.406,63.376-15.416,63.376-46.247s-51.386-18.842-63.376-46.248c-13.703-32.544,42.822-58.237,22.267-89.069-25.693-39.396-65.089,82.218-107.911,59.951-27.405-13.703-47.96-37.684-42.821-68.515,6.851-37.683,82.217-11.99,82.217-49.673,0-35.971-82.217-10.278-82.217-47.961,0-35.97,82.217-11.99,82.217-47.96,0-37.683-77.079-11.99-82.217-47.96-5.139-32.545,20.554-58.238,51.386-70.228,41.109-15.416,73.653,94.208,99.346,59.95,22.267-29.118-35.97-56.524-22.267-89.069,11.99-27.406,63.376-15.415,63.376-46.247s-51.386-18.842-63.376-46.248c-13.703-32.544,44.534-59.95,22.267-89.069-25.693-34.257-59.95,78.792-99.346,59.951-29.119-13.703-47.961-39.396-42.822-70.228,5.139-35.97,80.505-10.277,80.505-47.96,0-35.97-80.505-11.99-80.505-47.961,0-37.683,80.505-11.99,80.505-47.96,0-37.683-75.366-11.99-80.505-49.673-3.426-30.832,13.703-54.812,42.822-68.515,39.396-18.841,73.653,94.208,99.346,59.951,22.267-29.119-35.97-56.525-22.267-89.07,11.99-27.405,63.376-15.415,63.376-46.247" fill="#ff1c26"/></svg>