<?xml version="1.0" encoding="UTF-8"?><svg id="a" xmlns="http://www.w3.org/2000/svg" width="502.985" height="1278" viewBox="0 0 502.985 1278"><path d="M268.716,1064.426c0,10.334-6.889,17.224-17.223,17.224s-17.224-6.89-17.224-17.224v-372.033h17.224c10.334,0,17.223,6.89,17.223,17.224v354.809ZM502.959,1028.256c0-37.892-82.674-12.057-82.674-48.226,0-37.893,82.674-12.057,82.674-49.949,0-36.17-82.674-10.334-82.674-48.227,0-36.169,82.674-12.056,82.674-48.226,0-37.892-82.674-12.057-82.674-48.226,0-37.893,84.396-12.057,82.674-49.949-1.722-34.448-68.895-10.334-79.229-46.504-10.334-34.448,63.728-48.227,44.782-79.229-17.224-27.558-63.728,15.501-84.397-10.335-18.946-24.113,29.281-65.45,1.723-80.951-27.558-15.501-41.337,43.059-70.618,34.447-27.557-8.612-5.167-68.895-36.169-68.895-25.836,0-24.114,43.06-44.782,48.227V211.852c0-10.335,6.889-17.224,17.224-17.224s17.223,6.889,17.223,17.224v165.347c31.003,31.003,44.782-36.169,79.23-39.614,49.948-5.167,106.787,86.118,120.566,39.614,10.334-34.447-53.394-44.781-44.782-80.951,8.612-34.448,79.229-10.334,79.229-46.504,0-34.448-70.617-12.057-79.229-46.504-8.612-34.448,62.005-48.227,44.782-79.229-17.224-31.003-65.451,24.113-89.564-1.723-24.113-25.835,29.281-72.339-1.722-89.563-31.003-17.224-44.782,56.838-79.229,46.504C263.549,68.895,285.94,0,251.493,0s-12.057,70.617-48.227,77.507c-36.17,6.889-44.781-62.006-77.506-44.782-32.725,17.224,22.39,63.728-3.445,89.563-24.113,24.114-72.34-29.28-89.564,1.723-17.223,31.002,53.394,44.781,44.782,79.229C68.921,237.687,1.749,215.296.026,249.744c-1.722,37.892,82.674,12.056,82.674,48.226C82.7,335.862.026,310.027.026,347.919c0,36.17,82.674,10.334,82.674,48.226C82.7,432.315.026,408.202.026,444.372c0,37.892,82.674,12.056,82.674,48.226C82.7,530.49.026,504.655.026,542.547c0,36.17,82.674,10.334,82.674,48.227C82.7,626.943.026,602.83.026,639s82.674,12.057,82.674,48.226C82.7,725.119.026,699.283.026,735.453c0,37.892,82.674,12.056,82.674,49.949C82.7,821.571.026,795.736.026,833.628c0,36.17,82.674,12.057,82.674,48.226C82.7,919.747.026,893.911.026,930.081c0,37.892,82.674,12.056,82.674,49.949C82.7,1016.199.026,990.364.026,1028.256c0,36.17,72.34,12.057,80.952,48.226,8.612,32.725-67.173,46.504-48.227,77.507,18.947,31.003,65.451-22.391,89.564,1.723,25.835,25.835-27.558,72.339,3.445,89.563,31.002,17.224,44.781-56.838,79.229-46.504,34.447,10.334,12.056,79.229,46.504,79.229s12.056-68.895,46.504-77.507c34.447-8.612,48.226,62.006,79.229,44.782,31.003-17.224-24.113-65.45,1.722-89.563,25.836-24.114,70.618,29.28,89.564-1.723,18.946-31.003-55.116-44.782-46.504-77.507,8.611-36.169,80.951-12.056,80.951-48.226" fill="#ff7aab"/></svg>